<svg width="178" height="41" viewBox="0 0 178 41" fill="none" xmlns="http://www.w3.org/2000/svg">
<path d="M20.1344 41C31.2543 41 40.2689 31.8218 40.2689 20.5C40.2689 9.17818 31.2543 0 20.1344 0C9.0145 0 0 9.17818 0 20.5C0 31.8218 9.0145 41 20.1344 41Z" fill="#E2EBEE"/>
<path d="M37.1496 22.8862L34.5305 24.4258L30.7633 26.6406L28.6521 27.8815L10.5426 38.5273C8.53902 37.4203 6.74093 35.9769 5.22052 34.2709V4.11664C5.22052 3.15611 5.8089 2.40297 6.57985 2.09595C7.14688 1.87005 7.81249 1.88511 8.415 2.23905L9.67565 2.98041L24.5595 11.7301L30.7633 15.3766L33.2205 16.8208L37.1496 19.131C38.5706 19.9652 38.5706 22.0512 37.1496 22.8862Z" fill="#7ADBA3"/>
<path d="M34.5276 24.4258L30.7604 26.6405L28.6492 27.8815L25.7737 24.8734H9.63403L24.5566 11.7299L26.8288 9.72845C29.8161 9.72845 32.3719 11.9132 32.8881 14.9095L33.2176 16.8206L34.5276 24.4258Z" fill="#2C8DB6"/>
<path d="M26.6292 22.9489H18.822L12.1651 29.9119C10.3578 31.8023 7.23738 30.1771 7.68501 27.5787L9.86822 14.9092C10.3844 11.9136 12.9397 9.72845 15.9269 9.72845H26.6293C30.2149 9.72845 33.1217 12.6879 33.1217 16.3387C33.1216 19.9895 30.2149 22.9489 26.6292 22.9489Z" fill="#4AB8E6"/>
<path d="M19.601 15.7111H17.1767V13.2427H15.2865V15.7111H12.8622V17.6356H15.2865V20.104H17.1767V17.6356H19.601V15.7111Z" fill="white"/>
<path d="M26.4645 15.3349C27.0999 15.3349 27.6151 14.8104 27.6151 14.1634C27.6151 13.5164 27.0999 12.9919 26.4645 12.9919C25.8291 12.9919 25.3139 13.5164 25.3139 14.1634C25.3139 14.8104 25.8291 15.3349 26.4645 15.3349Z" fill="white"/>
<path d="M26.4645 20.1528C27.0999 20.1528 27.6151 19.6283 27.6151 18.9813C27.6151 18.3343 27.0999 17.8099 26.4645 17.8099C25.8291 17.8099 25.3139 18.3343 25.3139 18.9813C25.3139 19.6283 25.8291 20.1528 26.4645 20.1528Z" fill="white"/>
<path d="M28.8309 17.7438C29.4663 17.7438 29.9815 17.2193 29.9815 16.5723C29.9815 15.9253 29.4663 15.4009 28.8309 15.4009C28.1954 15.4009 27.6803 15.9253 27.6803 16.5723C27.6803 17.2193 28.1954 17.7438 28.8309 17.7438Z" fill="white"/>
<path d="M24.0982 17.7438C24.7336 17.7438 25.2487 17.2193 25.2487 16.5723C25.2487 15.9253 24.7336 15.4009 24.0982 15.4009C23.4627 15.4009 22.9476 15.9253 22.9476 16.5723C22.9476 17.2193 23.4627 17.7438 24.0982 17.7438Z" fill="white"/>
<path d="M53.3035 35.9241V31.2787H56.7871V30.6367H52.5246V35.9241H53.3035Z" fill="#132539"/>
<path d="M59.5138 32.9858V35.9241H60.2328V31.9963H59.5652L56.8602 34.9422V31.9963H56.1412V35.9241H56.8003L59.5138 32.9858Z" fill="#132539"/>
<path d="M65.228 35.9241V31.9963H61.2734V35.9241H61.9924V32.593H64.509V35.9241H65.228Z" fill="#132539"/>
<path d="M69.713 34.7986C69.4387 35.1536 68.9426 35.3953 68.4203 35.3953C67.4877 35.3953 66.837 34.9421 66.7943 34.1641H70.3036C70.3293 34.0206 70.3462 33.862 70.3462 33.6882C70.3462 33.152 70.1495 32.7214 69.7643 32.3966C69.3791 32.0718 68.8825 31.9056 68.2919 31.9056C67.5729 31.9056 67.0167 32.0945 66.6228 32.4797C66.2207 32.8649 66.024 33.3559 66.024 33.9526C66.024 34.572 66.2376 35.063 66.6741 35.4331C67.1107 35.8032 67.6844 35.992 68.3946 35.992C69.1737 35.992 69.7643 35.7201 70.1752 35.1763L69.713 34.7986ZM68.2405 32.4872C69.0366 32.4872 69.5414 32.8952 69.5846 33.5901H66.7856C66.8971 32.9254 67.4276 32.4872 68.2405 32.4872Z" fill="#132539"/>
<path d="M71.8641 37.4348V35.5917C72.1635 35.8561 72.617 35.992 73.2164 35.992C73.8671 35.992 74.3976 35.7956 74.8172 35.3953C75.228 34.995 75.4335 34.4965 75.4335 33.8922C75.4335 33.303 75.245 32.8272 74.8598 32.4571C74.4746 32.0869 73.9523 31.9056 73.3021 31.9056C72.6427 31.9056 72.1635 32.102 71.8641 32.4872V31.9963H71.1451V37.4348H71.8641ZM73.2251 32.5024C74.1151 32.5024 74.6713 33.0613 74.6713 33.9375C74.6713 34.3681 74.526 34.7155 74.2435 34.9875C73.961 35.2594 73.5928 35.3953 73.1562 35.3953C72.5487 35.3953 72.1209 35.1914 71.8641 34.7835V33.3181C72.0696 32.8725 72.5744 32.5024 73.2251 32.5024Z" fill="#132539"/>
<path d="M76.9462 35.9241V33.1142L78.5207 34.9271L80.0276 33.1142V35.9241H80.7466V31.9963H80.1303L78.5295 33.9149L76.8861 31.9963H76.2272V35.9241H76.9462Z" fill="#132539"/>
<path d="M82.1362 32.9404C82.5727 32.6459 83.018 32.5024 83.4633 32.5024C84.3446 32.5024 84.6527 32.9103 84.6527 33.6732C84.3702 33.5976 84.0282 33.5598 83.6086 33.5598C82.2733 33.5598 81.4773 33.9526 81.4773 34.7759C81.4773 35.5011 82.128 35.9769 83.0951 35.9769C83.8141 35.9769 84.3702 35.705 84.6527 35.3425V35.9241H85.3717V33.4994C85.3717 32.4797 84.7385 31.9056 83.5485 31.9056C82.8896 31.9056 82.1794 32.1247 81.7685 32.4646L82.1362 32.9404ZM83.2661 35.4029C82.6498 35.4029 82.2389 35.1536 82.2389 34.7533C82.2389 34.3303 82.7268 34.1188 83.7026 34.1188C84.0878 34.1188 84.4047 34.1566 84.6527 34.2321V34.6324C84.5587 34.8213 84.3959 35.0026 84.1479 35.1612C83.8998 35.3198 83.5999 35.4029 83.2661 35.4029Z" fill="#132539"/>
<path d="M87.0852 37.4348V35.5917C87.3846 35.8561 87.8386 35.992 88.4374 35.992C89.0881 35.992 89.6187 35.7956 90.0383 35.3953C90.4491 34.995 90.6546 34.4965 90.6546 33.8922C90.6546 33.303 90.4661 32.8272 90.0809 32.4571C89.6957 32.0869 89.1739 31.9056 88.5232 31.9056C87.8643 31.9056 87.3846 32.102 87.0852 32.4872V31.9963H86.3662V37.4348H87.0852ZM88.4462 32.5024C89.3362 32.5024 89.8924 33.0613 89.8924 33.9375C89.8924 34.3681 89.747 34.7155 89.4646 34.9875C89.1821 35.2594 88.8144 35.3953 88.3779 35.3953C87.7698 35.3953 87.342 35.1914 87.0852 34.7835V33.3181C87.2906 32.8725 87.7955 32.5024 88.4462 32.5024Z" fill="#132539"/>
<path d="M92.1672 35.9241V34.4965L92.5355 34.1944L94.5384 35.9241H95.4967L93.0829 33.8016L95.3858 31.9963H94.4182L92.1672 33.7562V31.9963H91.4482V35.9241H92.1672Z" fill="#132539"/>
<path d="M99.1857 34.7986C98.9114 35.1536 98.4153 35.3953 97.893 35.3953C96.9598 35.3953 96.3096 34.9421 96.2665 34.1641H99.7763C99.8019 34.0206 99.8189 33.862 99.8189 33.6882C99.8189 33.152 99.6222 32.7214 99.237 32.3966C98.8518 32.0718 98.3552 31.9056 97.7646 31.9056C97.0456 31.9056 96.4894 32.0945 96.0955 32.4797C95.6934 32.8649 95.4961 33.3559 95.4961 33.9526C95.4961 34.572 95.7103 35.063 96.1468 35.4331C96.5834 35.8032 97.157 35.992 97.8673 35.992C98.6464 35.992 99.237 35.7201 99.6479 35.1763L99.1857 34.7986ZM97.7132 32.4872C98.5092 32.4872 99.0141 32.8952 99.0573 33.5901H96.2583C96.3692 32.9254 96.9002 32.4872 97.7132 32.4872Z" fill="#132539"/>
<path d="M101.682 32.593V35.9241H102.401V32.593H104.121V31.9963H99.9788V32.593H101.682Z" fill="#132539"/>
<path d="M107.418 36.8758V35.9241H111.081V36.8758H111.766V35.3198H111.124V31.9963H107.855V32.3589C107.855 33.8469 107.683 34.708 107.23 35.3198H106.733V36.8758H107.418ZM110.405 32.6006V35.3198H108C108.351 34.6929 108.53 33.8771 108.53 32.8725V32.6006H110.405Z" fill="#132539"/>
<path d="M116.256 35.9241V31.9963H112.934V32.8045C112.934 35.1008 112.455 35.3198 111.881 35.3198V35.9241C112.438 35.9845 112.84 35.8335 113.165 35.3803C113.491 34.9271 113.653 34.0509 113.653 32.7819V32.6006H115.537V35.9241H116.256Z" fill="#132539"/>
<path d="M119.073 31.9963C117.738 31.9963 117.147 32.51 117.147 33.2577C117.147 33.862 117.601 34.3228 118.286 34.4361L116.865 35.9241H117.738L119.056 34.5342H120.143V35.9241H120.862V31.9963H119.073ZM117.91 33.2729C117.91 32.8272 118.269 32.6006 118.988 32.6006H120.143V33.93H118.971C118.32 33.93 117.91 33.6581 117.91 33.2729Z" fill="#132539"/>
<path d="M125.192 35.9241V32.593H127.717V31.9963H124.473V35.9241H125.192Z" fill="#132539"/>
<path d="M131.542 34.7986C131.268 35.1536 130.772 35.3953 130.249 35.3953C129.316 35.3953 128.666 34.9421 128.623 34.1641H132.133C132.158 34.0206 132.175 33.862 132.175 33.6882C132.175 33.152 131.979 32.7214 131.593 32.3966C131.208 32.0718 130.712 31.9056 130.121 31.9056C129.402 31.9056 128.846 32.0945 128.452 32.4797C128.05 32.8649 127.853 33.3559 127.853 33.9526C127.853 34.572 128.067 35.063 128.503 35.4331C128.94 35.8032 129.513 35.992 130.224 35.992C131.003 35.992 131.593 35.7201 132.004 35.1763L131.542 34.7986ZM130.07 32.4872C130.866 32.4872 131.37 32.8952 131.414 33.5901H128.615C128.726 32.9254 129.257 32.4872 130.07 32.4872Z" fill="#132539"/>
<path d="M136.346 32.9858V35.9241H137.065V31.9963H136.398L133.693 34.9421V31.9963H132.974V35.9241H133.633L136.346 32.9858ZM133.659 30.3043C133.668 30.9992 134.241 31.4298 135.097 31.4298C135.893 31.4298 136.5 30.9917 136.509 30.3043H135.833C135.833 30.6745 135.55 30.9237 135.097 30.9237C134.618 30.9237 134.343 30.6745 134.335 30.3043H133.659Z" fill="#132539"/>
<path d="M138.825 35.9241V33.1142L140.4 34.9271L141.907 33.1142V35.9241H142.626V31.9963H142.01L140.409 33.9149L138.765 31.9963H138.106V35.9241H138.825Z" fill="#132539"/>
<path d="M147.114 34.7986C146.84 35.1536 146.343 35.3953 145.822 35.3953C144.888 35.3953 144.238 34.9421 144.195 34.1641H147.704C147.73 34.0206 147.748 33.862 147.748 33.6882C147.748 33.152 147.55 32.7214 147.165 32.3966C146.78 32.0718 146.284 31.9056 145.693 31.9056C144.974 31.9056 144.418 32.0945 144.024 32.4797C143.622 32.8649 143.425 33.3559 143.425 33.9526C143.425 34.572 143.639 35.063 144.076 35.4331C144.512 35.8032 145.085 35.992 145.796 35.992C146.575 35.992 147.165 35.7201 147.576 35.1763L147.114 34.7986ZM145.642 32.4872C146.438 32.4872 146.943 32.8952 146.985 33.5901H144.187C144.298 32.9254 144.829 32.4872 145.642 32.4872Z" fill="#132539"/>
<path d="M149.266 37.4348V35.5917C149.565 35.8561 150.018 35.992 150.618 35.992C151.268 35.992 151.799 35.7956 152.218 35.3953C152.629 34.995 152.834 34.4965 152.834 33.8922C152.834 33.303 152.646 32.8272 152.261 32.4571C151.876 32.0869 151.354 31.9056 150.703 31.9056C150.044 31.9056 149.565 32.102 149.266 32.4872V31.9963H148.547V37.4348H149.266ZM150.626 32.5024C151.517 32.5024 152.073 33.0613 152.073 33.9375C152.073 34.3681 151.927 34.7155 151.645 34.9875C151.362 35.2594 150.994 35.3953 150.558 35.3953C149.95 35.3953 149.522 35.1914 149.266 34.7835V33.3181C149.47 32.8725 149.976 32.5024 150.626 32.5024Z" fill="#132539"/>
<path d="M153.38 33.9526C153.38 34.5494 153.603 35.0327 154.039 35.418C154.476 35.8032 155.041 35.992 155.734 35.992C156.427 35.992 157.001 35.8032 157.446 35.418C157.883 35.0327 158.105 34.5494 158.105 33.9526C158.105 33.3559 157.883 32.8649 157.446 32.4797C157.009 32.0945 156.436 31.9056 155.734 31.9056C155.041 31.9056 154.476 32.0945 154.039 32.4797C153.603 32.8649 153.38 33.3559 153.38 33.9526ZM154.142 33.9526C154.142 33.5221 154.296 33.1671 154.596 32.9027C154.895 32.6383 155.271 32.5024 155.734 32.5024C156.196 32.5024 156.581 32.6383 156.889 32.9027C157.189 33.1746 157.343 33.5221 157.343 33.9526C157.343 34.3832 157.197 34.7307 156.898 34.995C156.599 35.2594 156.205 35.3953 155.734 35.3953C155.263 35.3953 154.887 35.2594 154.587 34.9875C154.288 34.7155 154.142 34.3681 154.142 33.9526Z" fill="#132539"/>
<path d="M160.889 35.9241C162.061 35.9241 162.72 35.5313 162.72 34.7987C162.72 34.2926 162.48 33.9829 162.001 33.8545C162.386 33.6505 162.575 33.3635 162.575 33.0009C162.575 32.2758 161.993 31.9963 160.752 31.9963H158.903V35.9241H160.889ZM160.897 34.2094C161.608 34.2094 161.958 34.3983 161.958 34.7684C161.958 35.1461 161.573 35.3349 160.812 35.3349H159.622V34.2094H160.897ZM160.726 32.5855C161.445 32.5855 161.813 32.6912 161.813 33.0916C161.813 33.4465 161.496 33.6354 160.974 33.6354H159.622V32.5855H160.726Z" fill="#132539"/>
<path d="M171.218 30.6367H170.491V34.7382L166.956 30.6367H166.365V35.9241H167.092V31.8528L170.619 35.9241H171.218V30.6367ZM171.783 32.2304C171.783 32.6081 171.929 32.9178 172.219 33.1595C172.502 33.4012 172.87 33.5221 173.307 33.5221C173.76 33.5221 174.128 33.4012 174.411 33.1595C174.693 32.9178 174.839 32.6081 174.839 32.2304C174.839 31.8452 174.693 31.5355 174.411 31.2938C174.128 31.0597 173.76 30.9388 173.307 30.9388C172.861 30.9388 172.494 31.0597 172.211 31.2938C171.929 31.5355 171.783 31.8452 171.783 32.2304ZM172.707 31.6866C172.87 31.5507 173.076 31.4827 173.307 31.4827C173.786 31.4827 174.163 31.7848 174.163 32.2304C174.163 32.6761 173.795 32.9707 173.307 32.9707C173.076 32.9707 172.87 32.9027 172.707 32.7668C172.545 32.6308 172.459 32.4495 172.459 32.2304C172.459 32.0114 172.545 31.8301 172.707 31.6866ZM174.599 34.5418V33.9526H172.023V34.5418H174.599Z" fill="#132539"/>
<path d="M175.732 32.0416L177.264 31.4147V35.9241H178V30.6065H177.512L175.458 31.4751L175.732 32.0416Z" fill="#132539"/>
<path d="M64.8154 9.20754V22.4477H67.0436V5.34784H65.1334L54.7526 18.588V5.34784H52.5246V22.4477H54.4098L64.8154 9.20754Z" fill="#4AB8E6"/>
<path d="M72.4343 22.4477V11.6748H79.657V9.74493H70.3777V22.4477H72.4343Z" fill="#4AB8E6"/>
<path d="M83.2655 27.3333V21.3728C84.1222 22.2278 85.4202 22.6675 87.1336 22.6675C88.9948 22.6675 90.5127 22.0324 91.712 20.7377C92.8874 19.443 93.4751 17.8307 93.4751 15.8764C93.4751 13.971 92.9364 12.432 91.8346 11.235C90.7327 10.038 89.2393 9.45178 87.3788 9.45178C85.4937 9.45178 84.1222 10.0869 83.2655 11.3327V9.7449H81.2089V27.3333H83.2655ZM87.1582 11.3816C89.7044 11.3816 91.2959 13.1893 91.2959 16.023C91.2959 17.4154 90.8798 18.5391 90.0721 19.4185C89.2638 20.2979 88.211 20.7377 86.9626 20.7377C85.2241 20.7377 83.9997 20.0781 83.2655 18.759V14.0198C83.8532 12.5786 85.2976 11.3816 87.1582 11.3816Z" fill="#4AB8E6"/>
<path d="M95.0356 16.0719C95.0356 18.0017 95.6724 19.5651 96.9213 20.8109C98.1696 22.0568 99.7856 22.6675 101.769 22.6675C103.752 22.6675 105.392 22.0568 106.666 20.8109C107.914 19.5651 108.551 18.0017 108.551 16.0719C108.551 14.142 107.914 12.5542 106.666 11.3083C105.417 10.0624 103.776 9.45178 101.769 9.45178C99.7856 9.45178 98.1696 10.0624 96.9213 11.3083C95.6724 12.5542 95.0356 14.142 95.0356 16.0719ZM97.2148 16.0719C97.2148 14.6794 97.6555 13.5313 98.5128 12.6763C99.3695 11.8213 100.447 11.3816 101.769 11.3816C103.091 11.3816 104.193 11.8213 105.074 12.6763C105.931 13.5557 106.372 14.6794 106.372 16.0719C106.372 17.4643 105.956 18.588 105.099 19.443C104.241 20.2979 103.116 20.7377 101.769 20.7377C100.422 20.7377 99.345 20.2979 98.4883 19.4185C97.6309 18.5391 97.2148 17.4154 97.2148 16.0719Z" fill="#4AB8E6"/>
<path d="M113.116 22.9229V9.28966L119.149 17.3741H119.688L125.548 9.28966V22.9229H127.78V5.34784H125.769L119.467 14.1855L112.945 5.34784H110.885V22.9229H113.116Z" fill="#132539"/>
<path d="M132.069 13.0055C133.32 12.0263 134.595 11.5493 135.869 11.5493C138.395 11.5493 139.278 12.9051 139.278 15.4409C138.469 15.1899 137.488 15.0643 136.287 15.0643C132.461 15.0643 130.181 16.3699 130.181 19.1066C130.181 21.5169 132.044 23.0986 134.815 23.0986C136.875 23.0986 138.469 22.1947 139.278 20.9896V22.9229H141.338V14.8635C141.338 11.474 139.523 9.56586 136.115 9.56586C134.227 9.56586 132.192 10.2939 131.014 11.4238L132.069 13.0055ZM135.306 21.1905C133.54 21.1905 132.363 20.3619 132.363 19.0313C132.363 17.6253 133.761 16.9223 136.556 16.9223C137.659 16.9223 138.567 17.0478 139.278 17.2989V18.6295C139.008 19.2572 138.542 19.8598 137.832 20.3871C137.12 20.9143 136.262 21.1905 135.306 21.1905Z" fill="#132539"/>
<path d="M146.246 22.9228V11.8506H153.48V9.86707H144.186V22.9228H146.246Z" fill="#132539"/>
<path d="M155.584 13.0055C156.834 12.0263 158.11 11.5493 159.385 11.5493C161.91 11.5493 162.793 12.9051 162.793 15.4409C161.984 15.1899 161.003 15.0643 159.801 15.0643C155.976 15.0643 153.696 16.3699 153.696 19.1066C153.696 21.5169 155.559 23.0986 158.33 23.0986C160.39 23.0986 161.984 22.1947 162.793 20.9896V22.9229H164.853V14.8635C164.853 11.474 163.038 9.56586 159.63 9.56586C157.742 9.56586 155.706 10.2939 154.53 11.4238L155.584 13.0055ZM158.82 21.1905C157.055 21.1905 155.878 20.3619 155.878 19.0313C155.878 17.6253 157.276 16.9223 160.071 16.9223C161.175 16.9223 162.082 17.0478 162.793 17.2989V18.6295C162.523 19.2572 162.057 19.8598 161.346 20.3871C160.635 20.9143 159.777 21.1905 158.82 21.1905Z" fill="#132539"/>
<path d="M172.311 23.1739C173.978 23.1739 175.352 22.7973 176.406 22.019C177.461 21.2658 178 20.2364 178 18.9057C178 17.5248 177.485 16.6461 176.014 15.9179C177.019 15.2903 177.534 14.3362 177.534 13.1059C177.534 10.9216 175.646 9.54071 172.434 9.54071C169.761 9.54071 167.8 10.7961 166.941 12.3025L168.462 13.3319C169.418 12.1017 170.693 11.4991 172.237 11.4991C174.077 11.4991 175.352 12.2021 175.352 13.4323C175.352 14.5621 174.371 15.3154 173.12 15.3154H170.276V17.2235H173.268C174.959 17.2235 175.818 17.801 175.818 18.9559C175.818 20.3619 174.371 21.2155 172.336 21.2155C170.448 21.2155 168.878 20.3619 168.167 19.0313L166.549 20.1862C167.75 22.1697 169.688 23.1739 172.311 23.1739Z" fill="#132539"/>
</svg>
