<svg width="60" height="38" viewBox="0 0 60 38" fill="none" xmlns="http://www.w3.org/2000/svg">
<path fill-rule="evenodd" clip-rule="evenodd" d="M55.5 3.84357e-07C52.5 6.71249e-07 20.7378 -6.0921e-07 3 3.84357e-07C1.5 4.68379e-07 0 1.52 0 3.04V33.44C-1.73625e-07 36.48 1.5 38 4.5 38C21.2337 38 52.5 38 55.5 38C58.5 38 60 36.48 60 33.44V4.56C60 1.52 58.5 3.84357e-07 55.5 3.84357e-07Z" fill="#265697"/>
<path fill-rule="evenodd" clip-rule="evenodd" d="M56.0794 19.19C56.0819 28.0204 49.0948 35.1802 40.4736 35.1825C31.8521 35.1847 24.862 28.0285 24.8597 19.1982V19.19C24.8575 10.3599 31.8445 3.19973 40.4655 3.19739C49.0869 3.19504 56.0772 10.3516 56.0794 19.1819V19.19C56.0794 19.19 56.0794 19.1872 56.0794 19.19Z" fill="#DFAC16"/>
<path fill-rule="evenodd" clip-rule="evenodd" d="M19.4297 3.2015C10.8595 3.25725 3.92035 10.3988 3.92035 19.19C3.92035 28.0155 10.9136 35.1783 19.5303 35.1783C23.5744 35.1783 27.2607 33.5998 30.0345 31.0125C30.0343 31.0125 30.034 31.0122 30.0333 31.0118H30.0366C30.6046 30.4816 31.1344 29.9096 31.6213 29.2997H28.4232C27.9962 28.7714 27.6081 28.2208 27.2594 27.6528H32.7751C33.1105 27.103 33.4143 26.532 33.6838 25.9407H26.3488C26.0988 25.3918 25.8817 24.8304 25.6964 24.2609H34.3369C34.8577 22.6672 35.1402 20.9622 35.1402 19.1898C35.1402 18.0147 35.0159 16.8691 34.7805 15.766H25.2382C25.3564 15.1983 25.5056 14.6375 25.6835 14.0864H34.3272C34.1339 13.5 33.9095 12.9285 33.6542 12.3745H26.3479C26.6115 11.7978 26.9101 11.2368 27.2436 10.6951H32.7552C32.3884 10.0966 31.9825 9.52472 31.5436 8.98302H28.4706C28.9458 8.41028 29.4688 7.87092 30.0366 7.36802C27.2626 4.78041 23.5753 3.2015 19.5303 3.2015C19.4966 3.2015 19.4633 3.20132 19.4297 3.2015C19.4297 3.2015 19.4633 3.20132 19.4297 3.2015Z" fill="#BF3126"/>
<path fill-rule="evenodd" clip-rule="evenodd" d="M25.1436 23.2607L25.3516 21.8137C25.238 21.8137 25.0708 21.8635 24.9234 21.8635C24.3448 21.8635 24.281 21.5484 24.3178 21.3155L24.7852 18.363H25.6645L25.8768 16.7624H25.0477L25.2165 15.7671H23.5545C23.5178 15.8046 22.5734 21.3651 22.5734 22.0421C22.5734 23.0445 23.1229 23.4909 23.8977 23.4837C24.5044 23.4785 24.9769 23.3065 25.1436 23.2607C25.1436 23.2607 24.9769 23.3065 25.1436 23.2607Z" fill="white"/>
<path fill-rule="evenodd" clip-rule="evenodd" d="M25.6702 20.5018C25.6702 22.9075 27.2205 23.4792 28.5413 23.4792C29.7604 23.4792 30.2969 23.2 30.2969 23.2L30.5897 21.5581C30.5897 21.5581 29.6623 21.9766 28.8247 21.9766C27.0401 21.9766 27.3526 20.6137 27.3526 20.6137H30.7303C30.7303 20.6137 30.9484 19.5106 30.9484 19.0611C30.9484 17.9395 30.4033 16.5728 28.5785 16.5728C26.9073 16.5731 25.6702 18.4175 25.6702 20.5018C25.6702 20.5018 25.6702 18.4175 25.6702 20.5018ZM28.5848 18.0974C29.5227 18.0974 29.3497 19.177 29.3497 19.2643H27.5045C27.5045 19.1528 27.6789 18.0974 28.5848 18.0974C28.5848 18.0974 27.6789 18.0974 28.5848 18.0974Z" fill="white"/>
<path fill-rule="evenodd" clip-rule="evenodd" d="M39.1095 23.26L39.4069 21.4041C39.4069 21.4041 38.5913 21.8229 38.0316 21.8229C36.8527 21.8229 36.3798 20.9008 36.3798 19.9102C36.3798 17.9005 37.3942 16.7949 38.5235 16.7949C39.3704 16.7949 40.0501 17.282 40.0501 17.282L40.3214 15.4788C40.3214 15.4788 39.3135 15.061 38.4495 15.061C36.5308 15.061 34.6642 16.7659 34.6642 19.9677C34.6642 22.0909 35.6721 23.4931 37.6555 23.4931C38.2163 23.4933 39.1095 23.26 39.1095 23.26Z" fill="white"/>
<path fill-rule="evenodd" clip-rule="evenodd" d="M16.0024 16.5994C14.8627 16.5994 13.9891 16.9745 13.9891 16.9745L13.7479 18.441C13.7479 18.441 14.469 18.1409 15.559 18.1409C16.1779 18.1409 16.6306 18.2122 16.6306 18.7274C16.6306 19.0403 16.5751 19.1558 16.5751 19.1558C16.5751 19.1558 16.0869 19.1139 15.8609 19.1139C14.4235 19.1139 12.9135 19.7422 12.9135 21.6365C12.9135 23.1292 13.9041 23.4717 14.5181 23.4717C15.6907 23.4717 16.1962 22.6923 16.2231 22.69L16.1683 23.3405H17.6318L18.2847 18.6523C18.2847 16.6634 16.5908 16.5994 16.0024 16.5994ZM16.3584 20.4165C16.3901 20.7029 16.1831 22.0453 15.1825 22.0453C14.6663 22.0453 14.532 21.6414 14.532 21.4025C14.532 20.9366 14.7792 20.3772 15.9971 20.3772C16.2804 20.3776 16.3107 20.4086 16.3584 20.4165C16.3584 20.4165 16.3107 20.4086 16.3584 20.4165Z" fill="white"/>
<path fill-rule="evenodd" clip-rule="evenodd" d="M19.8402 23.4373C20.2146 23.4373 22.3547 23.5348 22.3547 21.2729C22.3547 19.1582 20.3737 19.5759 20.3737 18.7264C20.3737 18.3034 20.6966 18.1702 21.2868 18.1702C21.5211 18.1702 22.4226 18.2466 22.4226 18.2466L22.6322 16.7435C22.6322 16.7436 22.0487 16.6097 21.0988 16.6097C19.8693 16.6097 18.6213 17.1125 18.6213 18.8325C18.6213 20.7815 20.7022 20.5859 20.7022 21.4069C20.7022 21.9549 20.1208 21.9995 19.6728 21.9995C18.8975 21.9995 18.1993 21.727 18.1968 21.74L17.9752 23.228C18.0154 23.2406 18.446 23.4373 19.8402 23.4373C19.8402 23.4373 18.446 23.4373 19.8402 23.4373Z" fill="white"/>
<path fill-rule="evenodd" clip-rule="evenodd" d="M52.8766 15.2505L52.5181 17.529C52.5181 17.529 51.8925 16.6439 50.9132 16.6439C49.3903 16.6439 48.121 18.5245 48.121 20.6854C48.121 22.0802 48.798 23.447 50.182 23.447C51.1776 23.447 51.7296 22.736 51.7296 22.736L51.6564 23.3432H53.273L54.5427 15.2478L52.8766 15.2505ZM52.1048 19.6931C52.1048 20.5923 51.6702 21.7933 50.769 21.7933C50.1709 21.7933 49.8906 21.2791 49.8906 20.4719C49.8906 19.1521 50.4694 18.2813 51.1996 18.2813C51.7979 18.2811 52.1048 18.7021 52.1048 19.6931C52.1048 19.6931 52.1048 18.7021 52.1048 19.6931Z" fill="white"/>
<path fill-rule="evenodd" clip-rule="evenodd" d="M7.00324 23.3502L8.01501 17.2385L8.16353 23.3502H9.30866L11.4448 17.2385L10.4985 23.3502H12.2L13.5104 15.244H10.8793L9.24066 20.2177L9.15539 15.244H6.72999L5.40076 23.3502H7.00324Z" fill="white"/>
<path fill-rule="evenodd" clip-rule="evenodd" d="M32.6105 23.3614C33.0943 20.5435 33.184 18.2554 34.3384 18.6743C34.5405 17.5836 34.7355 17.1618 34.9561 16.7002C34.9561 16.7002 34.8527 16.678 34.6356 16.678C33.8913 16.678 33.3399 17.7195 33.3399 17.7195L33.488 16.763H31.9405L30.9037 23.3614H32.6105Z" fill="white"/>
<path fill-rule="evenodd" clip-rule="evenodd" d="M42.9445 16.5994C41.8048 16.5994 40.9311 16.9745 40.9311 16.9745L40.6901 18.441C40.6901 18.441 41.4112 18.1409 42.5012 18.1409C43.1201 18.1409 43.5725 18.2122 43.5725 18.7274C43.5725 19.0403 43.5174 19.1558 43.5174 19.1558C43.5174 19.1558 43.0292 19.1139 42.803 19.1139C41.3658 19.1139 39.8558 19.7422 39.8558 21.6365C39.8558 23.1292 40.8462 23.4717 41.4602 23.4717C42.6328 23.4717 43.1383 22.6923 43.165 22.69L43.1106 23.3405H44.5741L45.2268 18.6523C45.227 16.6634 43.5329 16.5994 42.9445 16.5994ZM43.301 20.4165C43.3328 20.7029 43.1256 22.0453 42.1245 22.0453C41.6084 22.0453 41.4745 21.6414 41.4745 21.4025C41.4745 20.9366 41.7216 20.3772 42.9394 20.3772C43.2226 20.3776 43.2528 20.4086 43.301 20.4165C43.301 20.4165 43.2528 20.4086 43.301 20.4165Z" fill="white"/>
<path fill-rule="evenodd" clip-rule="evenodd" d="M46.5644 23.3614C47.0483 20.5435 47.138 18.2554 48.2921 18.6743C48.4946 17.5836 48.6898 17.1618 48.9102 16.7002C48.9102 16.7002 48.8067 16.678 48.5897 16.678C47.8454 16.678 47.2939 17.7195 47.2939 17.7195L47.4421 16.763H45.8946L44.8578 23.3614H46.5644Z" fill="white"/>
</svg>
