<svg width="60" height="38" viewBox="0 0 60 38" fill="none" xmlns="http://www.w3.org/2000/svg">
<path d="M60 3.42004H0V33.82H60V3.42004Z" fill="#F6F6F6"/>
<path fill-rule="evenodd" clip-rule="evenodd" d="M55.5 3.84357e-07C52.5 6.71249e-07 20.7378 -6.0921e-07 3 3.84357e-07C1.5 4.68379e-07 0 1.52 0 3.04V7.6H60C60 7.6 60 14.6573 60 4.56C60 1.52 58.5 3.84357e-07 55.5 3.84357e-07Z" fill="#265697"/>
<path fill-rule="evenodd" clip-rule="evenodd" d="M0 30.4C0 30.4 3.6239e-07 30.4 0 33.44C-1.73565e-07 36.48 1.5 38 4.5 38C21.2337 38 52.5 38 55.5 38C58.5 38 60 36.48 60 33.44V30.4H0Z" fill="#D97B16"/>
<path fill-rule="evenodd" clip-rule="evenodd" d="M41.8555 11.3172C41.0145 10.9906 39.6969 10.64 38.0514 10.64C33.8574 10.64 30.9032 12.827 30.8779 15.9611C30.8543 18.2779 32.987 19.5703 34.597 20.3417C36.2492 21.1319 36.8046 21.636 36.7966 22.3417C36.7862 23.4225 35.4773 23.9163 34.2574 23.9163C32.5585 23.9163 31.656 23.6719 30.262 23.0699L29.7151 22.8137L29.1194 26.4231C30.1106 26.8732 31.9439 27.2632 33.8474 27.2833C38.309 27.2833 41.2054 25.1215 41.2383 21.7746C41.2543 19.9404 40.1234 18.5445 37.6748 17.3938C36.1912 16.6479 35.2826 16.1502 35.2922 15.3949C35.2922 14.7247 36.0613 14.0081 37.7229 14.0081C39.1109 13.9857 40.1163 14.2991 40.8997 14.6258L41.28 14.8119L41.8555 11.3172Z" fill="#265697"/>
<path fill-rule="evenodd" clip-rule="evenodd" d="M52.7394 10.9355H49.4597C48.4437 10.9355 47.6834 11.2227 47.2372 12.2727L40.9335 27.0491H45.3905C45.3905 27.0491 46.1193 25.0623 46.2841 24.6261C46.7711 24.6261 51.1009 24.633 51.7199 24.633C51.8469 25.1975 52.2363 27.0491 52.2363 27.0491H56.1748L52.7394 10.9355ZM47.5056 21.3281C47.8566 20.3991 49.1966 16.8208 49.1966 16.8208C49.1716 16.8637 49.545 15.8873 49.7594 15.2819L50.0463 16.6721C50.0463 16.6721 50.859 20.5209 51.0289 21.328L47.5056 21.3281Z" fill="#265697"/>
<path fill-rule="evenodd" clip-rule="evenodd" d="M22.2187 27.044L24.8724 10.9202H29.1169L26.4613 27.044H22.2187Z" fill="#265697"/>
<path fill-rule="evenodd" clip-rule="evenodd" d="M18.6588 10.932L14.5034 21.9273L14.0606 19.6928C13.287 17.117 10.8768 14.3262 8.18228 12.9291L11.9819 27.0302L16.4727 27.0249L23.1548 10.932H18.6588Z" fill="#265697"/>
<path fill-rule="evenodd" clip-rule="evenodd" d="M10.6483 10.922H3.80417L3.75 11.2575C9.07469 12.5921 12.598 15.8174 14.0605 19.6927L12.5723 12.2832C12.3154 11.2622 11.5702 10.9576 10.6483 10.922Z" fill="#D97B16"/>
</svg>
