<?xml version="1.0" encoding="utf-8"?><svg xmlns="http://www.w3.org/2000/svg" xmlns:xlink="http://www.w3.org/1999/xlink"><symbol viewBox="0 0 15 16" id="account" xmlns="http://www.w3.org/2000/svg"><path d="M7.162 8.308a4.165 4.165 0 004.154-4.154A4.165 4.165 0 007.162 0a4.165 4.165 0 00-4.154 4.154 4.165 4.165 0 004.154 4.154zm7.129 3.32a3.873 3.873 0 00-.417-.762c-.834-1.233-2.122-2.05-3.574-2.25a.765.765 0 00-.526.128 4.37 4.37 0 01-2.612.852 4.37 4.37 0 01-2.612-.852.68.68 0 00-.526-.127 5.126 5.126 0 00-3.574 2.25 4.466 4.466 0 00-.417.761.386.386 0 00.018.345c.145.254.327.508.49.725.254.345.526.653.834.944.254.254.544.49.835.725A8.219 8.219 0 007.144 16a8.219 8.219 0 004.934-1.633c.29-.217.58-.471.835-.725a8.364 8.364 0 001.324-1.67c.09-.108.109-.235.054-.344z"/></symbol><symbol viewBox="0 0 10 6" id="arrow-down" xmlns="http://www.w3.org/2000/svg"><path d="M4.505 5.645l-4.3-4.3a.7.7 0 11.99-.99L5 4.16 8.805.355a.7.7 0 01.99.99l-4.3 4.3a.698.698 0 01-.99 0z"/></symbol><symbol viewBox="0 0 18 32" id="arrow-next" xmlns="http://www.w3.org/2000/svg"><path d="M2.648 30.97c-.21.211-.474.317-.764.317a1.082 1.082 0 01-.764-1.845L14.56 16 1.12 2.558A1.082 1.082 0 012.65 1.03l14.205 14.207a1.082 1.082 0 010 1.528L2.648 30.971z"/></symbol><symbol viewBox="0 0 18 32" id="arrow-prev" xmlns="http://www.w3.org/2000/svg"><path d="M15.352 1.03c.21-.211.474-.317.764-.317a1.082 1.082 0 01.764 1.845L3.44 16l13.44 13.442a1.082 1.082 0 01-1.53 1.529L1.147 16.764a1.082 1.082 0 010-1.528L15.352 1.029z"/></symbol><symbol viewBox="0 0 38 38" id="attention" xmlns="http://www.w3.org/2000/svg"><path fill-rule="evenodd" clip-rule="evenodd" d="M19 .667a18.281 18.281 0 0112.964 5.37A18.282 18.282 0 0137.334 19a18.28 18.28 0 01-5.37 12.963A18.282 18.282 0 0119 37.334a18.28 18.28 0 01-12.964-5.37A18.281 18.281 0 01.666 19a18.282 18.282 0 015.37-12.964A18.282 18.282 0 0119 .666zm0 35L19.002 34a14.949 14.949 0 0010.603-4.392l.003-.003A14.947 14.947 0 0034 19.002v-.004a14.946 14.946 0 00-4.392-10.603l-.003-.003A14.947 14.947 0 0019.002 4h-.004A14.948 14.948 0 008.395 8.392l-.003.003A14.948 14.948 0 004 18.998v.004a14.948 14.948 0 004.392 10.603l.003.003A14.947 14.947 0 0018.998 34L19 35.667z"/><path fill-rule="evenodd" clip-rule="evenodd" d="M19 29.833a2.083 2.083 0 100-4.166 2.083 2.083 0 000 4.166zm0-22.5c.92 0 1.667.746 1.667 1.667v13.333a1.667 1.667 0 01-3.334 0V9c0-.92.746-1.667 1.667-1.667z"/></symbol><symbol viewBox="0 0 22 24" id="bonus" xmlns="http://www.w3.org/2000/svg"><path d="M8.25.75a3.74 3.74 0 012.813 1.27 3.75 3.75 0 016.06 4.355H19.5a1.875 1.875 0 011.875 1.875V12a1.875 1.875 0 01-1.875 1.875V19.5a3.75 3.75 0 01-3.75 3.75H6.375a3.75 3.75 0 01-3.75-3.75v-5.625A1.875 1.875 0 01.75 12V8.25a1.875 1.875 0 011.875-1.875h2.378A3.75 3.75 0 018.25.75zM6.375 4.5A1.875 1.875 0 008.25 6.375h1.875V4.5a1.875 1.875 0 10-3.75 0zM12 8.25V12h7.5V8.25H12zm-1.875 0h-7.5V12h7.5V8.25zM4.5 13.875V19.5a1.875 1.875 0 001.875 1.875h3.75v-7.5H4.5zm7.5 7.5h3.75a1.875 1.875 0 001.875-1.875v-5.625H12v7.5zM15.75 4.5a1.875 1.875 0 10-3.75 0v1.875h1.875A1.875 1.875 0 0015.75 4.5z"/></symbol><symbol viewBox="0 0 36 36" id="cart" xmlns="http://www.w3.org/2000/svg"><path d="M11.484 28.002a3.758 3.758 0 100 7.516 3.758 3.758 0 000-7.517zm0 5.846a2.088 2.088 0 110-4.176 2.088 2.088 0 010 4.176zm15.869-5.846a3.758 3.758 0 100 7.516 3.758 3.758 0 000-7.517zm0 5.846a2.088 2.088 0 110-4.176 2.088 2.088 0 010 4.176zm8.477-27.77a1.044 1.044 0 00-.668-.334L7.976 5.368 7.224 3.07A3.842 3.842 0 003.634.48h-2.8a.835.835 0 100 1.671h2.798c.908.02 1.708.603 2.005 1.462l5.303 15.994-.418.96a4.01 4.01 0 00.376 3.633 3.884 3.884 0 003.132 1.754h16.245a.835.835 0 100-1.67H14.03a2.13 2.13 0 01-1.754-1.002 2.297 2.297 0 01-.208-2.005l.334-.752 17.58-1.837a4.594 4.594 0 003.968-3.508l2.004-8.393a.71.71 0 00-.125-.71zm-3.508 8.727a2.84 2.84 0 01-2.547 2.214l-17.372 1.795L8.519 7.038l25.599.376-1.796 7.392z"/></symbol><symbol viewBox="0 0 16 14" id="catalog-list" xmlns="http://www.w3.org/2000/svg"><path d="M4.667 1.167H15.5v1.666H4.667V1.167zM.5.75H3v2.5H.5V.75zm0 5H3v2.5H.5v-2.5zm0 5H3v2.5H.5v-2.5zm4.167-4.583H15.5v1.666H4.667V6.167zm0 5H15.5v1.666H4.667v-1.666z"/></symbol><symbol viewBox="0 0 13 14" id="catalog-tiles" xmlns="http://www.w3.org/2000/svg"><path fill-rule="evenodd" clip-rule="evenodd" d="M9.667 10.333h3.166v3.334H9.667v-3.334zm-4.75 0h3.166v3.334H4.917v-3.334zm-4.75 0h3.166v3.334H.167v-3.334zm9.5-5h3.166v3.334H9.667V5.333zm-4.75 0h3.166v3.334H4.917V5.333zm-4.75 0h3.166v3.334H.167V5.333zm9.5-5h3.166v3.334H9.667V.333zm-4.75 0h3.166v3.334H4.917V.333zm-4.75 0h3.166v3.334H.167V.333z"/></symbol><symbol viewBox="0 0 16 14" id="catatalog-list" xmlns="http://www.w3.org/2000/svg"><path d="M4.667 1.167H15.5v1.666H4.667V1.167zM.5.75H3v2.5H.5V.75zm0 5H3v2.5H.5v-2.5zm0 5H3v2.5H.5v-2.5zm4.167-4.583H15.5v1.666H4.667V6.167zm0 5H15.5v1.666H4.667v-1.666z"/></symbol><symbol viewBox="0 0 12 10" id="check" xmlns="http://www.w3.org/2000/svg"><path d="M4.317 9.317a.948.948 0 01-.673-.278L.28 5.673a.952.952 0 111.346-1.346l2.692 2.692L10.375.962a.952.952 0 111.346 1.346l-6.73 6.73a.95.95 0 01-.674.28z"/></symbol><symbol viewBox="0 0 17 17" id="close" xmlns="http://www.w3.org/2000/svg"><path d="M10.057 8.514l6.62-6.62A1.1 1.1 0 1015.12.337L8.5 6.957 1.88.337A1.1 1.1 0 10.323 1.894l6.62 6.62-6.62 6.62a1.1 1.1 0 00.779 1.88c.282 0 .564-.108.778-.323l6.62-6.62 6.62 6.62a1.098 1.098 0 001.557 0 1.1 1.1 0 000-1.557l-6.62-6.62z"/></symbol><symbol viewBox="0 0 22 22" id="counter-minus" xmlns="http://www.w3.org/2000/svg"><path d="M11 0C4.935 0 0 4.934 0 11s4.935 11 11 11c6.066 0 11-4.934 11-11S17.065 0 11 0zm0 20.296c-5.126 0-9.296-4.17-9.296-9.296 0-5.126 4.17-9.296 9.296-9.296 5.126 0 9.296 4.17 9.296 9.296 0 5.126-4.17 9.296-9.296 9.296z"/><path d="M15.26 10.071H6.74a.852.852 0 000 1.704h8.52a.852.852 0 000-1.704z"/></symbol><symbol viewBox="0 0 22 22" id="counter-plus" xmlns="http://www.w3.org/2000/svg"><path d="M11 0C4.934 0 0 4.934 0 11s4.934 11 11 11 11-4.935 11-11S17.066 0 11 0zm0 20.296c-5.125 0-9.296-4.17-9.296-9.296 0-5.126 4.17-9.296 9.296-9.296 5.125 0 9.296 4.17 9.296 9.296 0 5.126-4.17 9.296-9.296 9.296z"/><path d="M15.26 10.071h-3.408V6.663a.852.852 0 10-1.704 0v3.408H6.74a.852.852 0 100 1.704h3.408v3.409a.852.852 0 101.704 0v-3.409h3.408a.852.852 0 100-1.704z"/></symbol><symbol viewBox="0 0 34 34" id="discount" xmlns="http://www.w3.org/2000/svg"><g clip-path="url(#aoclip0_101_2938)"><path d="M31.74 17.44a.996.996 0 010-.88l1.267-2.594a2.952 2.952 0 00-1.273-3.92l-2.55-1.353a.996.996 0 01-.519-.713l-.498-2.844a2.952 2.952 0 00-3.335-2.422l-2.858.404a.996.996 0 01-.838-.272L19.06.838a2.951 2.951 0 00-4.121 0l-2.076 2.008a.997.997 0 01-.837.272l-2.86-.404a2.951 2.951 0 00-3.334 2.422L5.335 7.98a.997.997 0 01-.518.713l-2.55 1.353a2.952 2.952 0 00-1.274 3.92L2.26 16.56c.137.28.137.6 0 .88L.993 20.035a2.952 2.952 0 001.273 3.92l2.551 1.352a.997.997 0 01.518.713l.498 2.844a2.95 2.95 0 003.335 2.422l2.859-.404a.996.996 0 01.837.272l2.075 2.008a2.954 2.954 0 004.122 0l2.075-2.008a.998.998 0 01.838-.272l2.858.404a2.951 2.951 0 003.335-2.422l.498-2.844a.997.997 0 01.518-.713l2.55-1.353a2.952 2.952 0 001.274-3.92L31.74 17.44zM13.077 8.176a3.6 3.6 0 013.595 3.595 3.6 3.6 0 01-3.595 3.595 3.6 3.6 0 01-3.595-3.595 3.6 3.6 0 013.595-3.595zm-1.856 15.988a.978.978 0 01-1.386 0 .98.98 0 010-1.386L22.778 9.836a.98.98 0 111.386 1.386L11.222 24.164zm9.7 1.66a3.6 3.6 0 01-3.595-3.595 3.6 3.6 0 013.595-3.595 3.6 3.6 0 013.595 3.595 3.6 3.6 0 01-3.595 3.596z"/><path d="M20.922 20.595c-.901 0-1.634.733-1.634 1.634 0 .901.733 1.634 1.634 1.634.901 0 1.634-.733 1.634-1.634 0-.9-.733-1.634-1.634-1.634zm-7.844-10.458c-.901 0-1.634.733-1.634 1.634 0 .9.733 1.634 1.634 1.634.901 0 1.634-.733 1.634-1.634 0-.901-.733-1.634-1.634-1.634z"/></g><defs><clipPath id="aoclip0_101_2938"><path d="M0 0h34v34H0z"/></clipPath></defs></symbol><symbol viewBox="0 0 22 22" id="dots-burger" xmlns="http://www.w3.org/2000/svg"><path d="M2.833 5.167a2.333 2.333 0 100-4.667 2.333 2.333 0 000 4.667zm8.167 0A2.333 2.333 0 1011 .5a2.333 2.333 0 000 4.667zm8.167 0a2.333 2.333 0 100-4.667 2.333 2.333 0 000 4.667zM2.833 13.333a2.333 2.333 0 100-4.666 2.333 2.333 0 000 4.666zm8.167 0a2.333 2.333 0 100-4.666 2.333 2.333 0 000 4.666zm8.167 0a2.333 2.333 0 100-4.666 2.333 2.333 0 000 4.666zM2.833 21.5a2.333 2.333 0 100-4.667 2.333 2.333 0 000 4.667zm8.167 0a2.333 2.333 0 100-4.667 2.333 2.333 0 000 4.667zm8.167 0a2.333 2.333 0 100-4.667 2.333 2.333 0 000 4.667z"/></symbol><symbol viewBox="0 0 24 24" id="gift" xmlns="http://www.w3.org/2000/svg"><g clip-path="url(#aqclip0_101_687)"><path d="M1.714 15.429h20.572V24H1.714v-8.571zm17.121-8.572a4.244 4.244 0 00.88-2.571A4.29 4.29 0 0015.427 0 4.27 4.27 0 0012 1.74 4.27 4.27 0 008.571 0a4.29 4.29 0 00-4.285 4.286c0 .968.335 1.853.879 2.571H0v6.857h24V6.857h-5.165zM15.43 1.714A2.574 2.574 0 0118 4.286a2.574 2.574 0 01-2.571 2.571h-2.572V4.286a2.574 2.574 0 012.572-2.572zM6 4.286a2.574 2.574 0 012.571-2.572 2.574 2.574 0 012.572 2.572v2.571H8.57A2.574 2.574 0 016 4.286z"/></g><defs><clipPath id="aqclip0_101_687"><path d="M0 0h24v24H0z"/></clipPath></defs></symbol><symbol viewBox="0 0 36 30" id="heart-empty" xmlns="http://www.w3.org/2000/svg"><path d="M25.792.098A10.116 10.116 0 0018 3.698a9.98 9.98 0 00-7.793-3.6C4.57.098 0 4.668 0 10.306c0 9.66 16.86 19.094 17.544 19.458a.82.82 0 00.912 0C19.139 29.4 36 20.104 36 10.306 36 4.668 31.43.098 25.792.098zM18 27.941c-2.643-1.549-16.177-9.797-16.177-17.635a8.385 8.385 0 018.385-8.385 8.202 8.202 0 017.017 3.782.957.957 0 001.55 0 8.385 8.385 0 0115.402 4.603c0 7.929-13.534 16.132-16.177 17.635z"/></symbol><symbol viewBox="0 0 26 23" id="heart-full" xmlns="http://www.w3.org/2000/svg"><path d="M18.628.999A7.243 7.243 0 0013 3.656 7.145 7.145 0 007.372 1C3.301.999 0 4.372 0 8.534c0 7.13 12.177 14.093 12.67 14.362.2.136.46.136.66 0C13.822 22.628 26 15.767 26 8.534 26 4.372 22.7.999 18.628.999z"/></symbol><symbol viewBox="0 0 24 24" id="heart-lk" xmlns="http://www.w3.org/2000/svg"><path d="M17.75 1C15.088 1 12.89 3.473 12 4.64 11.11 3.473 8.912 1 6.25 1 2.804 1 0 4.168 0 8.063c0 2.124.843 4.104 2.32 5.459a.493.493 0 00.078.102l9.249 9.23a.499.499 0 00.707 0L21.91 13.3l.099-.095c.078-.074.155-.149.241-.245a.489.489 0 00.09-.119C23.41 11.53 24 9.836 24 8.063 24 4.168 21.196 1 17.75 1z"/></symbol><symbol viewBox="0 0 26 26" id="history" xmlns="http://www.w3.org/2000/svg"><g clip-path="url(#auclip0_101_668)"><path d="M14.625 1.625c-5.72 0-10.452 4.247-11.245 9.75H0l4.875 4.875 4.875-4.875H6.664c.755-3.704 4.038-6.5 7.961-6.5 4.48 0 8.125 3.645 8.125 8.125s-3.645 8.125-8.125 8.125a8.155 8.155 0 01-6.598-3.382l-2.638 1.898a11.41 11.41 0 009.236 4.734C20.897 24.375 26 19.271 26 13S20.897 1.625 14.625 1.625z"/><path d="M13 8.125v6.608l4.851 2.91 1.673-2.786-3.274-1.965V8.125H13z"/></g><defs><clipPath id="auclip0_101_668"><path d="M0 0h26v26H0z"/></clipPath></defs></symbol><symbol viewBox="0 0 24 24" id="information" xmlns="http://www.w3.org/2000/svg"><path d="M12 0C5.383 0 0 5.383 0 12s5.383 12 12 12 12-5.383 12-12S18.617 0 12 0zm-.5 20c-.827 0-1.5-.673-1.5-1.5s.673-1.5 1.5-1.5 1.5.673 1.5 1.5-.673 1.5-1.5 1.5zm1.5-6.1v1.6a.5.5 0 01-.5.5h-2a.5.5 0 01-.5-.5V13c0-1.102.898-2 2-2 1.102 0 2-.898 2-2 0-1.103-.898-2-2-2-1.102 0-2 .897-2 2v.5a.5.5 0 01-.5.5h-2a.5.5 0 01-.5-.5V9c0-2.757 2.243-5 5-5s5 2.243 5 5c0 2.4-1.69 4.433-4 4.9z"/></symbol><symbol viewBox="0 0 34 24" id="joystick" xmlns="http://www.w3.org/2000/svg"><path d="M30.96 4.722c-4.49-7.378-11.256-2.245-11.256-2.245-.439.332-1.248.604-1.797.605l-1.812.002c-.55 0-1.36-.272-1.797-.604 0 0-6.766-5.134-11.257 2.244C-1.45 12.1.36 20.132.36 20.132c.316 1.967 1.361 3.28 3.333 3.114 1.966-.164 6.234-5.296 6.234-5.296.352-.423 1.09-.769 1.64-.769l10.862-.002c.55 0 1.288.346 1.64.769 0 0 4.268 5.132 6.237 5.296 1.97.165 3.017-1.148 3.332-3.114-.001 0 1.812-8.031-2.68-15.408zm-18.043 6.005h-2.329v2.246s-.493.376-1.256.367c-.763-.012-1.107-.411-1.107-.411v-2.2h-2.2s-.275-.282-.349-1.024a2.346 2.346 0 01.304-1.34h2.33v-2.33s.48-.255 1.17-.235a3.08 3.08 0 011.195.28l-.01 2.285h2.2s.384.494.416 1.09c.032.596-.362 1.273-.362 1.273zm10.685 2.56a1.841 1.841 0 01-1.842-1.844 1.844 1.844 0 111.843 1.844zm0-5.073A1.84 1.84 0 0121.76 6.37a1.844 1.844 0 111.843 1.843zm4.592 2.723a1.84 1.84 0 01-1.843-1.844 1.84 1.84 0 011.843-1.844 1.845 1.845 0 010 3.688z"/></symbol><symbol viewBox="0 0 14 14" id="key" xmlns="http://www.w3.org/2000/svg"><path d="M13.848 4.415A4.412 4.412 0 006.31 1.293a4.405 4.405 0 00-1.292 3.122c0 .745.187 1.475.544 2.125L.276 11.821a.433.433 0 00-.086.484c.015.037.04.07.069.099l1.184 1.184a.336.336 0 00.099.068.43.43 0 00.483-.085l.732-.732 1.053 1.053a.338.338 0 00.1.069.43.43 0 00.483-.085l1.167-1.167a.339.339 0 00.069-.1.43.43 0 00-.086-.483l-1.036-1.037 2.8-2.8c.647.356 1.38.543 2.124.543a4.412 4.412 0 004.417-4.417zm-2.868 1.55a2.177 2.177 0 01-1.549.64 2.177 2.177 0 01-1.549-.64 2.179 2.179 0 01-.643-1.55c0-.586.228-1.135.642-1.548a2.177 2.177 0 011.549-.642c.584 0 1.135.228 1.548.642.414.413.642.964.642 1.548a2.155 2.155 0 01-.64 1.55z"/></symbol><symbol viewBox="0 0 38 38" id="live-chat" xmlns="http://www.w3.org/2000/svg"><g clip-path="url(#ayclip0_101_2913)"><path d="M34.66 11.211h-2.332c-1.983-4.709-6.35-8.131-11.379-8.785A14.436 14.436 0 007.87 7.54a14.596 14.596 0 00-2.236 3.671H3.34A3.343 3.343 0 000 14.551v4.453a3.344 3.344 0 003.34 3.34h4.572l-.479-1.46c-1.392-4.253-.608-8.598 2.15-11.922 2.71-3.267 6.85-4.884 11.077-4.33 4.472.583 8.353 3.746 9.89 8.06l.01.024a9.64 9.64 0 01.522 2.033c.334 2.082.143 4.192-.55 6.103l-.004.013c-1.719 4.88-6.342 8.159-11.506 8.159-1.854 0-3.362 1.498-3.362 3.34a3.343 3.343 0 003.34 3.34 3.343 3.343 0 003.34-3.34v-1.502c4.445-1.056 8.179-4.207 9.974-8.518h2.346a3.344 3.344 0 003.34-3.34v-4.453a3.343 3.343 0 00-3.34-3.34z"/><path d="M8.98 24.57v2.227H19c5.525 0 10.02-4.494 10.02-10.02 0-5.524-4.495-10.019-10.02-10.019-5.525 0-10.02 4.495-10.02 10.02 0 2.253.757 4.43 2.14 6.19a2.214 2.214 0 01-2.14 1.603zm13.36-8.905h2.226v2.226H22.34v-2.226zm-4.453 0h2.226v2.226h-2.226v-2.226zm-4.453 0h2.226v2.226h-2.226v-2.226z"/></g><defs><clipPath id="ayclip0_101_2913"><path d="M0 0h38v38H0z"/></clipPath></defs></symbol><symbol viewBox="0 0 24 18" id="lk-eye" xmlns="http://www.w3.org/2000/svg"><path d="M12 0C6.455 0 1.75 3.76 0 9c1.75 5.24 6.455 9 12 9s10.25-3.76 12-9c-1.75-5.24-6.455-9-12-9zm0 15a6 6 0 110-12 6 6 0 010 12z"/><path d="M14.121 6.879A3 3 0 119.88 11.12a3 3 0 014.24-4.24z"/></symbol><symbol viewBox="0 0 22 22" id="lk-key" xmlns="http://www.w3.org/2000/svg"><path d="M14.667 0c-4.044 0-7.334 3.29-7.334 7.333 0 .482.053.976.156 1.472l-.819.41a.459.459 0 00-.12.734l.594.593-.459.458h-.727a.458.458 0 00-.458.458v.727l-.648.648h-.727a.458.458 0 00-.458.459v.727l-.648.648h-.727a.458.458 0 00-.459.458v.727L.134 17.55a.458.458 0 00-.134.324v3.667c0 .253.205.458.458.458h3.667a.458.458 0 00.324-.134l7.01-7.01.592.593a.459.459 0 00.734-.12l.41-.818C17.858 15.483 22 11.859 22 7.333 22 3.29 18.71 0 14.667 0zM9.949 12.7l-6.417 6.416a.457.457 0 01-.648 0 .458.458 0 010-.648l6.417-6.417a.458.458 0 11.648.648zm7.01-5.367a2.294 2.294 0 01-2.292-2.291 2.294 2.294 0 012.291-2.292 2.294 2.294 0 012.292 2.292 2.294 2.294 0 01-2.292 2.291z"/></symbol><symbol viewBox="0 0 22 22" id="lk-key_" xmlns="http://www.w3.org/2000/svg"><path d="M14.667 0c-4.044 0-7.334 3.29-7.334 7.333 0 .482.053.976.156 1.472l-.819.41a.459.459 0 00-.12.734l.594.593-.459.458h-.727a.458.458 0 00-.458.458v.727l-.648.648h-.727a.458.458 0 00-.458.459v.727l-.648.648h-.727a.458.458 0 00-.459.458v.727L.134 17.55a.458.458 0 00-.134.324v3.667c0 .253.205.458.458.458h3.667a.458.458 0 00.324-.134l7.01-7.01.592.593a.459.459 0 00.734-.12l.41-.818C17.858 15.483 22 11.859 22 7.333 22 3.29 18.71 0 14.667 0zM9.949 12.7l-6.417 6.416a.457.457 0 01-.648 0 .458.458 0 010-.648l6.417-6.417a.458.458 0 11.648.648zm7.01-5.367a2.294 2.294 0 01-2.292-2.291 2.294 2.294 0 012.291-2.292 2.294 2.294 0 012.292 2.292 2.294 2.294 0 01-2.292 2.291z"/></symbol><symbol viewBox="0 0 24 18" id="lk-subscribe" xmlns="http://www.w3.org/2000/svg"><path d="M22.5 0h-21A1.5 1.5 0 000 1.5v15A1.5 1.5 0 001.5 18h21a1.5 1.5 0 001.5-1.5v-15A1.5 1.5 0 0022.5 0zM12 10.496L3 6.73V3.476l9 3.747 9-3.747V6.73l-9 3.766z"/></symbol><symbol viewBox="0 0 30 30" id="lk-wallet" xmlns="http://www.w3.org/2000/svg"><path d="M17.778 3.926a.469.469 0 01.66-.075l1.013.812-3.702 4.712h2.385l2.783-3.54 2.347 1.88a.47.47 0 01.062.673l-.851.987h2.45a2.344 2.344 0 00-.49-3.123l-4.824-3.864a2.343 2.343 0 00-3.302.374L11.07 9.375h2.392l4.315-5.449zm1.91 13.886a.938.938 0 000 1.875H22.5a.938.938 0 000-1.875h-2.813zM5.624 6.563a2.812 2.812 0 00-2.813 2.813V22.97a4.219 4.219 0 004.22 4.218h15.937a4.22 4.22 0 004.218-4.218v-8.44a4.219 4.219 0 00-4.218-4.219H5.625a.938.938 0 010-1.874h4.294l1.496-1.875h-5.79zM4.687 22.97V12.03c.294.102.61.159.938.159h17.344a2.343 2.343 0 012.343 2.343v8.438a2.343 2.343 0 01-2.343 2.343H7.03a2.344 2.344 0 01-2.343-2.343z"/></symbol><symbol viewBox="0 0 12 16" id="location" xmlns="http://www.w3.org/2000/svg"><path d="M6 0C2.692 0 0 2.71 0 6.043c0 4.736 5.436 9.625 5.667 9.83a.5.5 0 00.666.001C6.564 15.668 12 10.779 12 6.044 12 2.71 9.308 0 6 0zm0 9.333A3.337 3.337 0 012.667 6 3.337 3.337 0 016 2.667 3.337 3.337 0 019.333 6 3.337 3.337 0 016 9.333z"/></symbol><symbol viewBox="0 0 28 28" id="location-empty" xmlns="http://www.w3.org/2000/svg"><path d="M14 .875A9.625 9.625 0 004.375 10.5c0 5.084 8.575 15.837 8.943 16.301a.876.876 0 001.364 0c.368-.463 8.943-11.217 8.943-16.301A9.625 9.625 0 0014 .875zm0 23.957c-2.704-3.5-7.875-10.937-7.875-14.332a7.875 7.875 0 1115.75 0c0 3.395-5.171 10.815-7.875 14.332z"/><path d="M14 4.375a5.25 5.25 0 100 10.5 5.25 5.25 0 000-10.5zm0 8.75a3.5 3.5 0 110-7 3.5 3.5 0 010 7z"/></symbol><symbol viewBox="0 0 38 38" id="lorry" xmlns="http://www.w3.org/2000/svg"><path d="M23.799 5.974H3.17c-.608 0-1.085.478-1.085 1.086v13.029a1.08 1.08 0 001.085 1.085H23.8c.597 0 1.086-.488 1.086-1.085V7.06c0-.608-.489-1.086-1.086-1.086zM2.074 26.603c0 .597.488 1.085 1.085 1.085h1.173c.456-2.269 2.323-4.05 4.647-4.342H3.17c-.39 0-.749-.066-1.096-.196v3.453z"/><path d="M33.494 27.689h1.347a1.09 1.09 0 001.085-1.086v-9.511c0-1.705-4.158-5.69-6.438-5.69h-2.432v8.687a3.267 3.267 0 01-3.257 3.257H10.39c2.324.293 4.191 2.073 4.647 4.343h7.752c.5-2.498 2.704-4.398 5.353-4.398 2.638 0 4.853 1.9 5.352 4.398zm-4.657-13.615c5.558-.272 5.33 5.472 5.33 5.472h-5.33v-5.472z"/><path d="M28.137 32.025a3.279 3.279 0 100-6.557 3.279 3.279 0 000 6.557zm-18.457 0a3.279 3.279 0 100-6.557 3.279 3.279 0 000 6.557z"/></symbol><symbol viewBox="0 0 28 20" id="message" xmlns="http://www.w3.org/2000/svg"><path d="M25.54.156H2.46A2.464 2.464 0 000 2.617v14.766a2.464 2.464 0 002.46 2.46h23.08a2.464 2.464 0 002.46-2.46V2.617c0-1.36-1.107-2.46-2.46-2.46zm-.379 1.64l-10.525 10.56c-.321.322-.95.323-1.272 0L2.84 1.797h22.32zM1.641 17.082V2.92L8.699 10 1.64 17.081zm1.198 1.122l7.018-7.041 2.345 2.353c.961.964 2.635.964 3.596 0l2.345-2.353 7.018 7.041H2.84zm23.52-1.122L19.301 10l7.058-7.081V17.08z"/></symbol><symbol viewBox="0 0 22 22" id="minus" xmlns="http://www.w3.org/2000/svg"><path d="M11 0C4.935 0 0 4.934 0 11s4.935 11 11 11c6.066 0 11-4.934 11-11S17.065 0 11 0zm0 20.296c-5.126 0-9.296-4.17-9.296-9.296 0-5.126 4.17-9.296 9.296-9.296 5.126 0 9.296 4.17 9.296 9.296 0 5.126-4.17 9.296-9.296 9.296z"/><path d="M15.26 10.071H6.74a.852.852 0 000 1.704h8.52a.852.852 0 000-1.704z"/></symbol><symbol viewBox="0 0 8 12" id="pagination-next" xmlns="http://www.w3.org/2000/svg"><path d="M7.173 6.594l-5.16 5.16a.84.84 0 11-1.189-1.189L5.39 6 .825 1.435A.84.84 0 012.013.246l5.16 5.16a.837.837 0 010 1.188z"/></symbol><symbol viewBox="0 0 12 12" id="pagination-prev" xmlns="http://www.w3.org/2000/svg"><g clip-path="url(#bkclip0_6_446)"><path d="M2.826 5.406l5.16-5.16a.84.84 0 111.188 1.189L4.608 6l4.566 4.565a.84.84 0 01-1.188 1.189l-5.16-5.16a.837.837 0 010-1.188z"/></g><defs><clipPath id="bkclip0_6_446"><path transform="rotate(-180 6 6)" d="M0 0h12v12H0z"/></clipPath></defs></symbol><symbol viewBox="0 0 32 32" id="plane" xmlns="http://www.w3.org/2000/svg"><g clip-path="url(#blclip0_101_2931)"><path d="M7.392 1.85a.938.938 0 00-.919.239L3.6 4.962a.938.938 0 00.23 1.494l8.93 4.66 6.035-6.034L7.392 1.85zm18.152 26.32a.938.938 0 001.494.23l2.873-2.874a.937.937 0 00.239-.918l-3.232-11.403-6.035 6.034 4.66 8.932z"/><path d="M29.141.023a9.141 9.141 0 00-5.216 2.581l-13.9 13.9-6.371-1.763a.938.938 0 00-.913.24L.275 17.447a.937.937 0 00.21 1.484l8.11 4.474 4.474 8.11a.937.937 0 001.484.21l2.466-2.466a.938.938 0 00.24-.913l-1.764-6.37 13.9-13.9a9.14 9.14 0 002.582-5.217 2.503 2.503 0 00-.716-2.12 2.504 2.504 0 00-2.12-.716z"/></g><defs><clipPath id="blclip0_101_2931"><path d="M0 0h32v32H0z"/></clipPath></defs></symbol><symbol viewBox="0 0 11 13" id="play" xmlns="http://www.w3.org/2000/svg"><path d="M.672 12.138a.583.583 0 01-.582-.583V1.342C.09 1.02.35.76.672.76l9.469 5.252s.437.437 0 .875S.672 12.138.672 12.138z"/></symbol><symbol viewBox="0 0 22 22" id="plus" xmlns="http://www.w3.org/2000/svg"><path d="M11 0C4.934 0 0 4.934 0 11s4.934 11 11 11 11-4.935 11-11S17.066 0 11 0zm0 20.296c-5.125 0-9.296-4.17-9.296-9.296 0-5.126 4.17-9.296 9.296-9.296 5.125 0 9.296 4.17 9.296 9.296 0 5.126-4.17 9.296-9.296 9.296z"/><path d="M15.26 10.071h-3.408V6.663a.852.852 0 10-1.704 0v3.408H6.74a.852.852 0 100 1.704h3.408v3.409a.852.852 0 101.704 0v-3.409h3.408a.852.852 0 100-1.704z"/></symbol><symbol viewBox="0 0 18 18" id="search" xmlns="http://www.w3.org/2000/svg"><path d="M17.6 15.642l-3.71-3.71a7.409 7.409 0 001.341-4.316 7.48 7.48 0 00-.6-2.959 7.61 7.61 0 00-1.623-2.434A7.614 7.614 0 0010.574.601 7.47 7.47 0 007.615 0c-1.03 0-2.017.2-2.958.6-.941.4-1.752.94-2.434 1.622A7.613 7.613 0 00.6 4.657 7.49 7.49 0 000 7.616c0 1.03.2 2.017.6 2.958a7.61 7.61 0 001.623 2.434 7.615 7.615 0 002.434 1.623c.941.4 1.927.6 2.958.6a7.408 7.408 0 004.317-1.341l3.71 3.699c.26.274.584.411.974.411.375 0 .7-.137.973-.411a1.33 1.33 0 00.411-.973c0-.382-.133-.707-.4-.974zm-6.56-4.603c-.95.949-2.09 1.423-3.425 1.423-1.334 0-2.475-.474-3.423-1.423-.948-.948-1.423-2.09-1.423-3.423 0-1.334.475-2.476 1.423-3.424.948-.948 2.09-1.423 3.423-1.423 1.335 0 2.476.475 3.424 1.423.949.948 1.423 2.09 1.423 3.424s-.474 2.475-1.423 3.423z"/></symbol><symbol viewBox="0 0 5 5" id="triangle" xmlns="http://www.w3.org/2000/svg"><path d="M0 .502C0 .361.115.246.256.246h4.488C4.885.246 5 .36 5 .502L2.692 4.67s-.192.192-.384 0C2.115 4.476 0 .502 0 .502z"/></symbol><symbol viewBox="0 0 34 34" id="wallet" xmlns="http://www.w3.org/2000/svg"><path d="M10.624 1.063a1.6 1.6 0 00-1.592 1.593v.529h12.22a2.67 2.67 0 012.655 2.66v5.846h2.125V2.656c0-.874-.722-1.593-1.596-1.593H10.624zM7.435 4.247c-.873 0-1.591.723-1.591 1.597v5.847h2.124v-1.625c0-.252.22-.506.548-.506a2.653 2.653 0 002.636-2.568c-.012-.4.237-.617.533-.617H17a.53.53 0 01.53.555 2.644 2.644 0 002.52 2.623c.355 0 .685.18.668.54v1.598h2.127V5.844c0-.874-.718-1.597-1.592-1.597H7.435zM4.252 7.436a3.194 3.194 0 00-3.188 3.189v19.126a3.193 3.193 0 003.188 3.187H29.75c.874 0 1.592-.722 1.592-1.595v-3.718h-7.435c-2.626 0-4.78-2.154-4.78-4.78 0-2.627 2.154-4.78 4.78-4.78h7.435v-3.722a1.6 1.6 0 00-1.592-1.593H4.252a2.11 2.11 0 01-2.126-2.125 2.11 2.11 0 012.126-2.126h.53V7.436h-.53zm22.842 0v1.062h.53c.303 0 .532.23.534.538v2.65h1.063V9.029a1.61 1.61 0 00-1.597-1.592h-.53zm-14.916.004a3.74 3.74 0 01-3.148 3.149v1.103h10.624v-1.104a3.738 3.738 0 01-3.151-3.148h-4.325zm11.73 11.687a3.72 3.72 0 00-3.718 3.718 3.72 3.72 0 003.717 3.718h7.435c.873 0 1.596-.72 1.596-1.593v-4.251c0-.874-.723-1.592-1.596-1.592h-7.435zm0 2.121c.873 0 1.591.723 1.591 1.597s-.718 1.592-1.592 1.592a1.603 1.603 0 01-1.597-1.592c0-.874.724-1.597 1.597-1.597z"/></symbol><symbol viewBox="0 0 50 50" id="сheck-mark" xmlns="http://www.w3.org/2000/svg"><path d="M25 50C11.215 50 0 38.785 0 25S11.215 0 25 0s25 11.215 25 25-11.215 25-25 25zm0-46.875C12.938 3.125 3.125 12.938 3.125 25S12.938 46.875 25 46.875 46.875 37.062 46.875 25 37.062 3.125 25 3.125zm-3.583 30.792l15.625-15.625a1.562 1.562 0 10-2.21-2.21l-14.52 14.521-5.145-5.145a1.562 1.562 0 10-2.21 2.21l6.25 6.25a1.558 1.558 0 002.21 0z"/></symbol></svg>