<svg width="30" height="30" viewBox="0 0 30 30" fill="none" xmlns="http://www.w3.org/2000/svg">
<path d="M15 0C6.72976 0 0 6.72976 0 15C0 23.2702 6.72976 30 15 30C23.2702 30 30 23.2702 30 15C30 6.72976 23.2702 0 15 0ZM15 28.3784C7.62159 28.3784 1.62159 22.3784 1.62159 15C1.62159 7.62159 7.62159 1.62159 15 1.62159C22.3784 1.62159 28.3784 7.62159 28.3784 15C28.3784 22.3784 22.3784 28.3784 15 28.3784Z" fill="#4AB8E6"/>
<path d="M15 7.29721C15.446 7.29721 15.8108 6.93237 15.8108 6.48641V4.05396C15.8108 3.60801 15.446 3.24316 15 3.24316C14.5541 3.24316 14.1892 3.60801 14.1892 4.05396V6.48641C14.1892 6.93237 14.5541 7.29721 15 7.29721Z" fill="#4AB8E6"/>
<path d="M15 22.7026C14.5541 22.7026 14.1892 23.0675 14.1892 23.5134V25.9459C14.1892 26.3918 14.5541 26.7567 15 26.7567C15.446 26.7567 15.8108 26.3918 15.8108 25.9459V23.5134C15.8108 23.0675 15.446 22.7026 15 22.7026V22.7026Z" fill="#4AB8E6"/>
<path d="M22.7028 15C22.7028 15.446 23.0676 15.8108 23.5136 15.8108H25.946C26.392 15.8108 26.7568 15.446 26.7568 15C26.7568 14.5541 26.392 14.1892 25.946 14.1892H23.5136C23.0676 14.1892 22.7028 14.5541 22.7028 15V15Z" fill="#4AB8E6"/>
<path d="M7.29733 15C7.29733 14.5541 6.93249 14.1892 6.48654 14.1892H4.05408C3.60813 14.1892 3.24329 14.5541 3.24329 15C3.24329 15.446 3.60813 15.8108 4.05408 15.8108H6.48654C6.93249 15.8108 7.29733 15.446 7.29733 15Z" fill="#4AB8E6"/>
<path d="M21.0202 9.79056C21.227 9.79056 21.4338 9.70945 21.5918 9.55137L23.3108 7.83242C23.627 7.51619 23.627 7.00132 23.3108 6.68515C22.9946 6.36898 22.4797 6.36891 22.1635 6.68515L20.4446 8.4041C20.1283 8.72033 20.1283 9.2352 20.4446 9.55137C20.6068 9.71352 20.8135 9.79056 21.0202 9.79056V9.79056Z" fill="#4AB8E6"/>
<path d="M8.40803 20.4486L6.68908 22.1676C6.37285 22.4838 6.37285 22.9987 6.68908 23.3148C6.84716 23.4729 7.05393 23.554 7.26069 23.554C7.46745 23.554 7.67421 23.4729 7.83229 23.3148L9.55124 21.5959C9.86747 21.2796 9.86747 20.7648 9.55124 20.4486C9.235 20.1324 8.72426 20.1284 8.40803 20.4486V20.4486Z" fill="#4AB8E6"/>
<path d="M21.592 20.4486C21.2757 20.1324 20.7609 20.1324 20.4447 20.4486C20.1285 20.7648 20.1285 21.2797 20.4447 21.5959L22.1636 23.3148C22.3217 23.4729 22.5285 23.554 22.7353 23.554C22.942 23.554 23.1488 23.4729 23.3069 23.3148C23.6231 22.9986 23.6231 22.4837 23.3069 22.1675L21.592 20.4486Z" fill="#4AB8E6"/>
<path d="M7.83242 6.68517C7.51619 6.36894 7.00132 6.36894 6.68515 6.68517C6.36898 7.00141 6.36891 7.51628 6.68515 7.83245L8.40409 9.5514C8.56218 9.70948 8.76894 9.79059 8.9757 9.79059C9.18246 9.79059 9.38922 9.70948 9.54731 9.5514C9.86354 9.23516 9.86354 8.72029 9.54731 8.40412L7.83242 6.68517Z" fill="#4AB8E6"/>
<path d="M18.4419 10.2122L15.0608 14.1325L12.9688 11.8176C12.6689 11.4852 12.154 11.4608 11.8216 11.7609C11.4892 12.0609 11.4648 12.5757 11.7648 12.9081L13.9946 15.373L13.3743 16.0906C13.0825 16.4311 13.1189 16.942 13.4594 17.2338C13.6134 17.3676 13.8 17.4325 13.9865 17.4325C14.2135 17.4325 14.4406 17.3352 14.6027 17.1527L15.0892 16.5852L15.6163 17.1649C15.7743 17.3433 15.9974 17.4325 16.2162 17.4325C16.4108 17.4325 16.6055 17.3635 16.7595 17.2216C17.0919 16.9216 17.1163 16.4068 16.8162 16.0744L16.1554 15.3446L19.6662 11.2703C19.958 10.9298 19.9216 10.419 19.581 10.1271C19.2445 9.83516 18.7337 9.87572 18.4419 10.2122Z" fill="#4AB8E6"/>
</svg>
