<svg width="35" height="29" viewBox="0 0 35 29" fill="none" xmlns="http://www.w3.org/2000/svg">
<path d="M0.398438 19.2597C0.398438 15.5264 1.33177 11.9331 3.19844 8.47973C5.0651 5.0264 7.4451 2.27306 10.3384 0.219727L14.5384 3.57972C12.2984 5.16639 10.3851 7.17306 8.79844 9.59973C7.21177 12.0264 6.37177 14.3597 6.27844 16.5997C6.4651 16.4131 6.97844 16.3197 7.81844 16.3197C9.4051 16.3197 10.7118 16.9264 11.7384 18.1397C12.8584 19.2597 13.4184 20.6131 13.4184 22.1997C13.4184 23.8797 12.8118 25.3264 11.5984 26.5397C10.4784 27.6597 9.07844 28.2197 7.39844 28.2197C5.43844 28.2197 3.75844 27.4264 2.35844 25.8397C1.05177 24.2531 0.398438 22.0597 0.398438 19.2597ZM20.2784 19.2597C20.2784 15.5264 21.2118 11.9331 23.0784 8.47973C24.9451 5.0264 27.3251 2.27306 30.2184 0.219727L34.4184 3.57972C32.1784 5.16639 30.2651 7.17306 28.6784 9.59973C27.0918 12.0264 26.2518 14.3597 26.1584 16.5997C26.3451 16.4131 26.8584 16.3197 27.6984 16.3197C29.2851 16.3197 30.5918 16.9264 31.6184 18.1397C32.7384 19.2597 33.2984 20.6131 33.2984 22.1997C33.2984 23.8797 32.6918 25.3264 31.4784 26.5397C30.3584 27.6597 28.9584 28.2197 27.2784 28.2197C25.3184 28.2197 23.6384 27.4264 22.2384 25.8397C20.9318 24.2531 20.2784 22.0597 20.2784 19.2597Z" fill="#4AB8E6"/>
</svg>
