<svg width="50" height="50" viewBox="0 0 50 50" fill="none" xmlns="http://www.w3.org/2000/svg">
<g clip-path="url(#clip0_2_148)">
<path d="M24.797 49.5941C38.492 49.5941 49.594 38.4921 49.594 24.7971C49.594 11.1021 38.492 9.91821e-05 24.797 9.91821e-05C11.102 9.91821e-05 0 11.1021 0 24.7971C0 38.4921 11.102 49.5941 24.797 49.5941Z" fill="#334C8C"/>
<path d="M31.081 22.4512L30.6699 25.9032C30.6522 26.0635 30.5757 26.2116 30.4551 26.3188C30.3346 26.4261 30.1787 26.4849 30.0174 26.4839H26.4283V36.729C26.4292 36.8513 26.3817 36.969 26.2961 37.0564C26.2105 37.1438 26.0938 37.1938 25.9715 37.1956H22.314C22.2531 37.1947 22.1931 37.1819 22.1372 37.1578C22.0813 37.1337 22.0307 37.0989 21.9883 37.0553C21.9459 37.0116 21.9124 36.9601 21.89 36.9035C21.8675 36.847 21.8563 36.7866 21.8572 36.7257L21.8768 26.4839H19.1589C18.9858 26.4839 18.8199 26.4152 18.6975 26.2928C18.5751 26.1704 18.5063 26.0044 18.5063 25.8314V22.3794C18.5063 22.2063 18.5751 22.0403 18.6975 21.918C18.8199 21.7956 18.9858 21.7268 19.1589 21.7268H21.8605V18.3792C21.8605 14.5063 24.164 12.3986 27.5377 12.3986H30.3012C30.4743 12.3986 30.6403 12.4673 30.7626 12.5897C30.885 12.7121 30.9538 12.8781 30.9538 13.0511V15.9583C30.9538 16.1313 30.885 16.2973 30.7626 16.4197C30.6403 16.5421 30.4743 16.6108 30.3012 16.6108H28.6078C26.7742 16.6402 26.4283 17.5179 26.4283 18.8295V21.717H30.4448C30.5364 21.7186 30.6267 21.7395 30.7097 21.7782C30.7928 21.817 30.8667 21.8729 30.9267 21.9421C30.9867 22.0114 31.0315 22.0925 31.0581 22.1802C31.0847 22.2679 31.0925 22.3602 31.081 22.4512Z" fill="white"/>
</g>
<defs>
<clipPath id="clip0_2_148">
<rect width="49.594" height="49.594" fill="white"/>
</clipPath>
</defs>
</svg>
