<svg width="51" height="50" viewBox="0 0 51 50" fill="none" xmlns="http://www.w3.org/2000/svg">
<g clip-path="url(#clip0_2_170)">
<path d="M25.6004 9.91821e-05C39.2388 9.91821e-05 50.3974 11.1587 50.3974 24.7971C50.3974 38.4354 39.2388 49.5941 25.6004 49.5941C11.9621 49.5941 0.803467 38.4352 0.803467 24.7971C0.803467 11.1589 11.9621 9.91821e-05 25.6004 9.91821e-05Z" fill="#DD4B39"/>
<path d="M38.1539 20.6124V23.4022H40.9434V26.1919H38.1539V28.9816H35.3642V26.1919H32.5745V23.4022H35.3642V20.6124H38.1539Z" fill="white"/>
<path d="M13.0468 31.7711C9.32729 28.0515 9.32729 21.5423 13.2018 17.8229C15.9915 15.0332 20.0208 14.4134 23.5855 15.8081L24.9802 16.5831L26.5301 17.668L24.0504 20.1477L23.1205 19.5279C20.9509 18.1331 17.8511 18.4429 15.8365 20.4577C13.5118 22.7825 13.3568 26.9669 15.8365 29.4466C18.1613 31.9263 22.3458 31.9263 24.5155 29.4466C25.1353 28.8268 25.7553 27.8968 25.9103 26.9669V26.6569H20.331V23.5574H29.1649L29.3198 24.3323V26.502C29.1649 28.5168 28.3899 30.5316 26.995 31.9263C23.2756 35.4906 16.7664 35.4906 13.0468 31.7711Z" fill="white"/>
</g>
<defs>
<clipPath id="clip0_2_170">
<rect width="49.594" height="49.594" fill="white" transform="translate(0.803467)"/>
</clipPath>
</defs>
</svg>
