<svg width="51" height="50" viewBox="0 0 51 50" fill="none" xmlns="http://www.w3.org/2000/svg">
<g clip-path="url(#clip0_2_163)">
<path d="M25.3995 49.5941C39.0945 49.5941 50.1965 38.4921 50.1965 24.7971C50.1965 11.1021 39.0945 9.91821e-05 25.3995 9.91821e-05C11.7045 9.91821e-05 0.602539 11.1021 0.602539 24.7971C0.602539 38.4921 11.7045 49.5941 25.3995 49.5941Z" fill="#FF6800"/>
<path d="M24.1793 29.8642C22.2575 29.6651 20.525 29.192 19.0404 28.0305C18.8521 27.8924 18.6713 27.7442 18.4988 27.5867C18.218 27.3365 18.0384 26.9922 17.994 26.6187C17.9496 26.2452 18.0435 25.8684 18.2578 25.5593C18.4722 25.2502 18.7922 25.0303 19.1576 24.9409C19.523 24.8516 19.9084 24.8991 20.2411 25.0744C20.3901 25.1447 20.5321 25.2289 20.6653 25.3256C22.0406 26.259 23.6611 26.765 25.3231 26.7801C26.9852 26.7952 28.6146 26.3187 30.0066 25.4105C30.276 25.1953 30.5854 25.0356 30.9169 24.9406C31.2227 24.8516 31.5494 24.8675 31.8451 24.9858C32.1407 25.104 32.3883 25.3179 32.5483 25.5932C32.9561 26.2457 32.9496 26.8983 32.4504 27.4138C31.6832 28.1908 30.7556 28.791 29.7325 29.1724C28.7374 29.5294 27.7016 29.7606 26.6492 29.8609C26.8091 30.0338 26.8841 30.1186 26.9755 30.2198C28.4046 31.6554 29.8369 33.0812 31.2595 34.5234C31.4873 34.7283 31.6424 35.0018 31.7012 35.3025C31.7601 35.6032 31.7196 35.915 31.5858 36.1907C31.4472 36.4918 31.2228 36.7453 30.9407 36.9195C30.6586 37.0936 30.3314 37.1806 30.0001 37.1695C29.6112 37.1371 29.2494 36.9573 28.9886 36.667C27.9086 35.5838 26.8123 34.5169 25.7552 33.4043C25.4485 33.078 25.3017 33.1432 25.0309 33.4043C23.9433 34.5201 22.8448 35.6229 21.7355 36.7127C21.5298 36.94 21.2547 37.0927 20.953 37.147C20.6514 37.2013 20.3402 37.1541 20.0682 37.0129C19.7728 36.8758 19.5232 36.6563 19.3496 36.3808C19.1759 36.1053 19.0856 35.7855 19.0894 35.4598C19.1203 35.0569 19.3077 34.6822 19.6114 34.4157C21.0231 33.0062 22.437 31.5923 23.853 30.1741C23.9574 30.1089 24.0423 30.0175 24.1793 29.8642Z" fill="white"/>
<path d="M25.3507 24.9504C24.1073 24.9432 22.8941 24.567 21.8649 23.8693C20.8357 23.1717 20.0368 22.1842 19.5696 21.032C19.1024 19.8797 18.9878 18.6147 19.2405 17.3973C19.4932 16.1799 20.1017 15.0649 20.9888 14.1938C21.876 13.3226 23.0019 12.7346 24.2237 12.5042C25.4456 12.2738 26.7083 12.4114 27.8518 12.8995C28.9953 13.3877 29.9681 14.2045 30.6468 15.2463C31.3255 16.2881 31.6796 17.5079 31.6641 18.7512C31.6426 20.4084 30.9669 21.99 29.7843 23.1513C28.6017 24.3125 27.008 24.9592 25.3507 24.9504ZM28.4666 18.6696C28.4653 18.0618 28.2836 17.4681 27.9446 16.9636C27.6056 16.4592 27.1245 16.0667 26.5622 15.8359C25.9999 15.6051 25.3818 15.5464 24.7861 15.6672C24.1905 15.788 23.6441 16.0829 23.2161 16.5145C22.7882 16.9461 22.498 17.495 22.3823 18.0917C22.2665 18.6883 22.3305 19.3059 22.5661 19.8662C22.8017 20.4265 23.1982 20.9042 23.7056 21.239C24.2129 21.5737 24.8081 21.7503 25.4159 21.7464C25.8184 21.7451 26.2166 21.6645 26.5879 21.5091C26.9591 21.3537 27.2961 21.1266 27.5795 20.8408C27.8628 20.555 28.087 20.2161 28.2393 19.8436C28.3915 19.471 28.4687 19.0721 28.4666 18.6696Z" fill="white"/>
</g>
<defs>
<clipPath id="clip0_2_163">
<rect width="49.594" height="49.594" fill="white" transform="translate(0.602539)"/>
</clipPath>
</defs>
</svg>
