<svg width="50" height="50" viewBox="0 0 50 50" fill="none" xmlns="http://www.w3.org/2000/svg">
<g clip-path="url(#clip0_2_153)">
<path d="M24.9979 49.5941C38.6929 49.5941 49.7949 38.4921 49.7949 24.7971C49.7949 11.1021 38.6929 9.91821e-05 24.9979 9.91821e-05C11.3029 9.91821e-05 0.200928 11.1021 0.200928 24.7971C0.200928 38.4921 11.3029 49.5941 24.9979 49.5941Z" fill="#00A6DE"/>
<path d="M37.3474 17.2927C36.7613 18.1732 36.0451 18.9597 35.2234 19.6256C35.1198 19.7119 35.0367 19.8203 34.9803 19.9428C34.9238 20.0652 34.8954 20.1988 34.8971 20.3336V20.4152C34.8875 22.1834 34.5627 23.9358 33.9378 25.5899C33.294 27.3261 32.3374 28.9296 31.1155 30.3209C29.4736 32.1902 27.3613 33.586 24.9979 34.3635C23.4449 34.8675 21.8213 35.1198 20.1886 35.1107C17.5984 35.1103 15.0544 34.4248 12.8147 33.1236C12.7345 33.078 12.6713 33.0074 12.6348 32.9226C12.5983 32.8379 12.5904 32.7435 12.6124 32.6538C12.635 32.5656 12.6865 32.4874 12.7586 32.4319C12.8308 32.3763 12.9194 32.3464 13.0105 32.3471H13.6304C15.5988 32.3519 17.5237 31.7679 19.1575 30.67C18.1839 30.5124 17.2726 30.089 16.5242 29.4465C15.7758 28.804 15.2192 27.9674 14.916 27.0288C14.9004 26.9818 14.8976 26.9315 14.9078 26.8831C14.918 26.8346 14.9408 26.7897 14.9739 26.753C15.007 26.7162 15.0493 26.6888 15.0964 26.6737C15.1436 26.6585 15.1939 26.6561 15.2422 26.6666C15.5392 26.7225 15.8406 26.7509 16.1428 26.7515H16.2569C15.3159 26.3191 14.5202 25.6235 13.9661 24.7486C13.412 23.8737 13.1231 22.857 13.1345 21.8214C13.1348 21.773 13.1477 21.7254 13.1719 21.6834C13.196 21.6414 13.2307 21.6064 13.2724 21.5818C13.3141 21.5571 13.3615 21.5437 13.41 21.5428C13.4584 21.542 13.5063 21.5536 13.5489 21.5767C13.9316 21.7904 14.3423 21.9497 14.7691 22.0498C13.9255 21.2152 13.3829 20.1242 13.2265 18.9478C13.07 17.7715 13.3085 16.5765 13.9045 15.5504C13.927 15.511 13.9588 15.4777 13.9971 15.4532C14.0354 15.4288 14.079 15.414 14.1243 15.4102C14.1695 15.4063 14.215 15.4135 14.2569 15.4311C14.2987 15.4487 14.3357 15.4762 14.3645 15.5113C15.543 16.9704 17.0025 18.178 18.6564 19.0624C20.3104 19.9468 22.1251 20.49 23.9929 20.6599H24.019C24.0465 20.6591 24.0735 20.6527 24.0984 20.6412C24.1233 20.6296 24.1456 20.6131 24.1639 20.5926C24.1822 20.5722 24.1962 20.5482 24.2049 20.5222C24.2137 20.4962 24.217 20.4687 24.2148 20.4413C24.142 19.7865 24.1839 19.124 24.3388 18.4836C24.5493 17.6132 24.9814 16.812 25.5932 16.1579C26.2049 15.5039 26.9755 15.0192 27.83 14.751C28.3782 14.5798 28.949 14.4918 29.5233 14.49C30.8256 14.4885 32.0835 14.9631 33.0602 15.8245C33.1867 15.9377 33.3504 16.0004 33.5202 16.0007C33.5753 15.9995 33.63 15.9918 33.6833 15.9778C34.6011 15.7459 35.4803 15.3822 36.2935 14.8979C36.3422 14.8678 36.399 14.8536 36.4561 14.8571C36.5131 14.8606 36.5677 14.8816 36.6124 14.9173C36.6571 14.9531 36.6896 15.0017 36.7055 15.0566C36.7214 15.1116 36.72 15.1701 36.7014 15.2241C36.4299 16.0783 35.946 16.8495 35.2951 17.4657C35.8815 17.3259 36.4538 17.1325 37.0048 16.8881C37.0592 16.8671 37.1188 16.8636 37.1753 16.878C37.2318 16.8924 37.2824 16.9241 37.32 16.9686C37.3577 17.0131 37.3806 17.0682 37.3855 17.1263C37.3904 17.1844 37.3771 17.2425 37.3474 17.2927Z" fill="white"/>
</g>
<defs>
<clipPath id="clip0_2_153">
<rect width="49.594" height="49.594" fill="white" transform="translate(0.200928)"/>
</clipPath>
</defs>
</svg>
