<svg width="50" height="50" viewBox="0 0 50 50" fill="none" xmlns="http://www.w3.org/2000/svg">
<g clip-path="url(#clip0_2_158)">
<path d="M25.1987 49.5941C38.8937 49.5941 49.9957 38.4921 49.9957 24.7971C49.9957 11.1021 38.8937 9.91821e-05 25.1987 9.91821e-05C11.5037 9.91821e-05 0.401733 11.1021 0.401733 24.7971C0.401733 38.4921 11.5037 49.5941 25.1987 49.5941Z" fill="#4065D6"/>
<path d="M36.6347 31.8838C36.0539 31.9654 33.2316 31.8838 33.0848 31.8838C32.3551 31.8912 31.6519 31.6111 31.1271 31.104C30.5301 30.5297 29.9917 29.8968 29.4207 29.2997C29.2474 29.1177 29.0609 28.9486 28.8628 28.794C28.3962 28.4383 27.9362 28.5199 27.7176 29.068C27.5464 29.6621 27.4284 30.2703 27.3652 30.8854C27.355 31.1445 27.2424 31.3889 27.0522 31.5651C26.8619 31.7413 26.6096 31.8348 26.3505 31.8251C25.9655 31.8446 25.5805 31.8544 25.1987 31.8446C23.81 31.8374 22.4427 31.502 21.2084 30.8658C19.8758 30.1211 18.7142 29.1052 17.7988 27.8837C16.3341 25.9496 15.0682 23.8726 14.0205 21.6844C13.965 21.5735 12.8655 19.2341 12.8394 19.1264C12.7712 18.9731 12.7647 18.7994 12.8212 18.6415C12.8777 18.4835 12.9929 18.3534 13.1428 18.2781C13.3386 18.203 16.9635 18.2781 17.0222 18.2781C17.2922 18.2755 17.5558 18.3593 17.7748 18.5172C17.9937 18.6751 18.1565 18.8988 18.2392 19.1558C18.9097 20.8649 19.8252 22.4674 20.9571 23.9129C21.115 24.1077 21.3008 24.2781 21.5085 24.4186C21.5621 24.4703 21.6284 24.5067 21.7008 24.5241C21.7731 24.5416 21.8488 24.5394 21.92 24.5177C21.9912 24.4961 22.0553 24.4559 22.1057 24.4011C22.1561 24.3464 22.191 24.2792 22.2068 24.2065C22.3502 23.7348 22.4346 23.2471 22.458 22.7546C22.4776 21.7758 22.458 21.1232 22.4025 20.1444C22.4223 19.8108 22.3096 19.4829 22.0891 19.2319C21.8686 18.9808 21.558 18.8269 21.2247 18.8034C20.9376 18.7544 20.8984 18.5195 21.0974 18.2846C21.4792 17.7985 22.0077 17.7202 22.582 17.6908C23.4499 17.6418 24.321 17.6908 25.1922 17.6908H25.3814C25.7639 17.6898 26.1455 17.7281 26.5201 17.805C26.7392 17.8499 26.9379 17.9643 27.0867 18.1313C27.2354 18.2983 27.3262 18.5088 27.3456 18.7316C27.3896 18.9781 27.4093 19.2284 27.4043 19.4788C27.3815 20.5457 27.3293 21.6126 27.3162 22.6828C27.3085 23.1055 27.3468 23.5278 27.4304 23.9422C27.5577 24.51 27.946 24.6535 28.344 24.2391C28.84 23.7067 29.2949 23.1374 29.7046 22.536C30.4413 21.441 31.0479 20.2639 31.5122 19.0285C31.7634 18.3955 31.9559 18.2552 32.6378 18.2552H36.4846C36.7141 18.2514 36.9429 18.2822 37.1633 18.3466C37.241 18.3673 37.3137 18.4038 37.3768 18.4538C37.4398 18.5038 37.492 18.5663 37.5299 18.6372C37.5678 18.7082 37.5908 18.7862 37.5973 18.8665C37.6038 18.9467 37.5938 19.0274 37.5678 19.1036C37.3429 19.9221 36.9569 20.6875 36.4324 21.3549C35.6493 22.4609 34.8271 23.5409 34.0245 24.6176C33.9229 24.7585 33.8303 24.9056 33.7471 25.0581C33.447 25.5997 33.4698 25.9064 33.9038 26.3632C34.602 27.081 35.3492 27.7564 36.0213 28.4938C36.517 29.0311 36.9646 29.6108 37.359 30.2263C37.855 31.0224 37.5515 31.7533 36.6347 31.8838Z" fill="white"/>
</g>
<defs>
<clipPath id="clip0_2_158">
<rect width="49.594" height="49.594" fill="white" transform="translate(0.401733)"/>
</clipPath>
</defs>
</svg>
