<svg width="35" height="35" viewBox="0 0 35 35" fill="none" xmlns="http://www.w3.org/2000/svg">
<path d="M17.5 35C27.165 35 35 27.165 35 17.5C35 7.83502 27.165 0 17.5 0C7.83502 0 0 7.83502 0 17.5C0 27.165 7.83502 35 17.5 35Z" fill="#F20000"/>
<path d="M25.8402 13.2908C25.4902 12.204 24.3319 11.5615 23.2566 11.4119C19.4235 11.0043 15.5581 11.0043 11.725 11.4119C10.6589 11.5615 9.50067 12.2132 9.15067 13.2908C8.60497 16.0712 8.60497 18.9312 9.15067 21.7115C9.50988 22.7961 10.6681 23.4408 11.7434 23.5905C15.5766 23.9958 19.4418 23.9958 23.275 23.5905C24.3411 23.4408 25.4994 22.7869 25.8494 21.7115C26.392 18.9306 26.3889 16.0706 25.8402 13.2908ZM15.4069 20.8527V14.1474L20.8665 17.5C19.0267 18.6306 17.2398 19.7313 15.4069 20.8527Z" fill="white"/>
</svg>
