<svg width="15" height="16" viewBox="0 0 15 16" fill="none" xmlns="http://www.w3.org/2000/svg">
<path d="M7.16208 8.3084C9.44781 8.3084 11.3163 6.43993 11.3163 4.1542C11.3163 1.86847 9.44781 0 7.16208 0C4.87634 0 3.0079 1.86847 3.0079 4.1542C3.0079 6.43993 4.87638 8.3084 7.16208 8.3084Z" fill="#4AB8E6"/>
<path d="M14.2914 11.628C14.1825 11.3559 14.0374 11.1019 13.8741 10.8661C13.0397 9.63254 11.7517 8.81621 10.3004 8.61667C10.1191 8.59854 9.91951 8.63479 9.77437 8.74365C9.01246 9.30601 8.10544 9.59625 7.16211 9.59625C6.21877 9.59625 5.31176 9.30601 4.54984 8.74365C4.40471 8.63479 4.20516 8.58038 4.02377 8.61667C2.57251 8.81621 1.2664 9.63254 0.45008 10.8661C0.286816 11.1019 0.141676 11.3741 0.0328568 11.628C-0.021553 11.7369 -0.00342797 11.8639 0.0509819 11.9727C0.196121 12.2267 0.37751 12.4807 0.540774 12.6983C0.794733 13.043 1.06685 13.3514 1.37526 13.6416C1.62921 13.8956 1.91946 14.1314 2.20974 14.3673C3.64283 15.4376 5.3662 15.9999 7.14398 15.9999C8.92176 15.9999 10.6451 15.4376 12.0782 14.3673C12.3685 14.1496 12.6587 13.8956 12.9127 13.6416C13.203 13.3514 13.4932 13.043 13.7472 12.6983C13.9286 12.4625 14.0919 12.2267 14.237 11.9727C14.3276 11.8639 14.3458 11.7368 14.2914 11.628Z" fill="#4AB8E6"/>
</svg>
