<svg width="38" height="38" viewBox="0 0 38 38" fill="none" xmlns="http://www.w3.org/2000/svg">
<path fill-rule="evenodd" clip-rule="evenodd" d="M19 0.666639C21.4079 0.663801 23.7928 1.13672 26.0175 2.05825C28.2422 2.97979 30.2629 4.33177 31.9636 6.03654C33.6682 7.7372 35.0201 9.75787 35.9416 11.9825C36.8632 14.2072 37.3361 16.592 37.3333 19C37.3362 21.4079 36.8632 23.7928 35.9417 26.0175C35.0202 28.2421 33.6682 30.2628 31.9635 31.9635C30.2628 33.6682 28.2421 35.0202 26.0175 35.9417C23.7928 36.8632 21.4079 37.3362 18.9999 37.3333C16.592 37.3361 14.2072 36.8632 11.9825 35.9416C9.75784 35.0201 7.73715 33.6682 6.03647 31.9635C4.33174 30.2628 2.97978 28.2422 2.05825 26.0175C1.13673 23.7928 0.663805 21.408 0.666639 19C0.663847 16.592 1.13679 14.2072 2.05832 11.9825C2.97984 9.75784 4.33177 7.73714 6.03646 6.03646C7.73714 4.33177 9.75784 2.97984 11.9825 2.05832C14.2072 1.1368 16.592 0.663851 19 0.666639ZM19 35.6666L19.0021 34C20.9716 34.0025 22.9222 33.6158 24.7418 32.8621C26.5614 32.1084 28.2141 31.0025 29.6049 29.608L29.608 29.6049C31.0025 28.2141 32.1084 26.5614 32.8621 24.7418C33.6158 22.9222 34.0025 20.9716 34 19.0021V18.9978C34.0025 17.0283 33.6158 15.0777 32.862 13.2582C32.1083 11.4386 31.0025 9.78586 29.608 8.39501L29.6049 8.39193C28.2141 6.99744 26.5614 5.89156 24.7418 5.13784C22.9222 4.38412 20.9716 3.99742 19.0021 3.99997L18.9978 3.99997C17.0283 3.99746 15.0777 4.38418 13.2582 5.1379C11.4386 5.89162 9.78586 6.99749 8.39501 8.39195L8.39195 8.39501C6.99749 9.78586 5.89162 11.4386 5.1379 13.2582C4.38418 15.0777 3.99746 17.0283 3.99997 18.9978V19.0021C3.99742 20.9716 4.38412 22.9222 5.13784 24.7418C5.89156 26.5614 6.99744 28.2141 8.39193 29.6049L8.39502 29.608C9.78586 31.0025 11.4386 32.1083 13.2582 32.862C15.0777 33.6158 17.0283 34.0025 18.9978 34L19 35.6666Z" fill="#F49C9C"/>
<path fill-rule="evenodd" clip-rule="evenodd" d="M19 29.8333C19.5525 29.8333 20.0824 29.6138 20.4731 29.2231C20.8638 28.8324 21.0833 28.3025 21.0833 27.75C21.0833 27.1974 20.8638 26.6675 20.4731 26.2768C20.0824 25.8861 19.5525 25.6666 19 25.6666C18.4474 25.6666 17.9175 25.8861 17.5268 26.2768C17.1361 26.6675 16.9166 27.1974 16.9166 27.75C16.9166 28.3025 17.1361 28.8324 17.5268 29.2231C17.9175 29.6138 18.4474 29.8333 19 29.8333Z" fill="#F49C9C"/>
<path fill-rule="evenodd" clip-rule="evenodd" d="M18.9999 7.33325C19.9204 7.33325 20.6666 8.07944 20.6666 8.99992V22.3333C20.6666 23.2537 19.9204 23.9999 18.9999 23.9999C18.0794 23.9999 17.3333 23.2537 17.3333 22.3333V8.99992C17.3333 8.07944 18.0794 7.33325 18.9999 7.33325Z" fill="#F49C9C"/>
</svg>
