<svg width="22" height="24" viewBox="0 0 22 24" fill="none" xmlns="http://www.w3.org/2000/svg">
<path d="M8.25 0.750006C9.36937 0.750006 10.3763 1.24126 11.0625 2.01938C11.6777 1.32179 12.5301 0.8777 13.4543 0.773329C14.3785 0.668958 15.3085 0.911759 16.0637 1.45459C16.819 1.99741 17.3456 2.80153 17.5412 3.71079C17.7369 4.62006 17.5876 5.56959 17.1225 6.37501H19.5C19.9973 6.37501 20.4742 6.57255 20.8258 6.92418C21.1775 7.27581 21.375 7.75272 21.375 8.25001V12C21.375 12.4973 21.1775 12.9742 20.8258 13.3258C20.4742 13.6775 19.9973 13.875 19.5 13.875V19.5C19.5 20.4946 19.1049 21.4484 18.4016 22.1517C17.6984 22.8549 16.7446 23.25 15.75 23.25H6.375C5.38044 23.25 4.42661 22.8549 3.72335 22.1517C3.02009 21.4484 2.625 20.4946 2.625 19.5V13.875C2.12772 13.875 1.65081 13.6775 1.29917 13.3258C0.947544 12.9742 0.75 12.4973 0.75 12V8.25001C0.75 7.75272 0.947544 7.27581 1.29917 6.92418C1.65081 6.57255 2.12772 6.37501 2.625 6.37501H5.0025C4.67337 5.80494 4.5001 5.15828 4.5001 4.50003C4.50009 3.84178 4.67336 3.19512 5.00248 2.62505C5.3316 2.05498 5.80497 1.58158 6.37503 1.25245C6.94509 0.923308 7.59175 0.750022 8.25 0.750006V0.750006ZM6.375 4.50001C6.375 4.99729 6.57254 5.4742 6.92418 5.82583C7.27581 6.17746 7.75272 6.37501 8.25 6.37501H10.125V4.50001C10.125 4.00272 9.92746 3.52581 9.57582 3.17418C9.22419 2.82255 8.74728 2.62501 8.25 2.62501C7.75272 2.62501 7.27581 2.82255 6.92418 3.17418C6.57254 3.52581 6.375 4.00272 6.375 4.50001V4.50001ZM12 8.25001V12H19.5V8.25001H12ZM10.125 8.25001H2.625V12H10.125V8.25001ZM4.5 13.875V19.5C4.5 19.9973 4.69754 20.4742 5.04918 20.8258C5.40081 21.1775 5.87772 21.375 6.375 21.375H10.125V13.875H4.5ZM12 21.375H15.75C16.2473 21.375 16.7242 21.1775 17.0758 20.8258C17.4275 20.4742 17.625 19.9973 17.625 19.5V13.875H12V21.375ZM15.75 4.50001C15.75 4.00272 15.5525 3.52581 15.2008 3.17418C14.8492 2.82255 14.3723 2.62501 13.875 2.62501C13.3777 2.62501 12.9008 2.82255 12.5492 3.17418C12.1975 3.52581 12 4.00272 12 4.50001V6.37501H13.875C14.3723 6.37501 14.8492 6.17746 15.2008 5.82583C15.5525 5.4742 15.75 4.99729 15.75 4.50001Z" fill="#99A2AC"/>
</svg>
