<svg width="36" height="36" viewBox="0 0 36 36" fill="none" xmlns="http://www.w3.org/2000/svg">
<path d="M11.4839 28.0015C9.40814 28.0015 7.72552 29.6842 7.72552 31.7598C7.72552 33.8355 9.40822 35.5181 11.4839 35.5181C13.5596 35.5181 15.2422 33.8354 15.2422 31.7598C15.2423 29.6842 13.5596 28.0015 11.4839 28.0015ZM11.4839 33.8478C10.3307 33.8478 9.39591 32.913 9.39591 31.7599C9.39591 30.6067 10.3307 29.6719 11.4839 29.6719C12.637 29.6719 13.5718 30.6067 13.5718 31.7599C13.5719 32.913 12.637 33.8478 11.4839 33.8478Z" fill="#4AB8E6"/>
<path d="M27.3526 28.0015C25.2769 28.0015 23.5942 29.6842 23.5942 31.7598C23.5942 33.8355 25.2769 35.5181 27.3526 35.5181C29.4282 35.5181 31.1109 33.8354 31.1109 31.7598C31.1109 29.6842 29.4283 28.0015 27.3526 28.0015ZM27.3526 33.8478C26.1994 33.8478 25.2646 32.913 25.2646 31.7599C25.2646 30.6067 26.1994 29.6719 27.3526 29.6719C28.5057 29.6719 29.4405 30.6067 29.4405 31.7599C29.4406 32.913 28.5057 33.8478 27.3526 33.8478Z" fill="#4AB8E6"/>
<path d="M35.8298 6.07779C35.6559 5.88779 35.4179 5.76886 35.1616 5.74368L7.97612 5.36785L7.22445 3.07104C6.69491 1.53566 5.25712 0.499119 3.63309 0.481934H0.835195C0.373915 0.481934 0 0.855848 0 1.31713C0 1.77841 0.373915 2.15232 0.835195 2.15232H3.63309C4.54118 2.17238 5.3408 2.75548 5.63759 3.61393L10.9411 19.6079L10.5235 20.5683C10.0578 21.7693 10.1976 23.1211 10.8993 24.2014C11.5943 25.2624 12.7636 25.9172 14.0313 25.9553H30.2759C30.7372 25.9553 31.1111 25.5814 31.1111 25.1201C31.1111 24.6588 30.7372 24.2849 30.2759 24.2849H14.0313C13.3153 24.267 12.6563 23.8904 12.2773 23.2827C11.9026 22.6824 11.8257 21.9429 12.0686 21.2782L12.4027 20.5265L29.9835 18.6891C31.9146 18.4764 33.5032 17.0718 33.9507 15.1812L35.9552 6.78757C36.0455 6.54586 35.9976 6.27402 35.8298 6.07779ZM32.322 14.8055C32.0509 16.0225 31.0176 16.9202 29.7747 17.0188L12.4027 18.8144L8.51901 7.03823L34.1177 7.41407L32.322 14.8055Z" fill="#4AB8E6"/>
</svg>
