<svg width="17" height="17" viewBox="0 0 17 17" fill="none" xmlns="http://www.w3.org/2000/svg">
<path d="M10.0575 8.51388L16.677 1.89421C17.1077 1.46363 17.1077 0.767435 16.677 0.336853C16.2464 -0.0937295 15.5502 -0.0937295 15.1196 0.336853L8.49992 6.95652L1.88045 0.336853C1.44966 -0.0937295 0.75367 -0.0937295 0.323088 0.336853C-0.107696 0.767435 -0.107696 1.46363 0.323088 1.89421L6.94256 8.51388L0.323088 15.1335C-0.107696 15.5641 -0.107696 16.2603 0.323088 16.6909C0.537673 16.9057 0.819821 17.0136 1.10177 17.0136C1.38371 17.0136 1.66566 16.9057 1.88045 16.6909L8.49992 10.0712L15.1196 16.6909C15.3344 16.9057 15.6163 17.0136 15.8983 17.0136C16.1802 17.0136 16.4622 16.9057 16.677 16.6909C17.1077 16.2603 17.1077 15.5641 16.677 15.1335L10.0575 8.51388Z" fill="white"/>
</svg>
