<svg width="22" height="22" viewBox="0 0 22 22" fill="none" xmlns="http://www.w3.org/2000/svg">
<path d="M11 0C4.93509 0 0 4.93423 0 11C0 17.0658 4.93509 22 11 22C17.0658 22 22 17.0658 22 11C22 4.93423 17.0649 0 11 0ZM11 20.2959C5.87404 20.2959 1.7041 16.126 1.7041 11C1.7041 5.87404 5.87404 1.7041 11 1.7041C16.126 1.7041 20.2959 5.87404 20.2959 11C20.2959 16.126 16.126 20.2959 11 20.2959Z" fill="#99A2AC"/>
<path d="M15.2603 10.0713H6.73977C6.26943 10.0713 5.8877 10.453 5.8877 10.9233C5.8877 11.3937 6.26943 11.7754 6.73977 11.7754H15.2603C15.7306 11.7754 16.1124 11.3937 16.1124 10.9233C16.1124 10.453 15.7306 10.0713 15.2603 10.0713Z" fill="#99A2AC"/>
</svg>
