<svg width="22" height="22" viewBox="0 0 22 22" fill="none" xmlns="http://www.w3.org/2000/svg">
<path d="M11 0C4.93423 0 0 4.93423 0 11C0 17.0658 4.93423 22 11 22C17.0658 22 22 17.0649 22 11C22 4.93509 17.0658 0 11 0ZM11 20.2959C5.8749 20.2959 1.7041 16.126 1.7041 11C1.7041 5.87404 5.8749 1.7041 11 1.7041C16.1251 1.7041 20.2959 5.87404 20.2959 11C20.2959 16.126 16.126 20.2959 11 20.2959Z" fill="#99A2AC"/>
<path d="M15.2603 10.0713H11.8521V6.66308C11.8521 6.19274 11.4712 5.81101 11 5.81101C10.5288 5.81101 10.148 6.19274 10.148 6.66308V10.0713H6.73977C6.26857 10.0713 5.8877 10.453 5.8877 10.9233C5.8877 11.3937 6.26857 11.7754 6.73977 11.7754H10.148V15.1836C10.148 15.6539 10.5288 16.0357 11 16.0357C11.4712 16.0357 11.8521 15.6539 11.8521 15.1836V11.7754H15.2603C15.7315 11.7754 16.1124 11.3937 16.1124 10.9233C16.1124 10.453 15.7315 10.0713 15.2603 10.0713Z" fill="#99A2AC"/>
</svg>
