<svg width="34" height="34" viewBox="0 0 34 34" fill="none" xmlns="http://www.w3.org/2000/svg">
<g clip-path="url(#clip0_101_2938)">
<path d="M31.7392 17.4404C31.6024 17.1605 31.6024 16.8395 31.7392 16.5596L33.0073 13.9655C33.7133 12.5211 33.1539 10.7995 31.7338 10.046L29.1831 8.69267C28.9079 8.54671 28.7193 8.28693 28.6654 7.9802L28.1666 5.1361C27.8888 3.55259 26.424 2.4885 24.8325 2.71368L21.9735 3.11809C21.6649 3.16165 21.3598 3.06244 21.1359 2.84589L19.0607 0.83831C17.9051 -0.279566 16.0949 -0.279633 14.9395 0.83831L12.8641 2.84609C12.6402 3.06271 12.3351 3.16172 12.0266 3.11829L9.16759 2.71388C7.57551 2.48856 6.11126 3.55278 5.83349 5.1363L5.33465 7.98026C5.28079 8.28706 5.09213 8.54677 4.81701 8.6928L2.26636 10.0462C0.846209 10.7996 0.286806 12.5213 0.992833 13.9657L2.26085 16.5598C2.39765 16.8397 2.39765 17.1607 2.26085 17.4405L0.992766 20.0346C0.286739 21.479 0.846142 23.2006 2.2663 23.9541L4.81695 25.3074C5.09213 25.4534 5.28079 25.7132 5.33465 26.0199L5.83349 28.864C6.08636 30.3055 7.32244 31.3165 8.74306 31.3164C8.88298 31.3164 9.02495 31.3065 9.16766 31.2863L12.0266 30.8819C12.335 30.8382 12.6403 30.9376 12.8642 31.1541L14.9395 33.1617C15.5173 33.7207 16.2585 34.0002 17 34.0001C17.7413 34 18.483 33.7206 19.0606 33.1617L21.1359 31.1541C21.3598 30.9376 21.665 30.8386 21.9735 30.8819L24.8325 31.2863C26.4247 31.5116 27.8888 30.4474 28.1666 28.8639L28.6655 26.02C28.7193 25.7132 28.908 25.4534 29.1831 25.3074L31.7338 23.9541C33.1539 23.2006 33.7133 21.4789 33.0073 20.0345L31.7392 17.4404ZM13.078 8.17563C15.0604 8.17563 16.6732 9.78843 16.6732 11.7708C16.6732 13.7531 15.0604 15.3659 13.078 15.3659C11.0957 15.3659 9.48289 13.7531 9.48289 11.7708C9.48289 9.78843 11.0957 8.17563 13.078 8.17563ZM11.2224 24.1642C11.0309 24.3556 10.78 24.4514 10.5291 24.4514C10.2782 24.4514 10.0272 24.3557 9.83583 24.1642C9.45294 23.7813 9.45294 23.1605 9.83583 22.7776L22.7776 9.83578C23.1604 9.45288 23.7813 9.45288 24.1642 9.83578C24.5471 10.2187 24.5471 10.8395 24.1642 11.2224L11.2224 24.1642ZM20.9219 25.8245C18.9395 25.8245 17.3267 24.2117 17.3267 22.2293C17.3267 20.247 18.9395 18.6342 20.9219 18.6342C22.9042 18.6342 24.517 20.247 24.517 22.2293C24.517 24.2117 22.9042 25.8245 20.9219 25.8245Z" fill="white"/>
<path d="M20.9219 20.5952C20.0208 20.5952 19.2877 21.3283 19.2877 22.2293C19.2877 23.1304 20.0208 23.8634 20.9219 23.8634C21.823 23.8634 22.556 23.1304 22.556 22.2293C22.556 21.3283 21.823 20.5952 20.9219 20.5952Z" fill="white"/>
<path d="M13.078 10.1366C12.177 10.1366 11.4439 10.8697 11.4439 11.7707C11.4439 12.6718 12.177 13.4049 13.078 13.4049C13.9791 13.4049 14.7122 12.6718 14.7122 11.7707C14.7122 10.8697 13.9791 10.1366 13.078 10.1366Z" fill="white"/>
</g>
<defs>
<clipPath id="clip0_101_2938">
<rect width="34" height="34" fill="white"/>
</clipPath>
</defs>
</svg>
