<svg width="22" height="22" viewBox="0 0 22 22" fill="none" xmlns="http://www.w3.org/2000/svg">
<path d="M2.83333 5.16667C4.12197 5.16667 5.16667 4.12197 5.16667 2.83333C5.16667 1.54467 4.12197 0.5 2.83333 0.5C1.54467 0.5 0.5 1.54467 0.5 2.83333C0.5 4.12197 1.54467 5.16667 2.83333 5.16667Z" fill="white"/>
<path d="M11 5.16667C12.2886 5.16667 13.3333 4.12197 13.3333 2.83333C13.3333 1.54467 12.2886 0.5 11 0.5C9.71135 0.5 8.66666 1.54467 8.66666 2.83333C8.66666 4.12197 9.71135 5.16667 11 5.16667Z" fill="white"/>
<path d="M19.1667 5.16667C20.4553 5.16667 21.5 4.12197 21.5 2.83333C21.5 1.54467 20.4553 0.5 19.1667 0.5C17.878 0.5 16.8333 1.54467 16.8333 2.83333C16.8333 4.12197 17.878 5.16667 19.1667 5.16667Z" fill="white"/>
<path d="M2.83333 13.3334C4.12197 13.3334 5.16667 12.2887 5.16667 11.0001C5.16667 9.71144 4.12197 8.66675 2.83333 8.66675C1.54467 8.66675 0.5 9.71144 0.5 11.0001C0.5 12.2887 1.54467 13.3334 2.83333 13.3334Z" fill="white"/>
<path d="M11 13.3334C12.2886 13.3334 13.3333 12.2887 13.3333 11.0001C13.3333 9.71144 12.2886 8.66675 11 8.66675C9.71135 8.66675 8.66666 9.71144 8.66666 11.0001C8.66666 12.2887 9.71135 13.3334 11 13.3334Z" fill="white"/>
<path d="M19.1667 13.3334C20.4553 13.3334 21.5 12.2887 21.5 11.0001C21.5 9.71144 20.4553 8.66675 19.1667 8.66675C17.878 8.66675 16.8333 9.71144 16.8333 11.0001C16.8333 12.2887 17.878 13.3334 19.1667 13.3334Z" fill="white"/>
<path d="M2.83333 21.4999C4.12197 21.4999 5.16667 20.4552 5.16667 19.1666C5.16667 17.8779 4.12197 16.8333 2.83333 16.8333C1.54467 16.8333 0.5 17.8779 0.5 19.1666C0.5 20.4552 1.54467 21.4999 2.83333 21.4999Z" fill="white"/>
<path d="M11 21.4999C12.2886 21.4999 13.3333 20.4552 13.3333 19.1666C13.3333 17.8779 12.2886 16.8333 11 16.8333C9.71135 16.8333 8.66666 17.8779 8.66666 19.1666C8.66666 20.4552 9.71135 21.4999 11 21.4999Z" fill="white"/>
<path d="M19.1667 21.4999C20.4553 21.4999 21.5 20.4552 21.5 19.1666C21.5 17.8779 20.4553 16.8333 19.1667 16.8333C17.878 16.8333 16.8333 17.8779 16.8333 19.1666C16.8333 20.4552 17.878 21.4999 19.1667 21.4999Z" fill="white"/>
</svg>
