<svg width="24" height="24" viewBox="0 0 24 24" fill="none" xmlns="http://www.w3.org/2000/svg">
<g clip-path="url(#clip0_101_687)">
<path d="M1.71436 15.4286H22.2858V24H1.71436V15.4286Z" fill="#99A2AC"/>
<path d="M18.8353 6.85715C19.3792 6.13863 19.7143 5.25419 19.7143 4.28573C19.7143 1.9227 17.7916 0 15.4285 0C14.0217 0 12.7818 0.690586 12 1.74078C11.2182 0.690586 9.97831 0 8.57145 0C6.20842 0 4.28573 1.9227 4.28573 4.28573C4.28573 5.25419 4.62084 6.13863 5.16472 6.85715H0V13.7143H24V6.85715H18.8353ZM15.4286 1.7143C16.8466 1.7143 18 2.86777 18 4.28573C18 5.70368 16.8466 6.85715 15.4286 6.85715H12.8572V4.28573C12.8572 2.86777 14.0106 1.7143 15.4286 1.7143ZM6.00003 4.28573C6.00003 2.86777 7.1535 1.7143 8.57145 1.7143C9.98941 1.7143 11.1429 2.86777 11.1429 4.28573V6.85715H8.57145C7.1535 6.85715 6.00003 5.70368 6.00003 4.28573Z" fill="#99A2AC"/>
</g>
<defs>
<clipPath id="clip0_101_687">
<rect width="24" height="24" fill="white"/>
</clipPath>
</defs>
</svg>
