<svg width="36" height="30" viewBox="0 0 36 30" fill="none" xmlns="http://www.w3.org/2000/svg">
<path d="M25.7924 0.098353C22.7893 0.082304 19.9344 1.4012 18 3.69831C16.0776 1.3855 13.2148 0.0628533 10.2075 0.098353C4.57005 0.098353 0 4.6684 0 10.3059C0 19.9667 16.8607 29.3995 17.5443 29.7641C17.8201 29.9484 18.1798 29.9484 18.4557 29.7641C19.1393 29.3995 36 20.1034 36 10.3059C36 4.6684 31.4299 0.098353 25.7924 0.098353ZM18 27.9413C15.3569 26.392 1.82279 18.1439 1.82279 10.3059C1.82279 5.67513 5.57678 1.92105 10.2076 1.92105C13.0434 1.88381 15.6973 3.31418 17.2253 5.7033C17.5356 6.13113 18.134 6.22646 18.5618 5.91612C18.6436 5.85681 18.7154 5.78503 18.7747 5.7033C21.3089 1.82755 26.5053 0.740052 30.3811 3.27432C32.7537 4.82575 34.1818 7.47096 34.1771 10.3058C34.1772 18.235 20.643 26.4375 18 27.9413Z" fill="#4AB8E6"/>
</svg>
