<svg width="26" height="26" viewBox="0 0 26 26" fill="none" xmlns="http://www.w3.org/2000/svg">
<g clip-path="url(#clip0_101_668)">
<path d="M14.625 1.625C8.90586 1.625 4.17256 5.8724 3.37983 11.375H0L4.87501 16.25L9.75002 11.375H6.66425C7.41931 7.67112 10.7016 4.87497 14.625 4.87497C19.1049 4.87497 22.75 8.52012 22.75 13C22.75 17.4798 19.1049 21.125 14.625 21.125C12.0185 21.125 9.55163 19.8602 8.0266 17.7433L5.38916 19.6413C7.52355 22.6056 10.9759 24.375 14.625 24.375C20.8972 24.375 26 19.2715 26 13C26 6.72851 20.8972 1.625 14.625 1.625Z" fill="#99A2AC"/>
<path d="M13 8.125V14.7329L17.8512 17.6434L19.5238 14.8567L16.25 12.8921V8.12505L13 8.125Z" fill="#99A2AC"/>
</g>
<defs>
<clipPath id="clip0_101_668">
<rect width="26" height="26" fill="white"/>
</clipPath>
</defs>
</svg>
