<svg width="24" height="24" viewBox="0 0 24 24" fill="none" xmlns="http://www.w3.org/2000/svg">
<path d="M12 0C5.3828 0 0 5.3828 0 12C0 18.6172 5.3828 24 12 24C18.6172 24 24 18.6172 24 12C24 5.3828 18.6172 0 12 0ZM11.5 20C10.6728 20 9.99998 19.3272 9.99998 18.5C9.99998 17.6729 10.6728 17 11.5 17C12.3271 17 13 17.6729 13 18.5C13 19.3272 12.3271 20 11.5 20ZM13 13.9004V15.5C13 15.7764 12.7763 16 12.5 16H10.5C10.2236 16 9.99998 15.7764 9.99998 15.5V13C9.99998 11.8975 10.8975 11 12 11C13.1025 11 14 10.1025 14 9C14 7.89745 13.1025 6.99998 12 6.99998C10.8975 6.99998 9.99998 7.89745 9.99998 9V9.50002C9.99998 9.77639 9.77634 10 9.49997 10H7.5C7.22363 10 6.99998 9.77639 6.99998 9.50002V9C6.99998 6.24314 9.24314 3.99998 12 3.99998C14.7569 3.99998 17 6.24319 17 9C17 11.3994 15.3096 13.4326 13 13.9004Z" fill="#99A2AC"/>
</svg>
