<svg width="34" height="24" viewBox="0 0 34 24" fill="none" xmlns="http://www.w3.org/2000/svg">
<path d="M30.9599 4.72205C26.4691 -2.65606 19.7041 2.47698 19.7041 2.47698C19.2654 2.80857 18.4563 3.0812 17.9067 3.08247L16.0946 3.08374C15.5449 3.08437 14.7359 2.81174 14.2978 2.48015C14.2978 2.48015 7.53217 -2.65415 3.04076 4.72395C-1.44937 12.0995 0.360125 20.1319 0.360125 20.1319C0.677135 22.0987 1.722 23.4111 3.69381 23.2462C5.6599 23.082 9.9275 17.9496 9.9275 17.9496C10.28 17.5267 11.0186 17.1812 11.5671 17.1812L22.4304 17.1793C22.9795 17.1793 23.7175 17.5248 24.0693 17.9477C24.0693 17.9477 28.3376 23.0801 30.3068 23.2443C32.2761 23.4092 33.3235 22.0955 33.6386 20.13C33.638 20.13 35.4506 12.0989 30.9599 4.72205ZM12.9175 10.7275H10.5881V12.9726C10.5881 12.9726 10.0949 13.3492 9.33152 13.3397C8.56943 13.3282 8.22452 12.9288 8.22452 12.9288V10.7281H6.02447C6.02447 10.7281 5.74994 10.4466 5.67639 9.70545C5.60411 8.96428 5.98009 8.36513 5.98009 8.36513H8.31011V6.03574C8.31011 6.03574 8.78943 5.77896 9.47861 5.79861C10.1684 5.82017 10.6737 6.07948 10.6737 6.07948L10.6642 8.3645H12.8643C12.8643 8.3645 13.2485 8.85777 13.2802 9.45374C13.3119 10.0504 12.9175 10.7275 12.9175 10.7275ZM23.6021 13.2864C22.5819 13.2864 21.7596 12.4615 21.7596 11.4427C21.7596 10.4219 22.5819 9.59893 23.6021 9.59893C24.6178 9.59893 25.4464 10.4219 25.4464 11.4427C25.4464 12.4622 24.6178 13.2864 23.6021 13.2864ZM23.6021 8.2136C22.5819 8.2136 21.7596 7.38937 21.7596 6.3705C21.7596 5.34973 22.5819 4.52677 23.6021 4.52677C24.6178 4.52677 25.4464 5.34973 25.4464 6.3705C25.4464 7.39001 24.6178 8.2136 23.6021 8.2136ZM28.1936 10.9367C27.1735 10.9367 26.3512 10.1125 26.3512 9.09299C26.3512 8.07285 27.1735 7.24925 28.1936 7.24925C29.2093 7.24925 30.038 8.07285 30.038 9.09299C30.038 10.1125 29.2093 10.9367 28.1936 10.9367Z" fill="white"/>
</svg>
