<svg width="14" height="14" viewBox="0 0 14 14" fill="none" xmlns="http://www.w3.org/2000/svg">
<path d="M13.8483 4.41536C13.8483 3.81928 13.7311 3.24161 13.5017 2.69576C13.279 2.17001 12.9608 1.69783 12.5556 1.29263C12.1504 0.887425 11.6783 0.569291 11.1525 0.346598C10.6083 0.115533 10.029 0 9.43291 0C8.83683 0 8.25916 0.117207 7.71332 0.346598C7.18757 0.569291 6.71538 0.887425 6.31018 1.29263C5.90498 1.69783 5.58684 2.17001 5.36415 2.69576C5.13309 3.23994 5.01755 3.81928 5.01755 4.41536C5.01755 5.16046 5.20509 5.89049 5.56173 6.54015L0.275694 11.8212C0.153464 11.9434 0.114953 12.1293 0.190301 12.3051C0.20537 12.3419 0.230486 12.3754 0.25895 12.4038L1.44274 13.5876C1.47121 13.6161 1.50469 13.6396 1.54153 13.6563C1.71734 13.7316 1.9032 13.6948 2.02543 13.5709L2.75713 12.8392L3.81032 13.8924C3.83879 13.9208 3.87227 13.9443 3.90909 13.961C4.0849 14.0364 4.27078 13.9995 4.39299 13.8756L5.56004 12.7086C5.5885 12.6801 5.61194 12.6466 5.62869 12.6098C5.70404 12.434 5.6672 12.2481 5.54329 12.1259L4.50685 11.0895L7.30642 8.28821C7.95441 8.64486 8.68612 8.83239 9.43122 8.83239C10.0273 8.83239 10.605 8.71518 11.1508 8.48579C11.6766 8.2631 12.1487 7.94496 12.5539 7.53976C12.9591 7.13458 13.2773 6.6624 13.5 6.13663C13.7311 5.5891 13.8483 5.01144 13.8483 4.41536ZM10.9801 5.96417C10.5665 6.37774 10.0156 6.60546 9.43125 6.60546C8.84689 6.60546 8.296 6.37774 7.88244 5.96417C7.46887 5.55059 7.23948 4.99972 7.23948 4.41536C7.23948 3.82932 7.4672 3.28012 7.88077 2.86655C8.29434 2.45298 8.84523 2.22526 9.42958 2.22526C10.0139 2.22526 10.5648 2.45298 10.9784 2.86655C11.392 3.28012 11.6197 3.831 11.6197 4.41536C11.623 4.99972 11.3953 5.55059 10.9801 5.96417Z" fill="#4AB8E6"/>
</svg>
