<svg width="38" height="38" viewBox="0 0 38 38" fill="none" xmlns="http://www.w3.org/2000/svg">
<g clip-path="url(#clip0_101_2913)">
<path d="M34.6602 11.2115H32.3281C30.3447 6.50198 25.9773 3.07953 20.9494 2.42588C15.9668 1.76163 11.0711 3.67944 7.8683 7.54C6.92676 8.67503 6.1799 9.90899 5.63305 11.2115H3.33984C1.49818 11.2115 0 12.7096 0 14.5513V19.0044C0 20.8461 1.49818 22.3443 3.33984 22.3443H7.91179L7.43345 20.8842C6.04074 16.6311 6.82464 12.2855 9.58283 8.96203C12.2932 5.695 16.4321 4.07836 20.6602 4.63285C25.1317 5.21532 29.0129 8.37756 30.5507 12.6911L30.5601 12.7161C30.808 13.3749 30.9819 14.0523 31.0819 14.7492C31.4157 16.8312 31.2255 18.9413 30.5329 20.8516L30.528 20.8649C28.809 25.7454 24.1857 29.024 19.0217 29.024C17.1681 29.024 15.6602 30.5221 15.6602 32.3638C15.6602 34.2055 17.1583 35.7036 19 35.7036C20.8417 35.7036 22.3398 34.2055 22.3398 32.3638V30.8624C26.7851 29.8058 30.5189 26.6547 32.3136 22.3442H34.6602C36.5018 22.3442 38 20.846 38 19.0044V14.5512C38 12.7096 36.5018 11.2115 34.6602 11.2115Z" fill="white"/>
<path d="M8.98047 24.5708V26.7974H19C24.5251 26.7974 29.0195 22.3029 29.0195 16.7778C29.0195 11.2528 24.5251 6.7583 19 6.7583C13.4749 6.7583 8.98047 11.2528 8.98047 16.7778C8.98047 19.0305 9.73713 21.2071 11.12 22.9672C10.8515 23.9054 9.99482 24.5708 8.98047 24.5708ZM22.3398 15.6646H24.5664V17.8911H22.3398V15.6646ZM17.8867 15.6646H20.1133V17.8911H17.8867V15.6646ZM13.4336 15.6646H15.6602V17.8911H13.4336V15.6646Z" fill="white"/>
</g>
<defs>
<clipPath id="clip0_101_2913">
<rect width="38" height="38" fill="white"/>
</clipPath>
</defs>
</svg>
