<svg width="24" height="18" viewBox="0 0 24 18" fill="none" xmlns="http://www.w3.org/2000/svg">
<path d="M12 -3.05176e-05C6.45514 -3.05176e-05 1.75076 3.76013 0 8.99999C1.75076 14.2398 6.45514 18 12 18C17.5449 18 22.2492 14.2398 24 8.99999C22.2492 3.76013 17.5449 -3.05176e-05 12 -3.05176e-05ZM12 15C8.68626 15 6 12.3137 6 8.99999C6 5.68625 8.68626 2.99999 12 2.99999C15.3137 2.99999 18 5.68625 18 8.99999C18 12.3136 15.3137 15 12 15Z" fill="#99A2AC"/>
<path d="M14.1213 6.87867C15.2929 8.05024 15.2929 9.94974 14.1213 11.1213C12.9497 12.2929 11.0502 12.2929 9.87867 11.1213C8.70711 9.94974 8.70711 8.05024 9.87867 6.87867C11.0502 5.70711 12.9497 5.70711 14.1213 6.87867Z" fill="#99A2AC"/>
</svg>
