<svg width="22" height="22" viewBox="0 0 22 22" fill="none" xmlns="http://www.w3.org/2000/svg">
<path d="M14.6667 0C10.6231 0 7.3333 3.28982 7.3333 7.33335C7.3333 7.81494 7.38568 8.30908 7.48907 8.80546L6.66995 9.21499C6.53834 9.28078 6.44617 9.40612 6.42245 9.55157C6.39873 9.69702 6.44664 9.84474 6.55093 9.94903L7.14355 10.5417L6.68521 11H5.9583C5.70496 11 5.49996 11.205 5.49996 11.4583V12.1853L4.85186 12.8333H4.125C3.87166 12.8333 3.66665 13.0384 3.66665 13.2917V14.0186L3.01855 14.6667H2.29165C2.03831 14.6667 1.8333 14.8717 1.8333 15.125V15.8519L0.134277 17.5509C0.0483398 17.6369 0 17.7532 0 17.875V21.5417C0 21.795 0.205004 22 0.458348 22H4.125C4.24673 22 4.36313 21.9517 4.44907 21.8657L11.4583 14.8564L12.051 15.4491C12.1548 15.5534 12.303 15.6022 12.4484 15.5775C12.5939 15.5538 12.7192 15.4616 12.785 15.33L13.1945 14.5109C17.858 15.4831 22 11.8585 22 7.33335C22 3.28982 18.7102 0 14.6667 0ZM9.94907 12.6991L3.53238 19.1157C3.44287 19.2052 3.32557 19.25 3.2083 19.25C3.09104 19.25 2.97378 19.2052 2.88423 19.1157C2.70518 18.9367 2.70518 18.6466 2.88423 18.4676L9.30089 12.051C9.47994 11.8719 9.76998 11.8719 9.94898 12.051C10.1281 12.23 10.1281 12.52 9.94907 12.6991ZM16.9583 7.33335C15.6948 7.33335 14.6667 6.30523 14.6667 5.0417C14.6667 3.77816 15.6948 2.75 16.9583 2.75C18.2219 2.75 19.25 3.77811 19.25 5.04165C19.25 6.30519 18.2219 7.33335 16.9583 7.33335Z" fill="#99A2AC"/>
</svg>
