<svg width="30" height="30" viewBox="0 0 30 30" fill="none" xmlns="http://www.w3.org/2000/svg">
<path d="M17.7778 3.92627C17.8162 3.87777 17.8637 3.83733 17.9178 3.80729C17.9718 3.77724 18.0312 3.75819 18.0927 3.75122C18.1541 3.74425 18.2163 3.7495 18.2757 3.76667C18.3351 3.78384 18.3905 3.81259 18.4387 3.85127L19.4513 4.66314L15.7491 9.37502H18.1341L20.9166 5.83502L23.2641 7.71564C23.3133 7.75502 23.354 7.80392 23.3839 7.85941C23.4137 7.9149 23.4321 7.97584 23.4379 8.03858C23.4436 8.10133 23.4367 8.1646 23.4175 8.22461C23.3982 8.28461 23.3671 8.34013 23.3259 8.38783L22.4747 9.37502H24.9253C25.2481 8.88729 25.3768 8.2965 25.2863 7.7187C25.1957 7.14089 24.8924 6.61781 24.4359 6.2522L19.6106 2.38783C19.3696 2.19483 19.0928 2.05137 18.7961 1.96569C18.4994 1.88001 18.1888 1.85379 17.8819 1.88855C17.5751 1.92331 17.2782 2.01836 17.0082 2.16824C16.7382 2.31811 16.5005 2.51986 16.3088 2.76189L11.0709 9.37502H13.4625L17.7778 3.92627ZM19.6875 17.8125C19.4389 17.8125 19.2004 17.9113 19.0246 18.0871C18.8488 18.2629 18.75 18.5014 18.75 18.75C18.75 18.9987 18.8488 19.2371 19.0246 19.4129C19.2004 19.5887 19.4389 19.6875 19.6875 19.6875H22.5C22.7486 19.6875 22.9871 19.5887 23.1629 19.4129C23.3387 19.2371 23.4375 18.9987 23.4375 18.75C23.4375 18.5014 23.3387 18.2629 23.1629 18.0871C22.9871 17.9113 22.7486 17.8125 22.5 17.8125H19.6875ZM5.625 6.56252C4.87908 6.56252 4.16371 6.85883 3.63626 7.38628C3.10882 7.91372 2.8125 8.62909 2.8125 9.37502V22.9688C2.8125 24.0876 3.25697 25.1607 4.04814 25.9519C4.83931 26.743 5.91237 27.1875 7.03125 27.1875H22.9688C24.0876 27.1875 25.1607 26.743 25.9519 25.9519C26.743 25.1607 27.1875 24.0876 27.1875 22.9688V14.5313C27.1875 13.4124 26.743 12.3393 25.9519 11.5482C25.1607 10.757 24.0876 10.3125 22.9688 10.3125H5.625C5.37636 10.3125 5.1379 10.2137 4.96209 10.0379C4.78627 9.86211 4.6875 9.62366 4.6875 9.37502C4.6875 9.12638 4.78627 8.88792 4.96209 8.7121C5.1379 8.53629 5.37636 8.43752 5.625 8.43752H9.91875L11.415 6.56252H5.625ZM4.6875 22.9688V12.0281C4.98094 12.1313 5.29688 12.1875 5.625 12.1875H22.9688C23.5904 12.1875 24.1865 12.4344 24.626 12.874C25.0656 13.3135 25.3125 13.9097 25.3125 14.5313V22.9688C25.3125 23.5904 25.0656 24.1865 24.626 24.626C24.1865 25.0656 23.5904 25.3125 22.9688 25.3125H7.03125C6.40965 25.3125 5.81351 25.0656 5.37397 24.626C4.93443 24.1865 4.6875 23.5904 4.6875 22.9688Z" fill="white"/>
</svg>
