<svg width="28" height="28" viewBox="0 0 28 28" fill="none" xmlns="http://www.w3.org/2000/svg">
<path d="M14 0.875C11.4473 0.875 8.99914 1.88906 7.1941 3.6941C5.38906 5.49914 4.375 7.94729 4.375 10.5C4.375 15.5837 12.95 26.3375 13.3175 26.8012C13.3995 26.9034 13.5034 26.9859 13.6215 27.0426C13.7396 27.0993 13.869 27.1287 14 27.1287C14.131 27.1287 14.2604 27.0993 14.3785 27.0426C14.4966 26.9859 14.6005 26.9034 14.6825 26.8012C15.05 26.3375 23.625 15.5837 23.625 10.5C23.625 7.94729 22.6109 5.49914 20.8059 3.6941C19.0009 1.88906 16.5527 0.875 14 0.875ZM14 24.8325C11.2962 21.3325 6.125 13.895 6.125 10.5C6.125 8.41142 6.95468 6.40838 8.43153 4.93153C9.90838 3.45468 11.9114 2.625 14 2.625C16.0886 2.625 18.0916 3.45468 19.5685 4.93153C21.0453 6.40838 21.875 8.41142 21.875 10.5C21.875 13.895 16.7037 21.315 14 24.8325Z" fill="white"/>
<path d="M14 4.375C12.9616 4.375 11.9466 4.68291 11.0833 5.25978C10.2199 5.83666 9.54699 6.6566 9.14963 7.61591C8.75227 8.57522 8.64831 9.63082 8.85088 10.6492C9.05345 11.6676 9.55347 12.6031 10.2877 13.3373C11.0219 14.0715 11.9574 14.5715 12.9758 14.7741C13.9942 14.9767 15.0498 14.8727 16.0091 14.4754C16.9684 14.078 17.7883 13.4051 18.3652 12.5417C18.9421 11.6784 19.25 10.6633 19.25 9.62499C19.25 8.23261 18.6969 6.89725 17.7123 5.91269C16.7277 4.92812 15.3924 4.375 14 4.375ZM14 13.125C13.3078 13.125 12.6311 12.9197 12.0555 12.5351C11.4799 12.1505 11.0313 11.6039 10.7664 10.9644C10.5015 10.3248 10.4322 9.62111 10.5673 8.94218C10.7023 8.26325 11.0356 7.63961 11.5251 7.15012C12.0146 6.66064 12.6383 6.3273 13.3172 6.19225C13.9961 6.0572 14.6999 6.12651 15.3394 6.39142C15.9789 6.65633 16.5256 7.10493 16.9101 7.6805C17.2947 8.25607 17.5 8.93276 17.5 9.62499C17.5 10.5533 17.1313 11.4435 16.4749 12.0999C15.8185 12.7562 14.9283 13.125 14 13.125Z" fill="white"/>
</svg>
