<svg width="38" height="38" viewBox="0 0 38 38" fill="none" xmlns="http://www.w3.org/2000/svg">
<path d="M23.7989 5.97424H3.17028C2.56217 5.97424 2.08456 6.45185 2.08456 7.05996V20.0885C2.08456 20.6856 2.56217 21.1743 3.17028 21.1743H23.7989C24.396 21.1743 24.8846 20.6856 24.8846 20.0885V7.05996C24.8846 6.45185 24.3961 5.97424 23.7989 5.97424Z" fill="white"/>
<path d="M2.0737 26.6028C2.0737 27.1998 2.56227 27.6885 3.15941 27.6885H4.33199C4.78799 25.4193 6.65542 23.6388 8.97885 23.3457H3.17027C2.77931 23.3457 2.42124 23.2804 2.0737 23.1501V26.6028Z" fill="white"/>
<path d="M33.4943 27.6886H34.8406C35.4377 27.6886 35.9263 27.1999 35.9263 26.6028V17.092C35.9263 15.3873 31.768 11.4028 29.4881 11.4028H27.0561V20.0886C27.0561 21.8799 25.5903 23.3457 23.799 23.3457H10.3902C12.7137 23.6388 14.5811 25.4193 15.037 27.6886H22.789C23.2886 25.1914 25.4926 23.2914 28.1417 23.2914C30.78 23.2913 32.9948 25.1913 33.4943 27.6886ZM28.8365 14.0736C34.3954 13.8022 34.1675 19.5456 34.1675 19.5456H28.8365V14.0736Z" fill="white"/>
<path d="M28.1374 32.0253C29.9482 32.0253 31.4162 30.5573 31.4162 28.7464C31.4162 26.9356 29.9482 25.4676 28.1374 25.4676C26.3265 25.4676 24.8585 26.9356 24.8585 28.7464C24.8585 30.5573 26.3265 32.0253 28.1374 32.0253Z" fill="white"/>
<path d="M9.68023 32.0253C11.4911 32.0253 12.9591 30.5573 12.9591 28.7464C12.9591 26.9356 11.4911 25.4676 9.68023 25.4676C7.86936 25.4676 6.40137 26.9356 6.40137 28.7464C6.40137 30.5573 7.86936 32.0253 9.68023 32.0253Z" fill="white"/>
</svg>
