<svg width="28" height="20" viewBox="0 0 28 20" fill="none" xmlns="http://www.w3.org/2000/svg">
<path d="M25.5391 0.15625H2.46094C1.10677 0.15625 0 1.25815 0 2.61719V17.3828C0 18.7423 1.10748 19.8438 2.46094 19.8438H25.5391C26.8932 19.8438 28 18.7419 28 17.3828V2.61719C28 1.25782 26.8927 0.15625 25.5391 0.15625ZM25.1612 1.79688C24.3655 2.59515 15.0196 11.9715 14.6357 12.3567C14.315 12.6784 13.6852 12.6786 13.3643 12.3567L2.83883 1.79688H25.1612ZM1.64062 17.0812V2.91879L8.69887 10L1.64062 17.0812ZM2.83883 18.2031L9.85709 11.162L12.2024 13.5149C13.1634 14.4791 14.8369 14.4787 15.7977 13.5149L18.143 11.1621L25.1612 18.2031H2.83883ZM26.3594 17.0812L19.3011 10L26.3594 2.91879V17.0812Z" fill="white"/>
</svg>
