<svg width="32" height="32" viewBox="0 0 32 32" fill="none" xmlns="http://www.w3.org/2000/svg">
<g clip-path="url(#clip0_101_2931)">
<path d="M7.39201 1.84985C7.0652 1.75729 6.71364 1.8486 6.47345 2.08892L3.60003 4.96234C3.38897 5.1734 3.29104 5.47234 3.33629 5.76746C3.38154 6.06252 3.5646 6.31833 3.82928 6.45639L12.7609 11.1164L18.7949 5.08234L7.39201 1.84985Z" fill="white"/>
<path d="M25.5435 28.1706C25.6815 28.4352 25.9374 28.6183 26.2324 28.6636C26.2799 28.6709 26.3274 28.6744 26.3746 28.6744C26.6213 28.6744 26.8603 28.5769 27.0375 28.3998L29.9109 25.5264C30.1512 25.2861 30.2426 24.9347 30.1499 24.6078L26.9175 13.2048L20.8834 19.239L25.5435 28.1706Z" fill="white"/>
<path d="M29.1414 0.0229701C27.1781 0.286906 25.3253 1.20365 23.9245 2.60445L10.0244 16.5046L3.65359 14.7406C3.32834 14.6505 2.97941 14.7424 2.74053 14.9813L0.27455 17.4471C0.0661761 17.6554 -0.0320733 17.9496 0.009239 18.2414C0.0504887 18.5331 0.226613 18.7885 0.484549 18.9308L8.59475 23.4051L13.069 31.5153C13.2113 31.7733 13.4667 31.9493 13.7584 31.9906C13.8023 31.9968 13.8462 31.9998 13.8899 31.9998C14.1367 31.9998 14.3757 31.9023 14.5527 31.7252L17.0186 29.2593C17.2574 29.0205 17.3494 28.6717 17.2593 28.3462L15.4951 21.9755L29.3954 8.0753C30.7962 6.67455 31.713 4.82182 31.9769 2.85858C32.0826 2.07252 31.8216 1.29996 31.2607 0.739153C30.6998 0.178282 29.9273 -0.0824667 29.1414 0.0229701Z" fill="white"/>
</g>
<defs>
<clipPath id="clip0_101_2931">
<rect width="32" height="32" fill="white"/>
</clipPath>
</defs>
</svg>
