<svg width="18" height="18" viewBox="0 0 18 18" fill="none" xmlns="http://www.w3.org/2000/svg">
<path d="M17.5999 15.6421L13.8896 11.9319C14.7837 10.6411 15.231 9.20215 15.231 7.61578C15.231 6.58454 15.0308 5.59828 14.6304 4.65722C14.2303 3.716 13.6894 2.90474 13.0079 2.22325C12.3264 1.54176 11.5152 1.00083 10.5742 0.600656C9.63288 0.200369 8.64669 0.000244141 7.61546 0.000244141C6.5843 0.000244141 5.59803 0.200369 4.65697 0.600656C3.71576 1.00083 2.9045 1.54176 2.223 2.22325C1.54144 2.90474 1.00059 3.71615 0.600374 4.65722C0.200125 5.59839 0 6.58454 0 7.61578C0 8.64694 0.200125 9.63286 0.600374 10.5742C1.00055 11.5153 1.54144 12.3264 2.223 13.0079C2.9045 13.6896 3.71591 14.2303 4.65697 14.6307C5.59815 15.0309 6.5843 15.231 7.61546 15.231C9.20217 15.231 10.6409 14.7837 11.9317 13.8896L15.6421 17.589C15.9017 17.863 16.2258 18.0001 16.6155 18.0001C16.9905 18.0001 17.3152 17.863 17.589 17.589C17.863 17.3151 18 16.9905 18 16.6156C18.0002 16.2336 17.8667 15.9089 17.5999 15.6421ZM11.0392 11.0391C10.0909 11.9876 8.94972 12.4618 7.61546 12.4618C6.28142 12.4618 5.14027 11.9875 4.19189 11.0391C3.24352 10.0908 2.76935 8.94982 2.76935 7.61555C2.76935 6.28151 3.24363 5.14017 4.19189 4.19199C5.14008 3.24358 6.28142 2.76944 7.61546 2.76944C8.94957 2.76944 10.0907 3.24376 11.0392 4.19199C11.9876 5.14017 12.4618 6.28151 12.4618 7.61555C12.4618 8.94982 11.9875 10.0908 11.0392 11.0391Z" fill="white"/>
</svg>
