<svg width="34" height="34" viewBox="0 0 34 34" fill="none" xmlns="http://www.w3.org/2000/svg">
<path d="M10.624 1.06287C9.75021 1.06287 9.03228 1.78177 9.03228 2.65554V3.18471H21.2521C22.7114 3.18471 23.9073 4.3879 23.9073 5.84407V11.691H26.0323V2.65554C26.0323 1.78177 25.3102 1.06287 24.4365 1.06287H10.624ZM7.43542 4.24723C6.56167 4.24723 5.84375 4.97032 5.84375 5.84407V11.691H7.96771V10.0661C7.96771 9.81356 8.18727 9.55975 8.51556 9.55975C9.96068 9.53867 11.1065 8.41134 11.1521 6.99169C11.1404 6.59293 11.3892 6.37532 11.6854 6.37532H16.999C17.3015 6.37569 17.5426 6.62821 17.5292 6.93048C17.5426 8.34597 18.6478 9.48372 20.0485 9.5535C20.4038 9.5535 20.7337 9.7334 20.7167 10.093V11.691H22.8438V5.84407C22.8438 4.97032 22.1258 4.24723 21.2521 4.24723H7.43542ZM4.25207 7.43576C2.49851 7.43576 1.06863 8.8626 1.06353 10.615C1.0635 10.6183 1.0635 10.6217 1.06353 10.625V29.751C1.06353 31.5077 2.49538 32.9385 4.25207 32.9385H29.75C30.6238 32.9385 31.3417 32.2164 31.3417 31.3427V27.625H23.9073C21.2807 27.625 19.1271 25.4714 19.1271 22.8448C19.1271 20.2182 21.2807 18.0646 23.9073 18.0646H31.3417V14.3427C31.3417 13.4689 30.6238 12.75 29.75 12.75H4.25207C3.06562 12.75 2.12603 11.8115 2.12603 10.625C2.12603 9.43857 3.06562 8.49895 4.25207 8.49895H4.78125V7.43643L4.25207 7.43576ZM27.0938 7.43576V8.49827H27.624C27.9275 8.49827 28.1564 8.72825 28.1583 9.03572V11.6868H29.2208V9.03162C29.2208 9.03028 29.2208 9.02891 29.2208 9.02757C29.2154 8.15782 28.4977 7.43588 27.624 7.43588L27.0938 7.43576ZM12.1783 7.4398C11.9428 9.06084 10.6514 10.3538 9.03021 10.5889V11.6919H19.6542V10.5878C18.0315 10.354 16.7386 9.06188 16.503 7.4398H12.1783ZM23.9073 19.1273C21.8563 19.1273 20.1896 20.794 20.1896 22.845C20.1896 24.896 21.8563 26.5627 23.9073 26.5627H31.3417C32.2154 26.5627 32.9385 25.8437 32.9385 24.97V20.7189C32.9385 19.8451 32.2154 19.1272 31.3417 19.1272L23.9073 19.1273ZM23.9073 21.2481C24.781 21.2481 25.499 21.9712 25.499 22.845C25.499 23.7187 24.781 24.4366 23.9073 24.4366C23.0335 24.4366 22.3104 23.7187 22.3104 22.845C22.3104 21.9712 23.0335 21.2481 23.9073 21.2481Z" fill="white"/>
</svg>
