<svg width="50" height="50" viewBox="0 0 50 50" fill="none" xmlns="http://www.w3.org/2000/svg">
<path d="M25 50C11.2152 50 0 38.7848 0 25C0 11.2152 11.2152 0 25 0C38.7848 0 50 11.2152 50 25C50 38.7848 38.7848 50 25 50ZM25 3.125C12.9379 3.125 3.125 12.9379 3.125 25C3.125 37.0621 12.9379 46.875 25 46.875C37.0621 46.875 46.875 37.0621 46.875 25C46.875 12.9379 37.0621 3.125 25 3.125ZM21.4172 33.9172L37.0422 18.2922C37.6527 17.6816 37.6527 16.693 37.0422 16.0828C36.4316 15.4727 35.443 15.4723 34.8328 16.0828L20.3125 30.6031L15.1672 25.4578C14.5566 24.8473 13.568 24.8473 12.9578 25.4578C12.3477 26.0684 12.3473 27.057 12.9578 27.6672L19.2078 33.9172C19.5129 34.2223 19.9129 34.375 20.3125 34.375C20.7121 34.375 21.1121 34.2223 21.4172 33.9172Z" fill="#7ADBA3"/>
</svg>
