<svg width="74" height="74" viewBox="0 0 74 74" fill="none" xmlns="http://www.w3.org/2000/svg">
<rect width="74" height="74" rx="37" fill="#4AB8E6"/>
<path d="M54.9591 38.7004L52.3883 24.1204C52.1613 22.8331 51.0419 21.9275 49.7786 21.9275C49.6256 21.9275 27.2651 25.8562 27.2651 25.8562C25.8221 26.1106 24.8586 27.4867 25.113 28.9297L25.3609 30.3353H45.5413C48.1015 30.3353 50.1843 32.4182 50.1843 34.9783V36.8388V41.3524V42.2364L52.807 41.7739C54.25 41.5195 55.2136 40.1435 54.9591 38.7004V38.7004Z" fill="white"/>
<path d="M48.1946 43.3423H21V49.4192C21 50.8844 22.1879 52.0723 23.6531 52.0723H45.5414C47.0067 52.0723 48.1946 50.8844 48.1946 49.4192V43.3423ZM28.8988 49.682H24.3852C23.8357 49.682 23.3903 49.2365 23.3903 48.6871C23.3903 48.1376 23.8357 47.6922 24.3852 47.6922H28.8988C29.4483 47.6922 29.8937 48.1376 29.8937 48.6871C29.8937 49.2365 29.4483 49.682 28.8988 49.682V49.682Z" fill="white"/>
<path d="M21.0032 34.8492H48.1912C48.1237 33.444 46.9632 32.3254 45.5413 32.3254H23.653C22.2312 32.3254 21.0706 33.444 21.0032 34.8492V34.8492Z" fill="white"/>
<path d="M21 36.8389H48.1946V41.3525H21V36.8389Z" fill="white"/>
</svg>
