<svg width="74" height="74" viewBox="0 0 74 74" fill="none" xmlns="http://www.w3.org/2000/svg">
<rect width="74" height="74" rx="37" fill="#4AB8E6"/>
<g clip-path="url(#clip0_119_687)">
<path d="M53.9391 48.5729L51.8273 40.1259C51.7945 39.9941 51.7429 39.8711 51.6774 39.7581C51.7981 39.4232 51.8644 39.0623 51.8644 38.6864V24.7623C51.8644 23.0163 50.444 21.5957 48.6979 21.5957H25.301C23.5547 21.5957 22.1343 23.0162 22.1343 24.7623V38.6862C22.1343 39.0622 22.2005 39.4231 22.3215 39.758C22.2559 39.8711 22.204 39.994 22.1712 40.1257L20.0423 48.6409C19.9364 49.0648 20.0317 49.514 20.3007 49.8584C20.5696 50.2029 20.9822 50.4042 21.4193 50.4042H52.5794C52.5799 50.4042 52.5804 50.4042 52.5807 50.4042C53.3647 50.4042 54 49.7687 54 48.985C53.9999 48.8417 53.9787 48.7033 53.9391 48.5729ZM40.596 48.1854C40.5957 48.1854 40.5953 48.1856 40.5948 48.1854H33.4037C33.3207 48.1854 33.2419 48.1486 33.1888 48.0849C33.1356 48.0214 33.1132 47.9373 33.128 47.8555L33.6884 44.7456C33.7124 44.6121 33.8285 44.5152 33.9641 44.5152H40.0345C40.1701 44.5152 40.2862 44.6123 40.3101 44.7456L40.8658 47.8306C40.8724 47.8545 40.876 47.8794 40.876 47.9052C40.8762 48.0601 40.7507 48.1854 40.596 48.1854ZM49.0985 38.6864C49.0985 38.8482 49.0019 38.9875 48.8636 39.0509H25.1349C24.9964 38.9877 24.8998 38.8482 24.8998 38.6864V24.7623C24.8998 24.5412 25.0797 24.3614 25.3009 24.3614H48.6977C48.9186 24.3614 49.0986 24.5412 49.0986 24.7623L49.0985 38.6864Z" fill="white"/>
<path d="M37.7706 31.138L38.6571 30.8962C38.8326 30.8483 38.9576 30.6929 38.9662 30.511C38.975 30.3292 38.8656 30.1625 38.6956 30.0979L34.608 28.5475C34.4535 28.489 34.2788 28.5265 34.1619 28.6433C34.0449 28.7602 34.0075 28.9348 34.0661 29.0894L35.6165 33.1769C35.6811 33.3471 35.8479 33.4564 36.0296 33.4476C36.2115 33.4389 36.3669 33.3141 36.4147 33.1385L36.6565 32.2521L38.7248 34.3201C38.8888 34.4842 39.1547 34.4842 39.3189 34.3201L39.8388 33.8002C40.0029 33.6361 40.0029 33.3701 39.8388 33.206L37.7706 31.138Z" fill="white"/>
</g>
<defs>
<clipPath id="clip0_119_687">
<rect width="34" height="34" fill="white" transform="translate(20 19)"/>
</clipPath>
</defs>
</svg>
