<svg width="73" height="73" viewBox="0 0 73 73" fill="none" xmlns="http://www.w3.org/2000/svg">
<path d="M36.5 73C56.6584 73 73 56.6584 73 36.5C73 16.3416 56.6584 0 36.5 0C16.3416 0 0 16.3416 0 36.5C0 56.6584 16.3416 73 36.5 73Z" fill="#003473"/>
<path d="M35.5446 47.4841C38.7191 44.6186 40.7224 40.458 40.7224 35.8368C40.7224 31.2146 38.7185 27.0563 35.5446 24.1591C32.7707 21.633 29.0751 20.0918 25.0074 20.0918C16.3196 20.0918 9.26172 27.1484 9.26172 35.8362C9.26172 44.5263 16.3196 51.5508 25.0074 51.5508C29.0753 51.5514 32.7707 50.0114 35.5446 47.4841Z" fill="#009DDD"/>
<path d="M35.5447 47.4842C38.7192 44.6187 40.7225 40.4581 40.7225 35.837C40.7225 31.2147 38.7186 27.0564 35.5447 24.1592V47.4842Z" fill="#009DDD"/>
<path d="M46.1147 20.0923C42.0464 20.0923 38.3485 21.6335 35.5447 24.1595C34.9908 24.6829 34.4676 25.2379 33.973 25.8246H37.1463C37.5785 26.3467 37.9791 26.9334 38.3485 27.4873H32.7706C32.4329 28.0423 32.1245 28.5979 31.8462 29.1513H39.2418C39.4896 29.7052 39.7346 30.2618 39.9195 30.8157H31.2019C31.0163 31.3702 30.8618 31.9263 30.739 32.5102H40.3824C40.5974 33.558 40.7225 34.6986 40.7225 35.8373C40.7225 37.5629 40.4435 39.2584 39.9197 40.8295H31.202C31.3853 41.3834 31.6014 41.939 31.8469 42.4935H39.2426C38.966 43.0485 38.6876 43.6335 38.3486 44.1575H32.7708C33.1425 44.7431 33.542 45.2974 33.973 45.8214H37.1463C36.6541 46.407 36.1295 46.962 35.5447 47.4854C38.3486 50.0127 42.0464 51.5526 46.1147 51.5526C54.8036 51.5526 61.8292 44.5282 61.8292 35.8381C61.8285 27.1491 54.8036 20.0923 46.1147 20.0923Z" fill="#ED1C2E"/>
<path d="M56.4042 39.2264C56.4042 38.9485 56.652 38.7336 56.9286 38.7336C57.2065 38.7336 57.4214 38.9487 57.4214 39.2264C57.4214 39.5047 57.2064 39.7508 56.9286 39.7508C56.652 39.7508 56.4042 39.5047 56.4042 39.2264ZM56.9286 39.6275C57.1437 39.6275 57.298 39.4425 57.298 39.2264C57.298 39.0109 57.1435 38.8564 56.9286 38.8564C56.7125 38.8564 56.5292 39.0109 56.5292 39.2264C56.5292 39.4425 56.7125 39.6275 56.9286 39.6275ZM56.8669 39.4425H56.7441V39.0107H56.9285C56.989 39.0107 57.0207 39.0107 57.0523 39.0419C57.0828 39.0724 57.1129 39.1024 57.1129 39.1341C57.1129 39.1963 57.0824 39.258 57.0206 39.258L57.1129 39.4423H56.989L56.9285 39.2878H56.8669V39.4425ZM56.8669 39.1963H56.9285C56.9285 39.1963 56.959 39.1963 56.989 39.1963C56.989 39.1963 56.989 39.1646 56.989 39.1341V39.1024C56.9585 39.1024 56.9285 39.1024 56.898 39.1024H56.8663V39.1963H56.8669V39.1963Z" fill="white"/>
<path d="M23.0352 39.7508H21.0641L22.2346 33.6191L19.5547 39.7508H17.7658L17.4585 33.6496L16.288 39.7508H14.5002L16.0108 31.7708H19.0907L19.2446 36.6996L21.4042 31.7708H24.5746L23.0352 39.7508Z" fill="white"/>
<path d="M44.9125 39.6593C44.3576 39.8121 43.9569 39.8737 43.4941 39.8737C42.5091 39.8737 41.9529 39.3809 41.9529 38.4575C41.9529 38.2719 41.9846 38.0863 42.0145 37.8708L42.1373 37.2236L42.2318 36.7315L43.1246 31.7715H45.0652L44.7892 33.2492H45.8047L45.528 34.822H44.5114L44.0187 37.5326C43.987 37.656 43.9571 37.7487 43.9571 37.8098C43.9571 38.1493 44.1732 38.302 44.636 38.302C44.8511 38.302 45.0344 38.2715 45.1594 38.2408L44.9125 39.6593Z" fill="white"/>
<path d="M50.6126 33.312C50.4581 33.2491 50.4282 33.2491 50.3976 33.2491C50.3042 33.2174 50.2431 33.2174 50.2431 33.188C50.1802 33.188 50.1192 33.188 50.028 33.188C49.3796 33.188 48.918 33.4652 48.3319 34.2346L48.5163 33.2491H46.7285L45.5273 39.7508H47.4995C48.2079 35.7746 48.4856 35.0668 49.4401 35.0668C49.5017 35.0668 49.5957 35.0979 49.6869 35.0979L49.903 35.1591L50.6126 33.312Z" fill="white"/>
<path d="M37.1463 35.3129C37.1463 36.1147 37.6092 36.6997 38.6569 37.1014C39.4586 37.4391 39.582 37.5325 39.582 37.8409C39.582 38.2409 39.2114 38.4265 38.4414 38.4265C37.8558 38.4265 37.3002 38.3337 36.6536 38.1498L36.407 39.6598H36.5003L36.8381 39.7514C36.9609 39.7514 37.1452 39.7825 37.3615 39.7825C37.8243 39.8431 38.1943 39.8431 38.4716 39.8431C40.536 39.8431 41.5221 39.1653 41.5221 37.687C41.5221 36.793 41.1215 36.2698 40.1049 35.8691C39.2721 35.5608 39.1804 35.4685 39.1804 35.1603C39.1804 34.8225 39.5193 34.6369 40.1665 34.6369C40.5359 34.6369 41.0897 34.6686 41.5826 34.7286L41.8605 33.2502C41.3371 33.1592 40.5671 33.1274 40.1349 33.1274C37.9174 33.1264 37.1463 34.1118 37.1463 35.3129Z" fill="white"/>
<path d="M29.3824 39.7509H27.7796L27.8114 39.0719C27.3186 39.5964 26.6408 39.8425 25.7469 39.8425C24.7003 39.8425 23.9602 39.1342 23.9602 38.0865C23.9602 36.5142 25.2218 35.5903 27.4114 35.5903C27.6251 35.5903 27.9035 35.5903 28.2118 35.622C28.2734 35.4065 28.2734 35.313 28.2734 35.2214C28.2734 34.7903 27.9334 34.6358 27.0095 34.6358C26.4545 34.6358 25.8401 34.6974 25.4079 34.7903L25.1313 34.883L24.9457 34.913L25.2223 33.4653C26.2096 33.2175 26.8251 33.1265 27.5657 33.1265C29.2589 33.1265 30.1224 33.7726 30.1224 35.0047C30.1224 35.3442 30.0919 35.5908 29.9691 36.2997L29.5685 38.6109L29.5069 39.0109L29.4441 39.351L29.4136 39.5654L29.3824 39.7509ZM27.9652 36.8536C27.7479 36.8231 27.6569 36.8231 27.5341 36.8231C26.424 36.8231 25.8702 37.162 25.8702 37.8098C25.8702 38.2098 26.1157 38.4876 26.5468 38.4876C27.3497 38.4876 27.9341 37.8098 27.9652 36.8536Z" fill="white"/>
<path d="M35.8212 39.5963C35.1445 39.7813 34.4973 39.8729 33.8184 39.8729C31.6335 39.8729 30.4912 38.8557 30.4912 36.9456C30.4912 34.7267 31.9402 33.094 33.9123 33.094C35.5139 33.094 36.533 34.0185 36.533 35.4357C36.533 35.9278 36.4701 36.3923 36.3169 37.0385H32.4018C32.4018 37.1613 32.4018 37.1918 32.4018 37.2546C32.4018 37.9941 32.9567 38.3941 34.0969 38.3941C34.8057 38.3941 35.4525 38.2713 36.1296 37.9947L35.8212 39.5963ZM34.7746 35.7457C34.7746 35.6219 34.7746 35.4979 34.7746 35.4063C34.7746 34.8829 34.4345 34.5734 33.8501 34.5734C33.2334 34.5734 32.8022 35.0046 32.6162 35.7457H34.7746V35.7457Z" fill="white"/>
<path d="M56.7125 36.7923C56.4041 38.9478 54.8947 39.9034 52.8908 39.9034C50.7046 39.9034 49.8119 38.5795 49.8119 36.9157C49.8119 34.6352 51.3201 33.0623 53.6618 33.0623C55.6958 33.0623 56.7741 34.3567 56.7741 35.99C56.7747 36.393 56.7747 36.423 56.7125 36.7923ZM54.6796 35.9595C54.6796 35.2818 54.4018 34.6674 53.6025 34.6674C52.6141 34.6674 51.9986 35.8368 51.9986 36.8851C51.9986 37.7484 52.4308 38.3334 53.1087 38.3334C53.5398 38.3334 54.4643 37.7484 54.6182 36.7623C54.6796 36.5146 54.6796 36.2385 54.6796 35.9595Z" fill="white"/>
</svg>
