<svg width="73" height="73" viewBox="0 0 73 73" fill="none" xmlns="http://www.w3.org/2000/svg">
<path d="M36.4999 72.9999C56.6575 72.9999 72.9984 56.6589 72.9984 36.5014C72.9984 16.3438 56.6575 0.00292969 36.4999 0.00292969C16.3424 0.00292969 0.00146484 16.3438 0.00146484 36.5014C0.00146484 56.6589 16.3424 72.9999 36.4999 72.9999Z" fill="#F7F4F4"/>
<g clip-path="url(#clip0_123_328)">
<path d="M31.2407 50.1676C31.136 49.8746 30.9463 49.6748 30.8089 49.4151C30.4753 48.9689 30.0828 48.5827 29.6904 48.1965C29.553 48.1498 29.4941 48.0167 29.3633 47.9634C29.2782 47.8502 29.1409 47.7902 29.0297 47.7037C28.8073 47.5305 28.5652 47.384 28.3167 47.2375C27.8457 46.9312 27.2635 46.7381 26.6879 46.5383C26.0664 46.3851 25.4123 46.2719 24.732 46.1787C24.0582 46.0788 23.3845 45.9856 22.8742 45.7126C22.5799 45.626 22.364 45.4595 22.1089 45.3263C21.8734 45.1665 21.6183 45.0333 21.422 44.8335C21.18 44.687 21.0296 44.4406 20.8399 44.2409C20.7744 44.1077 20.6632 44.0278 20.6109 43.8813C20.5455 43.8546 20.5259 43.7747 20.4866 43.7281C20.4408 43.6748 20.4408 43.5683 20.3623 43.5483C20.3231 43.8213 20.3362 44.1476 20.3623 44.4273C20.395 44.5472 20.4081 44.6937 20.4408 44.8136C20.4605 44.9201 20.5586 45.0932 20.5193 45.1732C18.4784 45.0666 16.987 44.4073 15.6918 43.5416C15.0507 43.1088 14.5013 42.5827 13.991 42.0167C13.7686 41.7037 13.5266 41.404 13.3303 41.0577C13.1276 40.7181 12.9575 40.3319 12.7743 39.9723C12.4734 39.1931 12.1921 38.394 12.0875 37.4151C11.9501 36.5028 11.9828 35.3374 12.1856 34.4917C12.2576 34.0255 12.408 33.6326 12.5388 33.2264C12.6239 33.04 12.7155 32.8535 12.7939 32.6604C12.9052 32.5006 12.964 32.2808 13.1014 32.141C13.4743 31.4284 14.0303 30.8957 14.5994 30.3829C15.2143 29.9234 15.9142 29.5505 16.758 29.3241C17.5692 29.1376 18.6747 29.1043 19.5512 29.2975C21.3305 29.6704 22.6714 30.4828 23.7966 31.5217C24.9348 32.5405 25.8113 33.8324 26.4131 35.404C27.0346 36.8957 27.2504 39.2198 26.6944 40.9112C26.4655 40.778 26.2365 40.6515 26.0076 40.525C25.7328 40.4451 25.4646 40.3518 25.1441 40.3186C24.7582 40.3119 24.3787 40.3186 24.1302 40.4451C24.6339 40.3918 25.0394 40.5316 25.3534 40.6515C25.5366 40.7248 25.6412 40.7714 25.7851 40.858C26.0664 41.0244 26.315 41.1776 26.5243 41.404C27.1196 41.9368 27.5448 42.6426 27.7476 43.5749C27.7476 43.6016 27.7803 43.5949 27.7737 43.5483C27.7999 43.5416 27.813 43.5217 27.8261 43.495C27.8588 43.4551 27.898 43.4151 27.9307 43.3685C27.9961 43.2886 28.0616 43.2087 28.1073 43.1088C28.2447 42.9423 28.3559 42.7558 28.4606 42.5627C28.7026 42.2031 28.8858 41.7902 29.0951 41.3974C29.4549 40.5583 29.7492 39.6526 29.9324 38.6271C30.2987 36.3496 29.8604 34.192 29.0951 32.6005C28.3101 30.9956 27.2112 29.7103 25.7917 28.7447C24.3591 27.7858 22.6845 27.0799 20.382 27.0133C20.3689 26.9667 20.3493 27.02 20.3035 27.0133C19.0868 26.9734 18.1056 27.1465 17.1309 27.3996C16.6795 27.5527 16.2086 27.6859 15.8095 27.8924C15.3516 28.0455 14.9853 28.2986 14.5667 28.485C14.4162 28.6315 14.1873 28.7048 14.0303 28.8446C13.8275 28.9445 13.677 29.1043 13.4743 29.2042C13.1472 29.4972 12.8005 29.757 12.48 30.0566C12.166 30.3496 11.8912 30.6826 11.5903 30.9889C11.5445 31.0955 11.466 31.1687 11.3876 31.2486C11.3352 31.3485 11.2698 31.4351 11.1848 31.5083C11.1521 31.6282 11.0474 31.6748 11.0081 31.7947C10.9231 31.8613 10.9035 31.9945 10.8054 32.0544C10.7203 32.2675 10.5699 32.4207 10.4718 32.6204C10.354 32.8136 10.2624 33.0267 10.1447 33.2131C9.96153 33.646 9.76529 34.0655 9.61483 34.5316C9.45784 34.9845 9.32701 35.4639 9.23543 35.9834C9.13731 36.4695 9.04573 37.1021 9.05882 37.6149C8.9934 37.8013 9.04573 38.1476 9.05882 38.3674C9.05882 38.4073 9.03265 38.4207 9.03265 38.4473C9.03265 38.6937 9.09806 38.9934 9.11115 39.1465C9.16348 39.7126 9.2616 40.2386 9.41859 40.6981C9.51671 41.2109 9.72604 41.6104 9.87649 42.0699C10.1054 42.4562 10.2624 42.9157 10.5372 43.2619C10.74 43.6682 11.0278 43.9878 11.3025 44.3208C11.5969 44.6404 11.8912 44.9667 12.2445 45.2264C12.8921 45.7991 13.6509 46.2586 14.4816 46.6515C16.0319 47.4173 18.3476 47.9168 20.4277 47.7903C20.9576 47.717 21.494 47.6504 21.9781 47.5305C22.4229 47.3641 22.9396 47.2642 23.476 47.1976C24.6993 47.1177 25.759 47.2309 26.7009 47.5106C27.656 47.7703 28.4802 48.1632 29.1932 48.6759C29.5726 48.9023 29.8866 49.1954 30.2071 49.475C30.5342 49.7614 30.7959 50.1143 31.0968 50.434C31.136 50.5538 31.2145 50.6404 31.2734 50.747C31.3519 50.8335 31.3126 51.0333 31.5023 51.0067C31.6201 50.8868 31.4827 50.7137 31.4762 50.5672C31.3584 50.4406 31.3322 50.2742 31.2407 50.1676Z" fill="#FCB316"/>
<path d="M26.4917 43.0821C26.4655 43.0821 26.459 43.1021 26.4394 43.1087C26.3936 43.2086 26.4132 43.3684 26.4394 43.4683C26.5767 43.7547 26.6225 44.1276 26.9234 44.2475C27.0673 44.2008 27.0543 43.9877 27.0477 43.7813C26.9823 43.5283 26.8907 43.3018 26.7403 43.1354C26.6356 43.0954 26.5636 43.0288 26.4917 43.0821ZM24.7124 43.8079C24.7124 43.7946 24.6928 43.7813 24.6863 43.8079C24.4377 43.7746 24.3527 43.9145 24.2284 44.0144C24.0125 44.5937 24.3592 45.1598 24.9675 45.1531C25.2096 45.0932 25.36 44.9334 25.3993 44.6603C25.3666 44.1742 25.1638 43.8612 24.7124 43.8079Z" fill="#FCB316"/>
<path d="M39.3782 41.9634C39.4763 42.383 39.6856 42.6826 39.9211 42.9623C40.1566 43.242 40.4314 43.4751 40.765 43.6482C41.079 43.848 41.4191 44.0145 41.8116 44.1277C42.0013 44.1943 42.1845 44.2742 42.4199 44.3008C42.5835 44.3941 42.7797 44.4407 42.7928 44.6804C42.7863 44.9668 42.5966 45.0733 42.3545 45.1266C42.1125 45.0733 41.8116 45.08 41.6088 44.9867C41.0986 44.9268 40.6865 44.7603 40.2547 44.6071C39.4305 44.2808 38.7371 43.808 38.1615 43.2287C38.0438 43.0289 37.8802 42.8691 37.7559 42.676C37.6316 42.4828 37.5466 42.2498 37.4158 42.0567C36.4084 41.9235 35.7216 41.4573 35.1198 40.9179C34.5637 40.272 34.1189 39.4995 33.9358 38.474C33.7199 37.4884 33.7853 36.2564 34.0404 35.3042C34.5964 33.4595 35.7608 32.2342 37.9587 32.0677C38.5671 32.0877 39.0969 32.161 39.581 32.3474C40.0716 32.5272 40.536 32.8602 40.9023 33.2065C40.9351 33.2331 40.9481 33.2398 40.9678 33.2731C41.0463 33.3863 41.236 33.5461 41.3406 33.686C41.3602 33.7126 41.3537 33.7592 41.3733 33.7925C41.4126 33.8524 41.4714 33.8791 41.5107 33.9323C41.5303 33.9656 41.5238 34.0056 41.5434 34.0322C41.5696 34.0722 41.6023 34.1321 41.6415 34.2054C41.6546 34.232 41.7004 34.252 41.7069 34.272C41.7658 34.3852 41.792 34.525 41.8443 34.6515C41.8966 34.7847 41.9686 34.8979 42.0144 35.0311C42.1452 35.424 42.2302 35.8902 42.2826 36.3696C42.4134 37.7548 42.1452 38.9934 41.6415 39.9124C41.406 40.3918 41.079 40.7847 40.693 41.1177C40.3398 41.4973 39.8557 41.7237 39.3782 41.9634ZM37.7559 33.2931C37.4616 33.313 37.285 33.4529 37.0429 33.5328C36.8859 33.6793 36.6897 33.7925 36.5719 33.979C36.3757 34.0922 36.3234 34.3452 36.1664 34.4917C36.0355 34.8247 35.9113 35.1976 35.8262 35.6305C35.7477 36.0567 35.6954 36.5361 35.6889 37.0089C35.6823 38.1943 35.9309 39.373 36.3953 40.0722C36.6701 40.4118 37.0037 40.6915 37.4092 40.8979C37.6447 40.9179 37.8279 40.9978 38.083 41.0045C38.2269 40.9512 38.4624 41.0045 38.554 40.8979C38.7633 40.9113 38.8091 40.7714 38.9923 40.7581C39.0904 40.6582 39.195 40.5783 39.3324 40.5184C39.4567 40.3785 39.5744 40.2387 39.7053 40.1055C39.7707 40.0056 39.8099 39.8658 39.9081 39.7925C40.4968 38.6471 40.5622 36.5494 40.1762 35.2176C40.0323 34.7315 39.8296 34.3386 39.6006 34.0123C39.352 33.7525 39.0577 33.5328 38.7241 33.3596C38.4559 33.2997 38.2008 33.2265 37.8475 33.2598C37.8279 33.2598 37.8083 33.2664 37.8148 33.2931C37.8017 33.2931 37.7821 33.2931 37.7559 33.2931ZM44.8926 32.3275C45.4224 32.3474 46.0439 32.2808 46.5149 32.3608C46.6195 32.5272 46.5803 32.727 46.5803 32.9135C46.6195 35.4373 46.5803 38.1477 46.5803 40.7248C46.5803 40.9312 46.5868 41.1443 46.5803 41.3441C46.5737 41.5172 46.6195 41.7037 46.5149 41.8635C46.2794 41.9235 45.9392 41.8968 45.6383 41.8968C45.3178 41.8968 45.0038 41.9434 44.7945 41.8302C44.7356 38.7803 44.7356 35.4906 44.7945 32.434C44.8076 32.3807 44.8403 32.3474 44.8926 32.3275ZM48.9483 32.3275H50.5378C50.6817 32.5272 50.7275 32.8269 50.7733 33.1199C51.2508 34.9712 51.7218 36.8291 52.1601 38.727C52.2647 38.7403 52.232 38.6138 52.2647 38.5539C52.3105 38.5073 52.2844 38.3941 52.3302 38.3474C52.3498 38.1943 52.4414 38.1144 52.4348 37.9346C52.5526 37.7015 52.5918 37.3818 52.703 37.1421C52.8404 36.5827 53.0235 36.0633 53.1805 35.5239C53.331 34.9645 53.5338 34.4584 53.6515 33.8724C53.8739 33.3996 53.9263 32.7537 54.1944 32.3275H54.8682C55.1102 32.7936 55.2018 33.4129 55.4111 33.9124C55.5485 34.4717 55.7382 34.9778 55.8821 35.5306C56.2157 36.6027 56.5624 37.6615 56.8633 38.767C57.0007 38.5605 57.0007 38.2143 57.0988 37.9745C57.1577 37.7015 57.21 37.4218 57.3016 37.1821C57.5633 36.0899 57.8118 34.9912 58.1127 33.9457C58.2239 33.3996 58.3351 32.8402 58.5183 32.3608C58.9108 32.3008 59.5126 32.3008 59.9051 32.3608C59.9378 32.767 59.7546 33.2065 59.6369 33.5661C59.5715 34.0056 59.4145 34.3452 59.3294 34.7714C59.0874 35.5505 58.9042 36.3763 58.6557 37.1488C58.466 37.9745 58.2109 38.7337 58.0146 39.5594C57.8838 39.939 57.7922 40.3585 57.6745 40.7648C57.5436 41.1377 57.4979 41.5972 57.3016 41.9035H56.3531C56.1111 41.4706 56.026 40.8846 55.8102 40.4251C55.3392 38.9068 54.8159 37.4484 54.358 35.9168C54.201 36.0833 54.201 36.4229 54.0898 36.636C54.0178 36.8957 53.9459 37.1554 53.8543 37.3952C53.7235 37.9212 53.5272 38.3674 53.416 38.9068C53.2263 39.3796 53.089 39.9057 52.945 40.4251C52.7488 40.878 52.6768 41.4573 52.4348 41.8702C52.1862 41.9501 51.7938 41.8835 51.4863 41.9035C51.2508 41.6305 51.2247 41.1377 51.0807 40.7648C50.9695 40.3785 50.891 39.9523 50.7471 39.5927C50.564 38.7537 50.2892 38.0145 50.1061 37.1821C49.864 36.4096 49.6547 35.6038 49.4323 34.8047C49.308 34.4251 49.2165 34.0189 49.0922 33.6327C49.0333 33.2198 48.7586 32.8469 48.8567 32.3941C48.8698 32.3608 48.909 32.3408 48.9483 32.3275ZM62.2992 32.3275C62.8291 32.3474 63.444 32.2808 63.9215 32.3608C64.0392 32.7204 63.9869 33.1066 63.9869 33.4928V40.7181C63.9869 41.111 64.0327 41.4906 63.9215 41.8569C63.5552 41.8968 63.0188 41.9168 62.5674 41.8902C62.4366 41.8835 62.2796 41.9235 62.1946 41.8236C62.0768 41.464 62.1292 41.0844 62.1292 40.6848V33.5328C62.1292 33.0999 62.0899 32.6804 62.1946 32.3941C62.2207 32.3608 62.26 32.3408 62.2992 32.3275Z" fill="#0269B3"/>
</g>
<defs>
<clipPath id="clip0_123_328">
<rect width="55" height="24" fill="white" transform="translate(9 27)"/>
</clipPath>
</defs>
</svg>
