<svg width="73" height="73" viewBox="0 0 73 73" fill="none" xmlns="http://www.w3.org/2000/svg">
<path d="M36.4999 72.9999C56.6575 72.9999 72.9984 56.6589 72.9984 36.5014C72.9984 16.3438 56.6575 0.00292969 36.4999 0.00292969C16.3424 0.00292969 0.00146484 16.3438 0.00146484 36.5014C0.00146484 56.6589 16.3424 72.9999 36.4999 72.9999Z" fill="white"/>
<g clip-path="url(#clip0_119_688)">
<path d="M31.2407 50.1676C31.136 49.8746 30.9463 49.6748 30.8089 49.4151C30.4753 48.9689 30.0828 48.5827 29.6904 48.1965C29.553 48.1498 29.4941 48.0167 29.3633 47.9634C29.2782 47.8502 29.1409 47.7902 29.0297 47.7037C28.8073 47.5305 28.5652 47.384 28.3167 47.2375C27.8457 46.9312 27.2635 46.7381 26.6879 46.5383C26.0664 46.3851 25.4123 46.2719 24.732 46.1787C24.0582 46.0788 23.3845 45.9856 22.8742 45.7126C22.5799 45.626 22.364 45.4595 22.1089 45.3263C21.8734 45.1665 21.6183 45.0333 21.422 44.8335C21.18 44.687 21.0296 44.4406 20.8399 44.2409C20.7744 44.1077 20.6632 44.0278 20.6109 43.8813C20.5455 43.8546 20.5259 43.7747 20.4866 43.7281C20.4408 43.6748 20.4408 43.5683 20.3623 43.5483C20.3231 43.8213 20.3362 44.1476 20.3623 44.4273C20.395 44.5472 20.4081 44.6937 20.4408 44.8136C20.4605 44.9201 20.5586 45.0932 20.5193 45.1732C18.4784 45.0666 16.987 44.4073 15.6918 43.5416C15.0507 43.1088 14.5013 42.5827 13.991 42.0167C13.7686 41.7037 13.5266 41.404 13.3303 41.0577C13.1276 40.7181 12.9575 40.3319 12.7743 39.9723C12.4734 39.1931 12.1921 38.394 12.0875 37.4151C11.9501 36.5028 11.9828 35.3374 12.1856 34.4917C12.2576 34.0255 12.408 33.6326 12.5388 33.2264C12.6239 33.04 12.7155 32.8535 12.7939 32.6604C12.9052 32.5006 12.964 32.2808 13.1014 32.141C13.4743 31.4284 14.0303 30.8957 14.5994 30.3829C15.2143 29.9234 15.9142 29.5505 16.758 29.3241C17.5692 29.1376 18.6747 29.1043 19.5512 29.2975C21.3305 29.6704 22.6714 30.4828 23.7966 31.5217C24.9348 32.5405 25.8113 33.8324 26.4131 35.404C27.0346 36.8957 27.2504 39.2198 26.6944 40.9112C26.4655 40.778 26.2365 40.6515 26.0076 40.525C25.7328 40.4451 25.4646 40.3518 25.1441 40.3186C24.7581 40.3119 24.3787 40.3185 24.1302 40.4451C24.6339 40.3918 25.0394 40.5316 25.3534 40.6515C25.5366 40.7248 25.6412 40.7714 25.7851 40.858C26.0664 41.0244 26.315 41.1776 26.5243 41.404C27.1196 41.9368 27.5448 42.6426 27.7476 43.5749C27.7476 43.6016 27.7803 43.5949 27.7737 43.5483C27.7999 43.5416 27.813 43.5217 27.8261 43.495C27.8588 43.4551 27.898 43.4151 27.9307 43.3685C27.9961 43.2886 28.0616 43.2087 28.1073 43.1088C28.2447 42.9423 28.3559 42.7558 28.4606 42.5627C28.7026 42.2031 28.8858 41.7902 29.0951 41.3974C29.4549 40.5583 29.7492 39.6526 29.9324 38.6271C30.2987 36.3496 29.8604 34.192 29.0951 32.6005C28.3101 30.9956 27.2112 29.7103 25.7917 28.7447C24.3591 27.7858 22.6845 27.0799 20.382 27.0133C20.3689 26.9667 20.3493 27.02 20.3035 27.0133C19.0868 26.9734 18.1056 27.1465 17.1309 27.3996C16.6795 27.5527 16.2086 27.6859 15.8095 27.8924C15.3516 28.0455 14.9853 28.2986 14.5667 28.485C14.4162 28.6315 14.1873 28.7048 14.0303 28.8446C13.8275 28.9445 13.677 29.1043 13.4743 29.2042C13.1472 29.4972 12.8005 29.757 12.48 30.0566C12.166 30.3496 11.8912 30.6826 11.5903 30.9889C11.5445 31.0955 11.466 31.1687 11.3876 31.2486C11.3352 31.3485 11.2698 31.4351 11.1848 31.5083C11.1521 31.6282 11.0474 31.6748 11.0081 31.7947C10.9231 31.8613 10.9035 31.9945 10.8054 32.0544C10.7203 32.2675 10.5699 32.4207 10.4718 32.6204C10.354 32.8136 10.2624 33.0267 10.1447 33.2131C9.96153 33.646 9.76529 34.0655 9.61483 34.5316C9.45784 34.9845 9.32701 35.4639 9.23543 35.9834C9.13731 36.4695 9.04573 37.1021 9.05882 37.6149C8.9934 37.8013 9.04573 38.1476 9.05882 38.3674C9.05882 38.4073 9.03265 38.4207 9.03265 38.4473C9.03265 38.6937 9.09806 38.9934 9.11115 39.1465C9.16348 39.7126 9.2616 40.2386 9.41859 40.6981C9.51671 41.2109 9.72604 41.6104 9.87649 42.0699C10.1054 42.4562 10.2624 42.9157 10.5372 43.2619C10.74 43.6682 11.0278 43.9878 11.3025 44.3208C11.5969 44.6404 11.8912 44.9667 12.2445 45.2264C12.8921 45.7991 13.6509 46.2586 14.4816 46.6515C16.0319 47.4173 18.3476 47.9168 20.4277 47.7903C20.9576 47.717 21.494 47.6504 21.9781 47.5305C22.4229 47.3641 22.9396 47.2642 23.476 47.1976C24.6993 47.1177 25.759 47.2309 26.7009 47.5106C27.656 47.7703 28.4802 48.1632 29.1932 48.6759C29.5726 48.9023 29.8866 49.1954 30.2071 49.475C30.5342 49.7614 30.7959 50.1143 31.0968 50.434C31.136 50.5538 31.2145 50.6404 31.2734 50.747C31.3519 50.8335 31.3126 51.0333 31.5023 51.0067C31.6201 50.8868 31.4827 50.7137 31.4762 50.5672C31.3584 50.4406 31.3322 50.2742 31.2407 50.1676V50.1676Z" fill="#FCB316"/>
<path d="M26.4916 43.0821C26.4654 43.0821 26.4589 43.1021 26.4392 43.1087C26.3935 43.2086 26.4131 43.3684 26.4392 43.4683C26.5766 43.7547 26.6224 44.1276 26.9233 44.2475C27.0672 44.2008 27.0541 43.9877 27.0476 43.7813C26.9822 43.5283 26.8906 43.3018 26.7401 43.1354C26.6355 43.0954 26.5635 43.0288 26.4916 43.0821V43.0821ZM24.7123 43.8079C24.7123 43.7946 24.6927 43.7813 24.6861 43.8079C24.4376 43.7746 24.3525 43.9145 24.2283 44.0144C24.0124 44.5937 24.3591 45.1598 24.9674 45.1531C25.2095 45.0932 25.3599 44.9334 25.3992 44.6603C25.3665 44.1742 25.1637 43.8612 24.7123 43.8079V43.8079Z" fill="#FCB316"/>
<path d="M39.3783 41.9634C39.4764 42.383 39.6858 42.6826 39.9213 42.9623C40.1567 43.242 40.4315 43.4751 40.7651 43.6482C41.0791 43.848 41.4192 44.0145 41.8117 44.1277C42.0014 44.1943 42.1846 44.2742 42.4201 44.3008C42.5836 44.3941 42.7798 44.4407 42.7929 44.6804C42.7864 44.9668 42.5967 45.0733 42.3547 45.1266C42.1126 45.0733 41.8117 45.08 41.6089 44.9867C41.0987 44.9268 40.6866 44.7603 40.2549 44.6071C39.4307 44.2808 38.7373 43.808 38.1616 43.2287C38.0439 43.0289 37.8803 42.8691 37.7561 42.676C37.6318 42.4828 37.5467 42.2498 37.4159 42.0567C36.4085 41.9235 35.7217 41.4573 35.1199 40.9179C34.5639 40.272 34.119 39.4995 33.9359 38.474C33.72 37.4884 33.7854 36.2564 34.0405 35.3042C34.5966 33.4595 35.7609 32.2342 37.9588 32.0677C38.5672 32.0877 39.097 32.161 39.5811 32.3474C40.0717 32.5272 40.5361 32.8602 40.9025 33.2065C40.9352 33.2331 40.9483 33.2398 40.9679 33.2731C41.0464 33.3863 41.2361 33.5461 41.3407 33.686C41.3604 33.7126 41.3538 33.7592 41.3734 33.7925C41.4127 33.8524 41.4716 33.8791 41.5108 33.9323C41.5304 33.9656 41.5239 34.0056 41.5435 34.0322C41.5697 34.0722 41.6024 34.1321 41.6416 34.2054C41.6547 34.232 41.7005 34.252 41.7071 34.272C41.7659 34.3852 41.7921 34.525 41.8444 34.6515C41.8968 34.7847 41.9687 34.8979 42.0145 35.0311C42.1453 35.424 42.2304 35.8902 42.2827 36.3696C42.4135 37.7548 42.1453 38.9934 41.6416 39.9124C41.4062 40.3918 41.0791 40.7847 40.6931 41.1177C40.3399 41.4973 39.8558 41.7237 39.3783 41.9634V41.9634ZM37.7561 33.2931C37.4617 33.313 37.2851 33.4529 37.043 33.5328C36.8861 33.6793 36.6898 33.7925 36.5721 33.979C36.3758 34.0922 36.3235 34.3452 36.1665 34.4917C36.0357 34.8247 35.9114 35.1976 35.8263 35.6305C35.7479 36.0567 35.6955 36.5361 35.689 37.0089C35.6824 38.1943 35.931 39.373 36.3954 40.0722C36.6702 40.4118 37.0038 40.6915 37.4094 40.8979C37.6449 40.9179 37.828 40.9978 38.0831 41.0045C38.227 40.9512 38.4625 41.0045 38.5541 40.8979C38.7634 40.9113 38.8092 40.7714 38.9924 40.7581C39.0905 40.6582 39.1952 40.5783 39.3325 40.5184C39.4568 40.3785 39.5746 40.2387 39.7054 40.1055C39.7708 40.0056 39.8101 39.8658 39.9082 39.7925C40.4969 38.6471 40.5623 36.5494 40.1764 35.2176C40.0325 34.7315 39.8297 34.3386 39.6007 34.0123C39.3522 33.7525 39.0578 33.5328 38.7242 33.3596C38.456 33.2997 38.2009 33.2265 37.8476 33.2598C37.828 33.2598 37.8084 33.2664 37.8149 33.2931C37.8018 33.2931 37.7822 33.2931 37.7561 33.2931V33.2931ZM44.8927 32.3275C45.4226 32.3474 46.044 32.2808 46.515 32.3608C46.6196 32.5272 46.5804 32.727 46.5804 32.9135C46.6196 35.4373 46.5804 38.1477 46.5804 40.7248C46.5804 40.9312 46.5869 41.1443 46.5804 41.3441C46.5739 41.5172 46.6196 41.7037 46.515 41.8635C46.2795 41.9235 45.9393 41.8968 45.6384 41.8968C45.3179 41.8968 45.0039 41.9434 44.7946 41.8302C44.7357 38.7803 44.7357 35.4906 44.7946 32.434C44.8077 32.3807 44.8404 32.3474 44.8927 32.3275V32.3275ZM48.9484 32.3275H50.5379C50.6818 32.5272 50.7276 32.8269 50.7734 33.1199C51.2509 34.9712 51.7219 36.8291 52.1602 38.727C52.2649 38.7403 52.2322 38.6138 52.2649 38.5539C52.3107 38.5073 52.2845 38.3941 52.3303 38.3474C52.3499 38.1943 52.4415 38.1144 52.4349 37.9346C52.5527 37.7015 52.5919 37.3818 52.7031 37.1421C52.8405 36.5827 53.0237 36.0633 53.1807 35.5239C53.3311 34.9645 53.5339 34.4584 53.6516 33.8724C53.874 33.3996 53.9264 32.7537 54.1946 32.3275H54.8683C55.1104 32.7936 55.2019 33.4129 55.4113 33.9124C55.5486 34.4717 55.7383 34.9778 55.8822 35.5306C56.2159 36.6027 56.5626 37.6615 56.8635 38.767C57.0008 38.5605 57.0008 38.2143 57.0989 37.9745C57.1578 37.7015 57.2102 37.4218 57.3017 37.1821C57.5634 36.0899 57.812 34.9912 58.1129 33.9457C58.2241 33.3996 58.3353 32.8402 58.5184 32.3608C58.9109 32.3008 59.5127 32.3008 59.9052 32.3608C59.9379 32.767 59.7547 33.2065 59.637 33.5661C59.5716 34.0056 59.4146 34.3452 59.3296 34.7714C59.0875 35.5505 58.9044 36.3763 58.6558 37.1488C58.4661 37.9745 58.211 38.7337 58.0147 39.5594C57.8839 39.939 57.7923 40.3585 57.6746 40.7648C57.5438 41.1377 57.498 41.5972 57.3017 41.9035H56.3532C56.1112 41.4706 56.0262 40.8846 55.8103 40.4251C55.3393 38.9068 54.816 37.4484 54.3581 35.9168C54.2011 36.0833 54.2011 36.4229 54.0899 36.636C54.018 36.8957 53.946 37.1554 53.8544 37.3952C53.7236 37.9212 53.5273 38.3674 53.4161 38.9068C53.2264 39.3796 53.0891 39.9057 52.9452 40.4251C52.7489 40.878 52.677 41.4573 52.4349 41.8702C52.1864 41.9501 51.7939 41.8835 51.4864 41.9035C51.2509 41.6305 51.2248 41.1377 51.0809 40.7648C50.9697 40.3785 50.8912 39.9523 50.7473 39.5927C50.5641 38.7537 50.2894 38.0145 50.1062 37.1821C49.8642 36.4096 49.6548 35.6038 49.4324 34.8047C49.3081 34.4251 49.2166 34.0189 49.0923 33.6327C49.0334 33.2198 48.7587 32.8469 48.8568 32.3941C48.8699 32.3608 48.9091 32.3408 48.9484 32.3275V32.3275ZM62.2993 32.3275C62.8292 32.3474 63.4441 32.2808 63.9216 32.3608C64.0394 32.7204 63.987 33.1066 63.987 33.4928V40.7181C63.987 41.111 64.0328 41.4906 63.9216 41.8569C63.5553 41.8968 63.0189 41.9168 62.5675 41.8902C62.4367 41.8835 62.2797 41.9235 62.1947 41.8236C62.0769 41.464 62.1293 41.0844 62.1293 40.6848V33.5328C62.1293 33.0999 62.09 32.6804 62.1947 32.3941C62.2209 32.3608 62.2601 32.3408 62.2993 32.3275V32.3275Z" fill="#0269B3"/>
</g>
<defs>
<clipPath id="clip0_119_688">
<rect width="55" height="24" fill="white" transform="translate(9 27)"/>
</clipPath>
</defs>
</svg>
