<svg width="40" height="40" viewBox="0 0 40 40" fill="none" xmlns="http://www.w3.org/2000/svg">
<g clip-path="url(#clip0_101_781)">
<path d="M17.6561 37.5781C19.5978 37.5781 21.1718 36.0041 21.1718 34.0625C21.1718 32.1209 19.5978 30.5469 17.6561 30.5469C15.7145 30.5469 14.1405 32.1209 14.1405 34.0625C14.1405 36.0041 15.7145 37.5781 17.6561 37.5781Z" fill="#4AB8E6"/>
<path d="M29.453 37.5781C31.3946 37.5781 32.9686 36.0041 32.9686 34.0625C32.9686 32.1209 31.3946 30.5469 29.453 30.5469C27.5114 30.5469 25.9374 32.1209 25.9374 34.0625C25.9374 36.0041 27.5114 37.5781 29.453 37.5781Z" fill="#4AB8E6"/>
<path d="M1.17187 4.76569H6.05879L11.7164 24.5713L11.2727 25.4588C10.1042 27.7931 11.8004 30.5468 14.4175 30.5468H34.1404C34.7882 30.5468 35.3123 30.0227 35.3123 29.3749C35.3123 28.7272 34.7882 28.2031 34.1404 28.2031H14.4175C13.5473 28.2031 12.9785 27.2867 13.3692 26.507L13.6931 25.8593H34.1404C34.6634 25.8593 35.1235 25.5126 35.2677 25.009L39.9552 8.60285C40.0559 8.24926 39.9849 7.86927 39.7641 7.5752C39.542 7.28224 39.1953 7.10943 38.828 7.10943H9.16581L8.06948 3.27218C7.92527 2.76867 7.46527 2.42188 6.94223 2.42188H1.17187C0.524138 2.42188 0 2.94601 0 3.59374C0 4.24147 0.524138 4.76569 1.17187 4.76569V4.76569Z" fill="#4AB8E6"/>
</g>
<defs>
<clipPath id="clip0_101_781">
<rect width="40" height="40" fill="white"/>
</clipPath>
</defs>
</svg>
