<svg width="74" height="74" viewBox="0 0 74 74" fill="none" xmlns="http://www.w3.org/2000/svg">
<rect width="74" height="74" rx="37" fill="#4AB8E6"/>
<path d="M49.0209 24.9792C45.8099 21.7683 41.5409 20 37 20C32.4591 20 28.1901 21.7683 24.9791 24.9792C21.7683 28.1901 20 32.4591 20 37C20 41.5409 21.7683 45.8099 24.9791 49.0208C28.1901 52.2317 32.4591 54 37 54C41.5409 54 45.8099 52.2317 49.0209 49.0208C52.2317 45.8099 54 41.5409 54 37C54 32.4591 52.2317 28.1901 49.0209 24.9792ZM37 52.0078C32.5595 52.0078 28.5639 50.0686 25.8137 46.9934C27.5187 42.4733 31.8833 39.2578 37 39.2578C33.6992 39.2578 31.0234 36.582 31.0234 33.2812C31.0234 29.9805 33.6992 27.3047 37 27.3047C40.3008 27.3047 42.9766 29.9805 42.9766 33.2812C42.9766 36.582 40.3008 39.2578 37 39.2578C42.1167 39.2578 46.4813 42.4733 48.1863 46.9934C45.4361 50.0686 41.4405 52.0078 37 52.0078Z" fill="white"/>
</svg>
