<svg width="73" height="73" viewBox="0 0 73 73" fill="none" xmlns="http://www.w3.org/2000/svg">
<path d="M36.4999 72.9999C56.6575 72.9999 72.9984 56.6589 72.9984 36.5014C72.9984 16.3438 56.6575 0.00292969 36.4999 0.00292969C16.3424 0.00292969 0.00146484 16.3438 0.00146484 36.5014C0.00146484 56.6589 16.3424 72.9999 36.4999 72.9999Z" fill="#F3F2F2"/>
<path d="M27.0281 43.5029L29.8209 27.0112H34.3426L31.5498 43.5029H27.0281Z" fill="#293688"/>
<path d="M47.6467 27.4375C46.7506 27.1033 45.3467 26.7454 43.5934 26.7454C39.1247 26.7454 35.9769 28.9827 35.9498 32.188C35.925 34.5572 38.1968 35.8787 39.9131 36.6682C41.6731 37.475 42.265 37.9926 42.2564 38.7136C42.2454 39.819 40.8502 40.3244 39.5501 40.3244C37.7405 40.3237 36.7786 40.0742 35.2934 39.4588L34.7107 39.196L34.0757 42.8879C35.1321 43.3484 37.0857 43.7478 39.1137 43.768C43.8665 43.7669 46.9533 41.5573 46.9879 38.1334C47.0052 36.2576 45.8001 34.8299 43.1911 33.6526C41.6103 32.8907 40.6421 32.3818 40.6526 31.6084C40.6526 30.9232 41.4726 30.1902 43.2424 30.1902C44.7212 30.1671 45.7926 30.4876 46.6277 30.8218L47.0323 31.0121L47.6467 27.4375Z" fill="#293688"/>
<path d="M55.356 27.0112C54.2726 27.0112 53.4899 27.3421 53.0138 28.4158L46.3125 43.5035H51.0999L52.0307 40.9764H57.7506L58.282 43.5035H62.538L58.8146 27.0117H55.3562L55.356 27.0112ZM53.3009 37.6764C53.6744 36.7267 55.1019 33.067 55.1019 33.067C55.076 33.1103 55.4735 32.1127 55.7018 31.4937L56.0078 32.9149C56.0078 32.9149 56.8728 36.8517 57.0544 37.6769H53.3009V37.6764Z" fill="#293688"/>
<path d="M18.7822 38.3161L18.3839 36.0552C17.5587 33.4198 14.9975 30.5682 12.1274 29.1395L16.1225 43.5029H20.911L28.0924 27.0112H23.3049L18.7822 38.3161Z" fill="#293688"/>
<path d="M7.21191 27.0112V27.2775C12.8858 28.6422 16.8249 32.0921 18.3843 36.0554L16.7448 28.4187C16.4711 27.375 15.6417 27.0476 14.6602 27.0114L7.21191 27.0112Z" fill="#F7981D"/>
<path d="M36.4976 72.9998C50.585 72.9998 62.7998 65.0144 68.884 53.3274H4.11182C10.1964 65.0144 22.4108 72.9998 36.4976 72.9998Z" fill="#F7981D"/>
<path d="M36.4975 0C22.6337 0 10.5755 7.72941 4.39697 19.1145H68.5993C62.4199 7.73003 50.3613 0 36.4975 0Z" fill="#293688"/>
</svg>
