<svg width="40" height="40" viewBox="0 0 40 40" fill="none" xmlns="http://www.w3.org/2000/svg">
<path d="M12.4988 1.25049C11.4709 1.25049 10.6262 2.09626 10.6262 3.12422V3.74678H25.0025C26.7193 3.74678 28.1262 5.16229 28.1262 6.87543V13.7541H30.6262V3.12422C30.6262 2.09626 29.7767 1.25049 28.7488 1.25049H12.4988ZM8.74758 4.9968C7.71964 4.9968 6.87503 5.84749 6.87503 6.87543V13.7541H9.37381V11.8425C9.37381 11.5454 9.63211 11.2468 10.0183 11.2468C11.7185 11.222 13.0665 9.89575 13.1201 8.22558C13.1063 7.75645 13.3991 7.50044 13.7476 7.50044H19.9988C20.3547 7.50086 20.6384 7.79796 20.6226 8.15356C20.6384 9.81885 21.9387 11.1574 23.5865 11.2395C24.0045 11.2395 24.3927 11.4511 24.3726 11.8742V13.7541H26.875V6.87543C26.875 5.84749 26.0304 4.9968 25.0025 4.9968H8.74758ZM5.00247 8.74801C2.93946 8.74801 1.25725 10.4266 1.25125 12.4883C1.25121 12.4922 1.25121 12.4961 1.25125 12.5001V35.0013C1.25125 37.068 2.93577 38.7513 5.00247 38.7513H35C36.028 38.7513 36.8726 37.9018 36.8726 36.8738V32.5H28.1262C25.0361 32.5 22.5025 29.9664 22.5025 26.8762C22.5025 23.7861 25.0361 21.2525 28.1262 21.2525H36.8726V16.8738C36.8726 15.8458 36.028 15 35 15H5.00247C3.60665 15 2.50125 13.8959 2.50125 12.5001C2.50125 11.1043 3.60665 9.99882 5.00247 9.99882H5.62503V8.7488L5.00247 8.74801ZM31.875 8.74801V9.99803H32.4988C32.8559 9.99803 33.1252 10.2686 33.1275 10.6303V13.7492H34.3775V10.6255C34.3775 10.6239 34.3775 10.6223 34.3775 10.6207C34.3711 9.59749 33.5268 8.74815 32.4988 8.74815L31.875 8.74801ZM14.3274 8.75277C14.0504 10.6599 12.5311 12.181 10.6238 12.4576V13.7552H23.1226V12.4563C21.2136 12.1813 19.6925 10.6611 19.4153 8.75277H14.3274ZM28.1262 22.5028C25.7133 22.5028 23.7525 24.4636 23.7525 26.8765C23.7525 29.2895 25.7133 31.2503 28.1262 31.2503H36.8726C37.9005 31.2503 38.7512 30.4044 38.7512 29.3765V24.3752C38.7512 23.3473 37.9005 22.5026 36.8726 22.5026L28.1262 22.5028ZM28.1262 24.9978C29.1542 24.9978 29.9988 25.8486 29.9988 26.8765C29.9988 27.9045 29.1542 28.749 28.1262 28.749C27.0983 28.749 26.2476 27.9045 26.2476 26.8765C26.2476 25.8486 27.0983 24.9978 28.1262 24.9978Z" fill="#4AB8E6"/>
</svg>
