<svg width="243" height="55" viewBox="0 0 243 55" fill="none" xmlns="http://www.w3.org/2000/svg">
<path d="M27.4869 55C42.6675 55 54.9738 42.6878 54.9738 27.5C54.9738 12.3122 42.6675 0 27.4869 0C12.3063 0 0 12.3122 0 27.5C0 42.6878 12.3063 55 27.4869 55Z" fill="#E2EBEE"/>
<path d="M50.7155 30.7009L47.14 32.7662L41.9972 35.7373L39.115 37.4019L14.3925 51.6829C11.6572 50.1979 9.20253 48.2616 7.12692 45.973V5.52221C7.12692 4.23369 7.93016 3.22339 8.98264 2.81153C9.75673 2.50849 10.6654 2.52869 11.4879 3.00349L13.2089 3.998L33.5279 15.7353L41.9972 20.627L45.3516 22.5644L50.7155 25.6635C52.6554 26.7825 52.6554 29.5808 50.7155 30.7009Z" fill="#7ADBA3"/>
<path d="M47.136 32.7662L41.9932 35.7372L39.111 37.4019L35.1854 33.3667H13.1521L33.5239 15.7352L36.6259 13.0503C40.7041 13.0503 44.1932 15.981 44.8978 20.0005L45.3476 22.5641L47.136 32.7662Z" fill="#2C8DB6"/>
<path d="M36.3533 30.7851H25.6952L16.6074 40.1256C14.1401 42.6615 9.88021 40.4814 10.4913 36.9957L13.4717 20.0001C14.1764 15.9816 17.6649 13.0503 21.7429 13.0503H36.3535C41.2484 13.0503 45.2166 17.0203 45.2166 21.9176C45.2165 26.8151 41.2484 30.7851 36.3533 30.7851Z" fill="#4AB8E6"/>
<path d="M26.7586 21.0758H23.449V17.7646H20.8686V21.0758H17.559V23.6575H20.8686V26.9688H23.449V23.6575H26.7586V21.0758Z" fill="white"/>
<path d="M36.1285 20.5712C36.996 20.5712 37.6993 19.8676 37.6993 18.9997C37.6993 18.1318 36.996 17.4282 36.1285 17.4282C35.2611 17.4282 34.5578 18.1318 34.5578 18.9997C34.5578 19.8676 35.2611 20.5712 36.1285 20.5712Z" fill="white"/>
<path d="M36.1285 27.0342C36.996 27.0342 37.6993 26.3307 37.6993 25.4628C37.6993 24.5949 36.996 23.8914 36.1285 23.8914C35.2611 23.8914 34.5578 24.5949 34.5578 25.4628C34.5578 26.3307 35.2611 27.0342 36.1285 27.0342Z" fill="white"/>
<path d="M39.359 23.8026C40.2264 23.8026 40.9297 23.099 40.9297 22.2311C40.9297 21.3632 40.2264 20.6597 39.359 20.6597C38.4915 20.6597 37.7882 21.3632 37.7882 22.2311C37.7882 23.099 38.4915 23.8026 39.359 23.8026Z" fill="white"/>
<path d="M32.8981 23.8026C33.7655 23.8026 34.4688 23.099 34.4688 22.2311C34.4688 21.3632 33.7655 20.6597 32.8981 20.6597C32.0306 20.6597 31.3273 21.3632 31.3273 22.2311C31.3273 23.099 32.0306 23.8026 32.8981 23.8026Z" fill="white"/>
<path d="M72.7682 48.1908V41.9592H77.5239V41.0979H71.7049V48.1908H72.7682Z" fill="#132539"/>
<path d="M81.2464 44.2492V48.1908H82.228V42.9219H81.3166L77.6238 46.8736V42.9219H76.6423V48.1908H77.542L81.2464 44.2492Z" fill="#132539"/>
<path d="M89.0471 48.1908V42.9219H83.6486V48.1908H84.6301V43.7223H88.0656V48.1908H89.0471Z" fill="#132539"/>
<path d="M95.17 46.6811C94.7955 47.1573 94.1183 47.4816 93.4052 47.4816C92.1321 47.4816 91.2437 46.8736 91.1856 45.83H95.9762C96.0113 45.6374 96.0344 45.4247 96.0344 45.1916C96.0344 44.4722 95.7659 43.8946 95.2401 43.4589C94.7142 43.0232 94.0362 42.8003 93.2299 42.8003C92.2484 42.8003 91.4891 43.0536 90.9513 43.5704C90.4024 44.0871 90.1339 44.7458 90.1339 45.5462C90.1339 46.3771 90.4255 47.0358 91.0214 47.5323C91.6174 48.0287 92.4006 48.282 93.3702 48.282C94.4338 48.282 95.2401 47.9173 95.801 47.1878L95.17 46.6811ZM93.1598 43.5805C94.2466 43.5805 94.9357 44.1277 94.9947 45.0599H91.1736C91.3258 44.1682 92.05 43.5805 93.1598 43.5805Z" fill="#132539"/>
<path d="M98.1067 50.2174V47.745C98.5154 48.0997 99.1345 48.282 99.9527 48.282C100.841 48.282 101.565 48.0186 102.138 47.4816C102.699 46.9446 102.979 46.2758 102.979 45.4652C102.979 44.6748 102.722 44.0365 102.196 43.54C101.67 43.0435 100.957 42.8003 100.07 42.8003C99.1695 42.8003 98.5154 43.0637 98.1067 43.5805V42.9219H97.1251V50.2174H98.1067ZM99.9646 43.6008C101.18 43.6008 101.939 44.3506 101.939 45.526C101.939 46.1036 101.741 46.5696 101.355 46.9345C100.969 47.2992 100.467 47.4816 99.8706 47.4816C99.0412 47.4816 98.4572 47.208 98.1067 46.6608V44.6951C98.3871 44.0973 99.0763 43.6008 99.9646 43.6008Z" fill="#132539"/>
<path d="M105.045 48.1908V44.4215L107.194 46.8533L109.251 44.4215V48.1908H110.233V42.9219H109.391L107.206 45.4956L104.962 42.9219H104.063V48.1908H105.045Z" fill="#132539"/>
<path d="M112.13 44.1884C112.726 43.7933 113.334 43.6008 113.941 43.6008C115.145 43.6008 115.565 44.148 115.565 45.1713C115.18 45.07 114.713 45.0193 114.14 45.0193C112.317 45.0193 111.23 45.5462 111.23 46.6507C111.23 47.6235 112.119 48.2618 113.439 48.2618C114.42 48.2618 115.18 47.897 115.565 47.4106V48.1908H116.547V44.9383C116.547 43.5704 115.682 42.8003 114.058 42.8003C113.158 42.8003 112.189 43.0942 111.628 43.5501L112.13 44.1884ZM113.672 47.4917C112.831 47.4917 112.27 47.1573 112.27 46.6203C112.27 46.0529 112.936 45.7692 114.268 45.7692C114.794 45.7692 115.227 45.8199 115.565 45.9212V46.4582C115.437 46.7115 115.215 46.9547 114.876 47.1674C114.537 47.3803 114.128 47.4917 113.672 47.4917Z" fill="#132539"/>
<path d="M118.886 50.2174V47.745C119.295 48.0997 119.915 48.282 120.732 48.282C121.62 48.282 122.345 48.0186 122.917 47.4816C123.478 46.9446 123.759 46.2758 123.759 45.4652C123.759 44.6748 123.501 44.0365 122.976 43.54C122.45 43.0435 121.737 42.8003 120.849 42.8003C119.95 42.8003 119.295 43.0637 118.886 43.5805V42.9219H117.904V50.2174H118.886ZM120.744 43.6008C121.959 43.6008 122.718 44.3506 122.718 45.526C122.718 46.1036 122.52 46.5696 122.134 46.9345C121.749 47.2992 121.247 47.4816 120.651 47.4816C119.821 47.4816 119.237 47.208 118.886 46.6608V44.6951C119.166 44.0973 119.856 43.6008 120.744 43.6008Z" fill="#132539"/>
<path d="M125.824 48.1908V46.2758L126.327 45.8704L129.061 48.1908H130.369L127.074 45.3436L130.218 42.9219H128.897L125.824 45.2827V42.9219H124.842V48.1908H125.824Z" fill="#132539"/>
<path d="M135.405 46.6811C135.031 47.1573 134.353 47.4816 133.64 47.4816C132.366 47.4816 131.479 46.8736 131.42 45.83H136.211C136.246 45.6374 136.27 45.4247 136.27 45.1916C136.27 44.4722 136.001 43.8946 135.475 43.4589C134.949 43.0232 134.271 42.8003 133.465 42.8003C132.484 42.8003 131.724 43.0536 131.187 43.5704C130.638 44.0871 130.368 44.7458 130.368 45.5462C130.368 46.3771 130.661 47.0358 131.257 47.5323C131.853 48.0287 132.636 48.282 133.605 48.282C134.669 48.282 135.475 47.9173 136.036 47.1878L135.405 46.6811ZM133.395 43.5805C134.482 43.5805 135.171 44.1277 135.23 45.0599H131.409C131.56 44.1682 132.285 43.5805 133.395 43.5805Z" fill="#132539"/>
<path d="M138.814 43.7223V48.1908H139.794V43.7223H142.143V42.9219H136.488V43.7223H138.814Z" fill="#132539"/>
<path d="M146.644 49.4675V48.1908H151.645V49.4675H152.579V47.3802H151.703V42.9219H147.24V43.4082C147.24 45.4044 147.005 46.5594 146.386 47.3802H145.709V49.4675H146.644ZM150.721 43.7324V47.3802H147.438C147.917 46.5392 148.162 45.4449 148.162 44.0972V43.7324H150.721Z" fill="#132539"/>
<path d="M158.708 48.1908V42.9219H154.174V44.006C154.174 47.0863 153.52 47.3802 152.737 47.3802V48.1908C153.497 48.2719 154.046 48.0692 154.49 47.4613C154.934 46.8533 155.156 45.6779 155.156 43.9756V43.7324H157.727V48.1908H158.708Z" fill="#132539"/>
<path d="M162.555 42.9219C160.732 42.9219 159.926 43.6109 159.926 44.614C159.926 45.4246 160.546 46.0427 161.48 46.1947L159.54 48.1908H160.732L162.532 46.3264H164.015V48.1908H164.997V42.9219H162.555ZM160.966 44.6343C160.966 44.0365 161.457 43.7324 162.439 43.7324H164.015V45.5158H162.415C161.527 45.5158 160.966 45.151 160.966 44.6343Z" fill="#132539"/>
<path d="M170.909 48.1908V43.7223H174.355V42.9219H169.927V48.1908H170.909Z" fill="#132539"/>
<path d="M179.577 46.6811C179.203 47.1573 178.525 47.4816 177.812 47.4816C176.538 47.4816 175.651 46.8736 175.593 45.83H180.383C180.418 45.6374 180.441 45.4247 180.441 45.1916C180.441 44.4722 180.173 43.8946 179.647 43.4589C179.121 43.0232 178.443 42.8003 177.637 42.8003C176.655 42.8003 175.896 43.0536 175.358 43.5704C174.809 44.0871 174.541 44.7458 174.541 45.5462C174.541 46.3771 174.833 47.0358 175.428 47.5323C176.024 48.0287 176.808 48.282 177.777 48.282C178.841 48.282 179.647 47.9173 180.208 47.1878L179.577 46.6811ZM177.567 43.5805C178.654 43.5805 179.343 44.1277 179.402 45.0599H175.581C175.733 44.1682 176.457 43.5805 177.567 43.5805Z" fill="#132539"/>
<path d="M186.136 44.2492V48.1908H187.117V42.9218H186.206L182.514 46.8736V42.9218H181.532V48.1908H182.432L186.136 44.2492ZM182.467 40.6521C182.479 41.5843 183.261 42.1619 184.43 42.1619C185.517 42.1619 186.346 41.5742 186.358 40.6521H185.435C185.435 41.1486 185.049 41.483 184.43 41.483C183.776 41.483 183.401 41.1486 183.39 40.6521H182.467Z" fill="#132539"/>
<path d="M189.52 48.1908V44.4215L191.67 46.8533L193.727 44.4215V48.1908H194.708V42.9219H193.867L191.682 45.4956L189.438 42.9219H188.539V48.1908H189.52Z" fill="#132539"/>
<path d="M200.835 46.6811C200.461 47.1573 199.783 47.4816 199.071 47.4816C197.797 47.4816 196.91 46.8736 196.851 45.83H201.641C201.676 45.6374 201.7 45.4247 201.7 45.1916C201.7 44.4722 201.431 43.8946 200.905 43.4589C200.379 43.0232 199.702 42.8003 198.896 42.8003C197.914 42.8003 197.155 43.0536 196.617 43.5704C196.068 44.0871 195.799 44.7458 195.799 45.5462C195.799 46.3771 196.091 47.0358 196.687 47.5323C197.283 48.0287 198.066 48.282 199.036 48.282C200.099 48.282 200.905 47.9173 201.466 47.1878L200.835 46.6811ZM198.826 43.5805C199.913 43.5805 200.602 44.1277 200.66 45.0599H196.84C196.991 44.1682 197.716 43.5805 198.826 43.5805Z" fill="#132539"/>
<path d="M203.773 50.2174V47.745C204.181 48.0997 204.8 48.282 205.619 48.282C206.506 48.282 207.231 48.0186 207.803 47.4816C208.364 46.9446 208.645 46.2758 208.645 45.4652C208.645 44.6748 208.388 44.0365 207.862 43.54C207.336 43.0435 206.623 42.8003 205.735 42.8003C204.835 42.8003 204.181 43.0637 203.773 43.5805V42.9219H202.791V50.2174H203.773ZM205.63 43.6008C206.846 43.6008 207.605 44.3506 207.605 45.526C207.605 46.1036 207.407 46.5696 207.021 46.9345C206.635 47.2992 206.133 47.4816 205.537 47.4816C204.707 47.4816 204.122 47.208 203.773 46.6608V44.6951C204.052 44.0973 204.742 43.6008 205.63 43.6008Z" fill="#132539"/>
<path d="M209.39 45.5462C209.39 46.3468 209.694 46.9952 210.29 47.512C210.886 48.0287 211.657 48.282 212.603 48.282C213.549 48.282 214.332 48.0287 214.94 47.512C215.536 46.9952 215.84 46.3468 215.84 45.5462C215.84 44.7458 215.536 44.0871 214.94 43.5704C214.344 43.0536 213.561 42.8003 212.603 42.8003C211.657 42.8003 210.886 43.0536 210.29 43.5704C209.694 44.0871 209.39 44.7458 209.39 45.5462ZM210.43 45.5462C210.43 44.9687 210.64 44.4925 211.049 44.1378C211.458 43.7832 211.972 43.6008 212.603 43.6008C213.234 43.6008 213.76 43.7832 214.18 44.1378C214.59 44.5026 214.8 44.9687 214.8 45.5462C214.8 46.1238 214.601 46.5899 214.192 46.9446C213.783 47.2992 213.246 47.4816 212.603 47.4816C211.961 47.4816 211.447 47.2992 211.037 46.9345C210.628 46.5696 210.43 46.1036 210.43 45.5462Z" fill="#132539"/>
<path d="M219.64 48.1908C221.241 48.1908 222.14 47.6639 222.14 46.6811C222.14 46.0022 221.813 45.5867 221.159 45.4145C221.685 45.1409 221.942 44.7558 221.942 44.2695C221.942 43.2968 221.148 42.9219 219.453 42.9219H216.929V48.1908H219.64ZM219.651 45.8907C220.622 45.8907 221.101 46.144 221.101 46.6405C221.101 47.1472 220.575 47.4005 219.535 47.4005H217.91V45.8907H219.651ZM219.418 43.7122C220.399 43.7122 220.902 43.854 220.902 44.3911C220.902 44.8673 220.47 45.1206 219.756 45.1206H217.91V43.7122H219.418Z" fill="#132539"/>
<path d="M233.741 41.0979H232.749V46.6L227.923 41.0979H227.117V48.1908H228.109V42.7292L232.924 48.1908H233.741V41.0979ZM234.513 43.2359C234.513 43.7425 234.712 44.158 235.108 44.4822C235.494 44.8065 235.997 44.9686 236.593 44.9686C237.212 44.9686 237.715 44.8065 238.1 44.4822C238.486 44.158 238.684 43.7425 238.684 43.2359C238.684 42.7191 238.486 42.3037 238.1 41.9795C237.715 41.6654 237.212 41.5032 236.593 41.5032C235.985 41.5032 235.483 41.6654 235.097 41.9795C234.712 42.3037 234.513 42.7191 234.513 43.2359ZM235.775 42.5064C235.997 42.324 236.277 42.2328 236.593 42.2328C237.247 42.2328 237.762 42.6381 237.762 43.2359C237.762 43.8337 237.259 44.2289 236.593 44.2289C236.277 44.2289 235.997 44.1377 235.775 43.9554C235.553 43.773 235.436 43.5298 235.436 43.2359C235.436 42.9421 235.553 42.6989 235.775 42.5064ZM238.357 46.3365V45.5461H234.84V46.3365H238.357Z" fill="#132539"/>
<path d="M239.903 42.9828L241.995 42.1418V48.191H243V41.0576H242.334L239.529 42.2228L239.903 42.9828Z" fill="#132539"/>
<path d="M88.4839 12.3515V30.1127H91.5258V7.17383H88.9181L74.7465 24.935V7.17383H71.7049V30.1127H74.2786L88.4839 12.3515Z" fill="#4AB8E6"/>
<path d="M98.8851 30.1128V15.6613H108.745V13.0725H96.0774V30.1128H98.8851Z" fill="#4AB8E6"/>
<path d="M113.671 36.6666V28.6708C114.841 29.8178 116.613 30.4076 118.952 30.4076C121.493 30.4076 123.565 29.5556 125.202 27.8188C126.807 26.082 127.609 23.9192 127.609 21.2976C127.609 18.7416 126.874 16.6771 125.37 15.0714C123.865 13.4656 121.827 12.6792 119.287 12.6792C116.713 12.6792 114.841 13.5312 113.671 15.2024V13.0724H110.864V36.6666H113.671ZM118.986 15.2679C122.462 15.2679 124.634 17.693 124.634 21.4943C124.634 23.3621 124.066 24.8695 122.964 26.0492C121.86 27.2289 120.423 27.8188 118.719 27.8188C116.345 27.8188 114.674 26.934 113.671 25.1644V18.8071C114.474 16.8737 116.446 15.2679 118.986 15.2679Z" fill="#4AB8E6"/>
<path d="M129.74 21.5598C129.74 24.1486 130.609 26.2459 132.314 27.9171C134.018 29.5884 136.224 30.4076 138.931 30.4076C141.639 30.4076 143.878 29.5884 145.617 27.9171C147.321 26.2459 148.19 24.1486 148.19 21.5598C148.19 18.971 147.321 16.8409 145.617 15.1697C143.912 13.4984 141.672 12.6792 138.931 12.6792C136.224 12.6792 134.018 13.4984 132.314 15.1697C130.609 16.8409 129.74 18.971 129.74 21.5598ZM132.715 21.5598C132.715 19.6919 133.316 18.1517 134.487 17.0048C135.656 15.8578 137.127 15.2679 138.931 15.2679C140.737 15.2679 142.241 15.8578 143.444 17.0048C144.614 18.1845 145.215 19.6919 145.215 21.5598C145.215 23.4276 144.647 24.935 143.478 26.082C142.307 27.2289 140.77 27.8188 138.931 27.8188C137.093 27.8188 135.623 27.2289 134.453 26.0492C133.283 24.8695 132.715 23.3621 132.715 21.5598Z" fill="#4AB8E6"/>
<path d="M154.423 30.7501V12.4616L162.658 23.3067H163.395L171.395 12.4616V30.7501H174.441V7.17383H171.696L163.093 19.0293L154.189 7.17383H151.377V30.7501H154.423Z" fill="#132539"/>
<path d="M180.296 17.4465C182.004 16.1329 183.745 15.493 185.485 15.493C188.933 15.493 190.138 17.3117 190.138 20.7135C189.033 20.3767 187.694 20.2083 186.054 20.2083C180.832 20.2083 177.719 21.9596 177.719 25.6308C177.719 28.8641 180.263 30.9859 184.046 30.9859C186.857 30.9859 189.033 29.7735 190.138 28.1568V30.7502H192.95V19.9388C192.95 15.392 190.473 12.8323 185.819 12.8323C183.242 12.8323 180.464 13.809 178.857 15.3247L180.296 17.4465ZM184.715 28.4263C182.305 28.4263 180.698 27.3148 180.698 25.5298C180.698 23.6437 182.606 22.7006 186.422 22.7006C187.928 22.7006 189.167 22.869 190.138 23.2058V24.9909C189.769 25.8329 189.134 26.6412 188.163 27.3485C187.192 28.0558 186.021 28.4263 184.715 28.4263Z" fill="#132539"/>
<path d="M199.65 30.7502V15.8971H209.526V13.2363H196.839V30.7502H199.65Z" fill="#132539"/>
<path d="M212.398 17.4465C214.105 16.1329 215.846 15.493 217.587 15.493C221.034 15.493 222.24 17.3117 222.24 20.7135C221.135 20.3767 219.796 20.2083 218.156 20.2083C212.933 20.2083 209.821 21.9596 209.821 25.6308C209.821 28.8641 212.364 30.9859 216.147 30.9859C218.959 30.9859 221.135 29.7735 222.24 28.1568V30.7502H225.051V19.9388C225.051 15.392 222.574 12.8323 217.922 12.8323C215.344 12.8323 212.565 13.809 210.959 15.3247L212.398 17.4465ZM216.817 28.4263C214.406 28.4263 212.799 27.3148 212.799 25.5298C212.799 23.6437 214.708 22.7006 218.524 22.7006C220.031 22.7006 221.269 22.869 222.24 23.2058V24.9909C221.872 25.8329 221.235 26.6412 220.265 27.3485C219.294 28.0558 218.122 28.4263 216.817 28.4263Z" fill="#132539"/>
<path d="M235.234 31.087C237.51 31.087 239.384 30.5818 240.824 29.5377C242.264 28.5273 243 27.1464 243 25.3614C243 23.509 242.297 22.3302 240.289 21.3534C241.661 20.5114 242.364 19.2316 242.364 17.5812C242.364 14.651 239.786 12.7986 235.401 12.7986C231.753 12.7986 229.075 14.4826 227.903 16.5034L229.978 17.8843C231.284 16.234 233.024 15.4257 235.133 15.4257C237.644 15.4257 239.384 16.3687 239.384 18.019C239.384 19.5346 238.046 20.5451 236.339 20.5451H232.455V23.1048H236.539C238.849 23.1048 240.021 23.8794 240.021 25.4287C240.021 27.3148 238.046 28.46 235.267 28.46C232.69 28.46 230.547 27.3148 229.577 25.5298L227.368 27.0791C229.007 29.7399 231.652 31.087 235.234 31.087Z" fill="#132539"/>
</svg>
